<svg
   version="1.1"
   id="svg2"
   width="1000"
   height="1000"
   viewBox="0 0 1000 1000"
   xmlns="http://www.w3.org/2000/svg"
>
  <path
     style="fill:#000000;stroke-width:2"
     d="M 54.828356,856.5 C 73.787624,823.775 100.99536,776.75 115.28999,752 c 79.91139,-138.36016 93.59035,-161.78632 94.14573,-161.23096 0.33568,0.3357 -0.40414,7.725 -1.64408,16.42066 -2.90162,20.34922 -0.97232,61.90228 4.04008,87.01522 C 225.4519,762.4441 262.28996,823.1056 317,867.38622 c 20.56912,16.64802 43.85504,29.91726 81,46.15706 3.66452,1.60212 -46.1014,2.22216 -186.32152,2.32136 L 20.35696,916 Z M 604,913.5433 c 48.07532,-21.01842 75.13018,-38.68132 104.99608,-68.54722 52.70034,-52.70034 82.51968,-119.9437 86.18804,-194.35618 0.64096,-13.00194 0.2615,-31.28966 -0.84324,-40.63936 -1.10474,-9.3497 -1.76806,-17.24004 -1.47402,-17.53408 0.29404,-0.29402 6.7938,10.50572 14.44392,23.99946 16.86838,29.7535 149.35306,259.89514 162.93306,283.03408 l 9.68368,16.5 -190.46376,-0.1354 C 649.86492,915.76542 600.3353,915.1455 604,913.5433 Z M 488.15898,896.23672 c -8.95092,-1.61814 -9.89402,-5.23678 -2.37782,-9.12356 5.69862,-2.94686 6.06934,-3.87636 6.62756,-16.61732 0.54458,-12.43012 0.96136,-13.54824 5.27796,-14.1594 3.94698,-0.55884 4.47812,-0.006 3.36524,3.5 -0.77538,2.44296 -0.43928,4.16356 0.8133,4.16356 1.17414,0 2.13478,3.6 2.13478,8 0,4.4 -0.9,8 -2,8 -1.1,0 -2,4.05 -2,9 0,6.00708 -0.83136,8.91244 -2.5,8.73672 -1.375,-0.1448 -5.57846,-0.8198 -9.34102,-1.5 z m -18.2048,-9.0336 c 0.84312,-3.73828 0.76214,-8.01328 -0.18,-9.5 -2.70714,-4.272 -2.1217,-5.67 3.2258,-7.70312 3.78206,-1.43794 5,-3.34584 5,-7.83246 0,-5.52284 2.99414,-9.84006 5.25584,-7.57838 0.54434,0.54436 1.50662,5.9981 2.1384,12.11948 1.09722,10.63096 0.90682,11.23994 -4.24844,13.58884 -3.38562,1.54258 -5.81616,4.5543 -6.52146,8.0808 -0.61838,3.09194 -2.26706,5.62172 -3.66372,5.62172 -1.85508,0 -2.12628,-1.8316 -1.00644,-6.79688 z m 40.81924,-12.60508 c 0.7501,-10.67108 1.74412,-19.78226 2.20894,-20.24708 0.46482,-0.4648 2.23394,-0.31218 3.93138,0.3392 1.95028,0.74838 3.08626,3.70518 3.08626,8.0331 0,4.24282 1.1415,7.28682 3,8 1.65,0.63316 3,2.43316 3,4 0,1.56682 -1.35,3.36682 -3,4 -1.88298,0.72256 -3,3.78094 -3,8.21398 0,6.30528 -0.56792,7.06276 -5.2952,7.06276 h -5.2952 z m 14.76442,17.01548 c -0.479,-1.43702 0.87114,-6.55096 3.00032,-11.36434 3.622,-8.18812 3.6683,-9.26824 0.71904,-16.77632 -1.7337,-4.4136 -2.6727,-8.80056 -2.08666,-9.7488 1.94108,-3.14074 6.34634,-1.7875 7.40896,2.27594 0.62584,2.3932 2.72802,4 5.23326,4 3.31916,0 4.18724,-1.2439 4.18724,-6 0,-4.51694 0.91984,-6 3.72142,-6 2.99584,0 3.96732,2.04722 4.98262,10.5 2.03362,16.93082 1.95358,17.19538 -5.63278,18.61858 -8.30136,1.55736 -11.29938,4.70248 -10.59492,11.11484 0.42094,3.83156 -0.51514,4.88686 -4.77196,5.3797 -3.04834,0.35294 -5.66522,-0.49564 -6.16654,-1.9996 z m -71.12106,-1.99674 c -1.33828,-1.33828 -5.57952,-2.22132 -9.425,-1.96234 -6.48816,0.43694 -6.99178,0.0536 -6.99178,-5.32208 0,-3.1861 1.8,-8.08126 4,-10.8781 2.2,-2.79684 4,-7.6962 4,-10.88746 0,-3.19126 1.2514,-7.51368 2.7809,-9.6054 2.38722,-3.2647 3.5198,-3.46646 8,-1.42514 6.23726,2.84188 6.74612,8.46186 1.2191,13.46374 -5.11296,4.62718 -5.08088,9.40188 0.0946,14.08568 2.50642,2.26826 3.86402,5.62568 3.5,8.65572 -0.68918,5.73684 -3.69406,7.3592 -7.17788,3.87538 z m 97.58178,-2.41822 C 549.11558,884.31558 549.54112,882 552.9539,882 c 6.49874,0 9.63916,-9.22658 8.18012,-24.0334 -0.75646,-7.67692 -0.89256,-14.73926 -0.30244,-15.6941 0.59012,-0.95484 3.45042,-1.28158 6.3562,-0.7261 3.95606,0.75624 6.30086,3.32654 9.33418,10.23178 2.22804,5.072 5.72206,11.3682 7.7645,13.99154 4.92394,6.32438 4.93702,14.23028 0.0236,14.23028 -2.02952,0 -5.31614,-1.79682 -7.30358,-3.99294 -2.8088,-3.10368 -4.23052,-3.4809 -6.38382,-1.69382 -1.52366,1.26452 -2.6334,3.73634 -2.46612,5.49294 0.1672,1.7566 0.20052,4.22036 0.0738,5.475 -0.29824,2.95424 -13.62112,4.528 -16.23174,1.91738 z M 418.67974,879.5 c -0.85598,-1.375 -1.29468,-4.525 -0.9749,-7 0.37824,-2.92742 -0.46838,-4.5 -2.4226,-4.5 -1.65222,0 -3.29164,2.025 -3.64314,4.5 -0.41072,2.89192 -2.24718,4.72838 -5.1391,5.1391 -5.37058,0.76274 -5.80134,-2.65302 -1.60206,-12.70334 C 407.1257,859.60398 408.97,858 412.87286,858 c 3.7481,0 6.39882,-2.09396 10.12714,-8 6.51166,-10.31516 13.8677,-11.16152 15.73786,-1.81074 0.95924,4.79628 0.3108,6.93992 -2.88122,9.52466 -3.50448,2.83776 -3.80108,4.1718 -1.98786,8.94096 2.80088,7.36686 2.7084,8.48222 -1.01164,12.20226 -3.76272,3.76272 -12.0026,4.13634 -14.1774,0.64286 z m -30.64642,-10.45986 c -2.0023,-2.41262 -1.49292,-4.10494 2.75512,-9.15344 5.96062,-7.08382 6.62094,-13.01438 2.01564,-18.1032 -3.89062,-4.29908 -2.13848,-7.7835 3.91396,-7.7835 2.46508,0 5.54378,-1.06182 6.84154,-2.35958 2.9189,-2.9189 11.69018,1.22072 14.76664,6.96912 2.74142,5.12238 -5.0733,13.759 -11.1373,12.30862 -3.50748,-0.83892 -4.96118,0.79436 -8.93606,10.03996 -5.05136,11.7495 -6.33398,12.76384 -10.21954,8.08202 z M 374,860.6289 c 0,-1.8541 -1.89128,-5.38428 -4.20284,-7.84482 l -4.20286,-4.47372 6.04224,-8.78208 c 3.32322,-4.83014 6.66466,-12.09996 7.42542,-16.15518 1.55894,-8.30984 2.23368,-8.64392 8.53872,-4.2277 l 4.49068,3.14542 -5.4179,9.95446 c -5.2963,9.73106 -5.33968,10.0869 -1.9326,15.8546 3.06012,5.18038 3.10552,5.90012 0.37222,5.90012 -1.98728,0 -3.11308,1.80818 -3.11308,5 0,3.66666 -1.06666,5 -4,5 -2.41792,0 -4,-1.33334 -4,-3.3711 z m 238.78258,-1.68004 c -2.406,-3.67202 -4.4007,-4.70484 -7.30576,-3.7828 -3.72384,1.18188 -3.90194,0.64024 -2.61394,-7.94888 C 604.08504,839.06726 603.81406,838 600.52254,838 596.95112,838 592,834.51212 592,831.99618 c 0,-0.6621 5.8653,-4.3071 13.03402,-8.1 11.03782,-5.84002 13.321,-6.44146 14.90794,-3.9271 1.3238,2.09746 0.6806,4.23932 -2.19092,7.29592 -3.88754,4.1381 -3.91912,4.60862 -0.72384,10.78758 1.83754,3.55342 2.94502,8.53204 2.46108,11.06362 -0.6761,3.53682 0.20768,4.87582 3.81592,5.78144 5.7035,1.43148 6.03452,4.24516 0.82728,7.032 -5.77066,3.08836 -7.70516,2.58028 -11.3489,-2.98078 z M 346.07736,844.34688 c -4.75176,-3.96696 -6.37858,-6.67714 -5.45412,-9.08626 1.04196,-2.7153 2.13246,-2.99692 5.2156,-1.34686 2.144,1.14742 4.85736,2.08624 6.02968,2.08624 3.1459,0 2.5889,-5.1306 -0.86852,-8 -4.67324,-3.87846 -3.53756,-6.21112 2.30948,-4.74362 5.13892,1.2898 5.27234,1.10378 4.1535,-5.79084 -0.8793,-5.41842 -0.26548,-7.92932 2.5645,-10.4904 4.70568,-4.2586 8.34622,-2.16048 6.8178,3.92924 -0.64316,2.56258 -0.1528,5.28756 1.08978,6.05548 1.65436,1.02244 1.59608,2.19522 -0.21762,4.3806 -1.95648,2.35742 -1.96264,3.80762 -0.0294,6.9033 1.34608,2.15542 1.79812,5.00734 1.00452,6.3376 -3.74548,6.27826 -11.90734,15.41852 -13.76814,15.41858 -1.14156,4e-5 -5.12274,-2.54384 -8.8471,-5.65306 z m 283.11312,-2.39942 c -5.94756,-6.58322 -6.90234,-8.7488 -5.23274,-11.8685 1.12324,-2.0988 2.06912,-6.35016 2.10194,-9.44748 l 0.0596,-5.63148 7.44032,8.19112 c 4.09218,4.50512 9.91532,9.70088 12.94032,11.54612 5.96416,3.6381 6.39772,4.74668 3.59148,9.18324 -1.5936,2.5194 -2.36632,2.45074 -5.62686,-0.5 -3.6537,-3.30662 -8.46454,-4.60756 -8.46454,-2.289 0,0.62232 0.93166,2.87232 2.07036,5 3.49768,6.53546 -1.19164,4.32596 -8.87988,-4.18402 z M 457.5,832.62134 c -2.31592,-0.6052 -3.5,-2.8719 -3.5,-6.70014 0,-7.39272 5.92422,-19.9212 9.41992,-19.9212 1.4735,0 3.68664,-2.475 4.9181,-5.5 l 2.239,-5.5 1.93322,7.5975 c 1.59638,6.27364 1.31656,8.27892 -1.60584,11.50812 -2.70798,2.9923 -3.08396,4.96544 -1.60104,8.4025 4.09856,9.49956 -0.1668,13.15418 -11.80336,10.11322 z M 518,831.0941 c 0,-1.59824 1.0428,-5.19458 2.31732,-7.99186 1.90198,-4.17438 1.72274,-5.74302 -1,-8.7516 C 517.4928,812.33456 516,807.3809 516,803.34252 516,796.57868 516.45578,796 521.78318,796 c 4.50076,0 6.06146,1.10876 7.0381,5 0.91674,3.65254 2.59212,5 6.21682,5 3.62856,0 4.9619,1.07486 4.9619,4 0,2.2 -1.25372,4 -2.78602,4 -3.01686,0 -5.68914,4.85818 -3.74284,6.80446 0.65754,0.65756 3.29552,1.19554 5.8622,1.19554 3.2661,0 4.66666,1.15074 4.66666,3.83428 0,2.98682 -2.23194,4.31292 -10.09844,6 C 520.5852,834.69012 518,834.56978 518,831.0941 Z M 657.4205,830 c 0.87024,-3.32778 0.0614,-4 -4.81306,-4 -3.8148,0 -7.6489,-1.919 -10.98888,-5.5 -10.87,-11.65442 -12.35632,-21.7653 -2.84876,-19.37906 2.6717,0.67054 6.81854,0.1698 9.21522,-1.11292 5.49006,-2.9382 6.98006,-1.54832 4.1031,3.82734 -1.94502,3.6343 -1.05528,5.4402 6.83796,13.8787 9.76984,10.44476 10.84222,13.17942 5.91034,15.07196 -5.98506,2.29668 -8.49818,1.35256 -7.41592,-2.78602 z M 502,814 c 0,-14.66666 0.33334,-16 4,-16 3.66666,0 4,1.33334 4,16 0,14.66666 -0.33334,16 -4,16 -3.66666,0 -4,-1.33334 -4,-16 z m -64.77052,7.5 c 1.67796,-5.03708 1.62404,-8.12708 -0.27366,-15.68568 -1.11634,-4.4464 -0.42192,-5.55018 4.87112,-7.74264 3.39518,-1.40632 6.17306,-3.79778 6.17306,-5.31432 0,-2.99744 1.91852,-3.43056 6.83642,-1.54338 3.99044,1.53128 4.0511,4.69216 0.1452,7.56554 -1.66014,1.22126 -4.0063,7.84548 -5.2137,14.72048 -2.11172,12.02418 -2.42066,12.5 -8.11636,12.5 -5.2512,0 -5.75148,-0.5091 -4.42204,-4.5 z m 111.82926,0.1136 c -7.95842,-34.17108 -7.3324,-37.40248 5.66002,-29.2155 6.41678,4.04344 7.17642,5.35296 6.2598,10.79108 -0.73438,4.35696 0.1506,7.70674 2.98912,11.31546 5.15182,6.54946 5.10694,6.8054 -1.46768,8.3735 -3.025,0.72148 -7.04502,1.77018 -8.93338,2.33044 -2.38746,0.70834 -3.7607,-0.38678 -4.50788,-3.59498 z m -127.1234,-2.9572 c -2.71444,-1.83152 -5.30164,-3.61978 -5.74934,-3.9739 -1.73934,-1.37578 12.95866,-32.6495 15.3521,-32.66552 2.7442,-0.018 2.0153,4.7629 -2.86602,18.79998 -2.41548,6.94612 -2.34072,8.2342 0.67112,11.56226 2.97734,3.28992 3.03308,4.10162 0.45846,6.67624 -2.57462,2.57464 -3.531,2.52612 -7.86632,-0.39906 z m 244.4025,-3.95046 c -4.09784,-3.22904 -6.32818,-6.52692 -5.79444,-8.56794 0.47726,-1.82502 -1.65678,-6.34218 -4.74228,-10.03812 -4.42108,-5.29572 -5.18626,-7.51174 -3.6105,-10.45608 1.21674,-2.27348 2.95216,-3.13084 4.43284,-2.19 C 673.30668,794.05466 688,805.06242 688,806.96008 c 0,4.18808 -2.58476,5.13064 -5.88338,2.14544 -4.8443,-4.38402 -9.994,-0.6433 -6.61662,4.8063 1.375,2.21864 2.5,4.4961 2.5,5.06102 0,2.56652 -5.58194,0.52422 -11.66216,-4.2669 z M 311.1823,811.85192 C 308.33204,808.46456 306,804.93556 306,804.00966 306,801.45908 318.93784,794 323.36188,794 c 2.13936,0 6.47652,-2.7 9.63812,-6 3.1616,-3.3 6.92998,-6 8.37418,-6 3.50476,0 3.34594,4.91258 -0.25546,7.90146 -1.5847,1.3152 -3.1597,4.8004 -3.5,7.7449 -0.53114,4.5959 -1.4238,5.25912 -6.30674,4.68586 -4.97044,-0.58352 -5.52114,-0.142 -4.36522,3.5 1.34272,4.23056 -1.65448,5.87678 -3.94676,2.16778 -1.90266,-3.07856 -9,-2.36834 -9,0.90062 0,1.59534 1.46558,3.7208 3.25684,4.72324 2.00276,1.1208 2.45802,2.3163 1.1823,3.10474 -1.141,0.70518 -4.40658,-1.48934 -7.25684,-4.87668 z m 259.867,0.1996 c -4.77608,-4.98514 -5.25498,-6.39378 -3.06918,-9.0275 2.17268,-2.61792 1.74818,-4.30368 -2.63496,-10.46402 l -5.22488,-7.34336 8.43986,-5.59972 C 578.89554,772.75952 580,772.69318 580,778.9297 c 0,2.85626 1.65572,5.81574 3.93664,7.03644 3.2479,1.73824 3.59776,2.99814 1.99972,7.20132 -1.26454,3.32598 -1.24254,6.39196 0.0634,8.83206 3.11616,5.82264 2.39002,7.99464 -2.49972,7.47696 -3.0617,-0.32414 -4.50816,0.59714 -4.5255,2.88242 -0.0444,5.85008 -2.10246,5.77026 -7.9252,-0.30738 z M 398,801.02684 c 0,-3.77286 1.65402,-5.66426 6.85304,-7.83654 4.80384,-2.00718 7.94356,-5.29738 10.5,-11.00322 2.81486,-6.28262 4.31298,-7.71696 6.56596,-6.28646 2.4986,1.58644 2.23866,3.52738 -1.8049,13.47638 C 413.87662,804.7241 412.69774,806 404.75512,806 398.89272,806 398,805.34278 398,801.02684 Z m 196.87372,0.0612 C 591.49588,795.93272 592.38242,792 596.92238,792 c 2.84822,0 7.5658,10.84516 5.58098,12.82998 -2.2269,2.2269 -4.42504,1.1488 -7.62964,-3.74202 z M 384.9085,797.85202 c -0.73016,-1.18142 0.5967,-4.19634 2.94858,-6.69982 3.7141,-3.95346 3.88858,-4.87342 1.32744,-6.99898 -2.38368,-1.97828 -4.11334,-1.58618 -9.0264,2.0462 -5.9333,4.38668 -6.17496,4.40538 -10.17268,0.78748 l -4.09502,-3.70594 7.43276,-7.61186 c 7.37218,-7.54978 7.46294,-7.57946 11.1327,-3.64044 2.03498,2.18428 5.04312,3.97142 6.6848,3.97142 5.11732,0 5.61908,-5.93346 0.92434,-10.93078 l -4.44102,-4.72726 4.5983,-2.46092 c 4.17584,-2.23486 5.20368,-1.7606 11.188,5.16224 3.62434,4.19274 6.5897,8.239 6.5897,8.99168 C 410,774.43974 389.93844,800 388.05098,800 c -0.9982,0 -2.41232,-0.96662 -3.14248,-2.14806 z M 598.5,783.102 C 592.725,774.96074 588,767.50882 588,766.54218 588,764.00026 600.77182,752 603.47718,752 c 4.21736,0 4.96096,4.23866 1.2231,6.97188 -3.56592,2.60752 -3.5379,2.8786 0.77188,7.4662 3.87708,4.12702 4.09294,5.14644 1.62224,7.66118 -2.45256,2.4963 -2.4574,3.43012 -0.0346,6.6975 2.2722,3.0644 3.38198,3.32644 5.75322,1.35848 2.42524,-2.01276 3.48668,-1.3772 6.08208,3.64176 3.09704,5.98898 3.05546,6.12588 -2.77614,9.14152 -3.25612,1.68382 -6.18994,3.03994 -6.51956,3.01362 -0.32962,-0.0264 -5.32432,-6.70888 -11.09932,-14.85014 z m 85.78696,9.22186 c -4.61842,-3.83106 -8.36556,-5.32602 -12.0093,-4.79122 -4.06016,0.5959 -6.32758,-0.6176 -9.71504,-5.19938 l -4.41876,-5.97672 4.07322,-5.17826 c 5.25022,-6.67456 6.74096,-6.5222 9.85998,1.00778 2.26574,5.46996 3.2578,6.04696 8.57008,4.98452 3.6039,-0.72078 7.67724,-0.1216 10.18028,1.49756 2.29492,1.4845 6.67504,3.31552 9.73362,4.0689 l 5.56102,1.3698 -5.2984,6.94658 c -2.91412,3.82062 -6.3166,6.92236 -7.56104,6.89278 -1.24444,-0.0296 -5.28348,-2.55964 -8.97566,-5.62234 z M 294.83884,790.6371 c -4.39208,-4.73912 -4.62528,-5.7078 -2.00488,-8.3282 2.43152,-2.43152 3.52156,-2.50362 6.05566,-0.40052 4.09118,3.39538 11.2728,-1.18912 18.70754,-11.94224 2.97156,-4.29788 6.55608,-7.8485 7.9656,-7.89024 4.37854,-0.1296 5.19358,5.93008 1.19124,8.85666 -5.55244,4.06006 -1.71956,6.16014 4.18358,2.29226 7.61396,-4.98886 6.5678,0.53144 -1.6012,8.44916 -4.3669,4.23256 -7.8034,6.02128 -9.97046,5.18968 -2.04644,-0.78528 -5.6635,0.71406 -9.48984,3.9337 -7.70794,6.48582 -8.88954,6.47322 -15.03724,-0.1602 z m 327.0279,-10.34284 c -3.75942,-3.0442 -4.25338,-4.41854 -2.3935,-6.65956 1.89492,-2.28322 1.0211,-3.53594 -4.56486,-6.54418 -7.75752,-4.1777 -8.47552,-6.01474 -3.45,-8.82716 3.27782,-1.83436 3.27782,-2.1349 0,-5.75686 -4.50166,-4.97428 -4.36134,-6.9804 0.7098,-10.14738 5.05996,-3.16 15.83182,-1.25504 15.83182,2.7998 0,1.56258 -0.80372,2.84108 -1.78602,2.84108 -0.98232,0 -2.33912,1.44134 -3.01512,3.20298 -0.83442,2.17444 1.81978,6.00232 8.2655,11.92052 5.71752,5.24958 8.70714,9.3578 7.51512,10.32698 -1.08872,0.8852 -4.31864,3.65022 -7.1776,6.1445 -5.15144,4.49436 -5.24066,4.50064 -9.93514,0.69928 z m -339.59802,-8.60718 c -1.35238,-2.1655 -1.88114,-5.75754 -1.17502,-7.98232 0.86598,-2.72844 -0.1906,-5.61456 -3.24614,-8.86702 -4.98138,-5.30244 -4.89378,-5.71186 1.65244,-7.72406 2.75414,-0.84658 4.5,-0.54022 4.5,0.78964 0,1.33066 1.97764,1.67652 5.10222,0.89232 3.64574,-0.91502 5.84686,-0.26222 7.71078,2.28684 3.99748,5.46688 9.67346,2.45742 7.27304,-3.8562 -2.88396,-7.5854 2.35018,-10.9108 6.70714,-4.26126 1.81446,2.76924 4.532,5.03498 6.03894,5.03498 5.98438,0 4.83288,5.80256 -1.94512,9.80166 -4.84106,2.8563 -6.887,5.50528 -6.887,8.91692 0,5.23624 -4.46996,8.03658 -10.0176,6.27584 -1.89974,-0.60296 -5.65924,-0.25788 -8.35444,0.76682 -3.95222,1.50264 -5.3761,1.10132 -7.35924,-2.07416 z m 72.96058,-1.44774 -5.51904,-5.76064 6.00386,-4.27514 c 3.30214,-2.35132 7.87862,-7.30854 10.16998,-11.01604 5.13372,-8.30654 15.03408,-10.7896 20.82528,-5.2231 5.46868,5.25648 2.7765,12.48472 -4.01508,10.78014 -4.22642,-1.06076 -4.92626,-0.62958 -4.36408,2.6888 1.04714,6.181 -3.89378,10.94094 -8.6916,8.37324 -3.3001,-1.76616 -3.84348,-1.51528 -3.3399,1.54202 0.64438,3.91198 -1.57024,8.65138 -4.04258,8.65138 -0.82928,0 -3.99136,-2.5923 -7.02684,-5.76066 z m 350.94234,3.90906 c -1.5556,-0.98468 -5.6056,-1.34786 -9,-0.80704 -4.93138,0.78572 -8.08078,-0.5098 -15.67164,-6.44656 -5.225,-4.08644 -9.5,-7.8042 -9.5,-8.26166 0,-0.45748 1.4028,-3.54448 3.11732,-6.86002 3.46852,-6.70736 7.54376,-6.76306 8.52178,-0.1164 0.51346,3.4895 1.98784,4.34334 7.5,4.34334 3.7735,0 6.8609,0.93036 6.8609,2.06746 0,1.13708 3.15,3.92598 7,6.19754 4.09722,2.41742 7,5.70692 7,7.93256 0,4.17206 -1.5171,4.67986 -5.82836,1.95084 z M 482,771 c -2.87266,-3.46134 -8,-4.0131 -8,-0.8609 0,1.1765 -2.025,1.8515 -4.5,1.5 -6.52612,-0.92686 -5.51606,-6.15986 1.8605,-9.6391 4.39306,-2.07202 7.78912,-6.09324 10.979,-13 4.46178,-9.66068 7.00338,-12.90492 10.1605,-12.96938 1.80626,-0.0368 1.94844,19.99 0.2163,30.46938 -1.33888,8.10018 -6.07712,10.08986 -10.7163,4.5 z m 18,-2 c 0,-1.65 -0.0354,-3.675 -0.0788,-4.5 -0.0432,-0.825 2.8817,-1.95 6.5,-2.5 8.20152,-1.24668 8.97562,-6.7242 1.0787,-7.63284 -3.8855,-0.44708 -5.5,-1.76804 -5.5,-4.5 0,-2.96352 1.40204,-3.86716 6,-3.86716 5.33334,0 6,-0.66666 6,-6 0,-4 1,-6 3,-6 2.45614,0 3,3.44444 3,19 v 19 h -10 c -7.55556,0 -10,-0.73334 -10,-3 z m 24.68638,-2.09608 c -0.67422,-1.757 0.32302,-4.20104 2.30568,-5.6508 3.2542,-2.37952 3.2867,-3.4625 0.47394,-15.79368 -3.14532,-13.78914 -2.88734,-15.47178 2.36734,-15.44072 2.1939,0.012 4.54902,4.5719 7.66666,14.84076 5.80432,19.11818 5.70952,20.32758 -1.79844,22.94486 -8.28638,2.88866 -9.60246,2.78108 -11.01518,-0.90042 z m -72.64392,-3.85276 c -3.17746,-3.8286 2.1988,-13.90718 12.563,-23.55116 8.7701,-8.16066 11.39454,-9.17424 11.39454,-4.40068 0,5.03354 -5.07174,13.32762 -13.64116,22.30818 -6.57886,6.89446 -8.4354,7.9101 -10.31638,5.64366 z m 187.611,-6.45074 c -3.6594,-2.96978 -7.00672,-5.64804 -7.43846,-5.95168 -0.43176,-0.30364 0.38674,-1.96394 1.81886,-3.68954 2.21918,-2.67394 1.47818,-4.29028 -5.01564,-10.94054 -7.52464,-7.70592 -7.57696,-7.86802 -4.20232,-13.01836 1.87944,-2.8684 4.58198,-5.66226 6.00564,-6.20856 4.04326,-1.55154 23.45818,11.36072 22.63924,15.05666 -0.73502,3.31714 -1.69478,3.45134 -8.9482,1.25118 -7.0454,-2.13704 -3.74084,3.19704 5.53042,8.927 4.37636,2.70472 7.95364,5.38024 7.94952,5.94556 -0.018,2.45798 -8.10868,14.02786 -9.80968,14.02786 -1.03176,0 -4.87,-2.42982 -8.52938,-5.39958 z m -297.53256,-4.8824 -3.93702,-6.47392 6.40806,-4.29724 c 17.87266,-11.9854 25.43158,-15.41712 28.4468,-12.91472 4.48174,3.71952 3.79578,4.8512 -7.01366,11.5707 -6.04944,3.76054 -9.57568,7.24112 -8.96046,8.84438 0.57608,1.5012 -1.58298,4.17798 -4.99612,6.19418 l -6.01058,3.55052 z m 220.88306,-3.71364 c -3.17562,-3.50904 -3.31172,-4.69228 -1.03004,-8.95564 2.16182,-4.03942 2.16562,-5.47074 0.0214,-8.0544 -1.43422,-1.72812 -4.37532,-2.8838 -6.53578,-2.56818 -2.20212,0.3217 -5.08156,-1.18378 -6.55308,-3.42616 -2.32474,-3.54254 -1.8507,-4.91372 4.14492,-11.98938 5.4005,-6.37336 7.2734,-7.48586 9.25926,-5.5 1.36916,1.36916 4.08626,2.48938 6.03802,2.48938 1.95176,0 4.94486,2.7 6.65136,6 3.09298,5.98116 7.65074,7.80118 10.00334,3.9946 1.59834,-2.58618 9.0006,1.18284 8.98672,4.57576 -0.006,1.3363 -2.19436,5.12964 -4.8642,8.42964 l -4.85428,6 -11.11986,-10.91594 c -8.3883,-8.23448 -11.68554,-10.35024 -13.42274,-8.61304 -1.73722,1.73722 -0.004,4.85912 7.05304,12.70898 9.93798,11.05344 10.36338,12.90762 3.9399,17.17266 -3.54426,2.3533 -4.52278,2.18236 -7.71796,-1.34828 z m -152.45762,-9.87276 c -2.13384,-3.41684 -1.31454,-4.7744 7.0189,-11.62986 5.18912,-4.2688 12.2412,-9.70488 15.6713,-12.0802 6.16006,-4.26578 6.27956,-4.27122 9.74256,-0.44464 4.48244,4.95302 2.57576,10.78612 -2.95218,9.03162 -3.00124,-0.95256 -6.65258,1.24824 -14.7031,8.8621 C 419.43314,737.44178 414.24196,742 413.78784,742 c -0.4541,0 -1.91278,-1.74078 -3.2415,-3.86838 z m -124.50152,-0.0616 c -1.62534,-1.0278 -6.89232,-1.32908 -11.7044,-0.6695 -7.77936,1.06628 -8.66984,0.787 -8.03308,-2.5194 0.49732,-2.58236 6.12616,-5.8588 18.42184,-10.72298 17.17018,-6.79256 17.78984,-6.88932 20.48826,-3.19902 3.90256,5.3371 3.58012,6.22524 -3.29388,9.07254 -3.34204,1.38432 -6.9737,4.1935 -8.07036,6.24264 -2.2403,4.18604 -3.5515,4.48758 -7.80838,1.79572 z M 713.00978,732.5 c -24.60184,-19.33726 -27.38646,-24.21474 -9.40934,-16.4812 6.48118,2.78814 12.97462,4.06604 18.49146,3.63914 7.76448,-0.60082 8.66674,-0.175 10.39338,4.90614 1.42846,4.20362 1.1,6.77098 -1.34336,10.5 -4.3372,6.61942 -6.9116,6.25536 -18.13214,-2.56408 z m -381.9483,-0.38112 C 329.37766,728.86276 328,725.44144 328,724.51596 c 0,-0.92548 4.95,-4.1104 11,-7.0776 8.98028,-4.40434 11,-6.31694 11,-10.41662 0,-6.81154 4.84664,-6.48278 12.15384,0.82442 7.14988,7.14988 7.3011,10.08974 0.83158,16.16754 -4.86668,4.572 -5.09616,4.59936 -7.7809,0.92776 -2.40706,-3.29182 -3.4706,-3.46228 -8.18894,-1.31246 -4.36294,1.98788 -4.96434,3.02288 -3.07758,5.2963 1.89086,2.27836 1.16748,3.43456 -3.735,5.96972 -5.98898,3.09704 -6.12588,3.05546 -9.14152,-2.77614 z m 66.85624,-7.21802 c -2.1846,-2.63228 -1.18382,-4.51528 6.64364,-12.5 7.56198,-7.71394 8.84846,-10.0477 7.16918,-13.00558 -2.50496,-4.41222 0.95012,-9.39528 6.51434,-9.39528 2.55712,0 3.75916,1.43564 3.76776,4.5 0.008,2.96048 2.19736,5.74382 6.3985,8.13568 5.08662,2.89598 5.79614,4.00876 3.48736,5.46938 -1.59418,1.00852 -4.73292,1.84748 -6.97498,1.86432 -2.35966,0.018 -7.24482,3.82098 -11.59954,9.03062 -8.02294,9.598 -11.29712,10.85208 -15.40626,5.90086 z M 263.5,718.0363 C 257.12862,711.33916 256.3546,706 261.75512,706 c 2.0653,0 4.8755,-1.35 6.24488,-3 1.36938,-1.65 5.75458,-3.02148 9.74488,-3.04772 3.99032,-0.0262 10.5544,-0.81438 14.58686,-1.75142 6.52232,-1.51562 7.4577,-1.23436 8.4727,2.54772 3.06366,11.41586 -1.93718,14.81454 -16.86356,11.4608 l -8.17696,-1.83724 1.27694,5.81394 c 0.74388,3.38684 0.44398,5.81392 -0.71838,5.81392 -1.09742,0 -3.19394,0.40894 -4.6589,0.90876 -1.46498,0.49982 -5.13858,-1.6928 -8.16358,-4.87246 z M 648.05048,717.5 c -12.50066,-6.39452 -13.82834,-9.54032 -6.93554,-16.43312 l 5.64526,-5.64526 6.3155,7.52246 c 5.65024,6.73008 6.78238,7.27262 10.74774,5.15042 3.42174,-1.83126 5.08708,-1.82862 7.3044,0.012 4.43258,3.6787 3.40956,9.00698 -2.22194,11.57286 -7.24658,3.30178 -10.88404,2.92174 -20.85542,-2.17896 z m -52.17732,-4.65284 c -1.82312,-2.19672 -4.5035,-2.79886 -8.8386,-1.9856 -5.22032,0.97934 -7.26396,0.0922 -12.69458,-5.51078 C 566.88018,697.6542 567.43222,692.8818 576,691 c 3.11622,-0.68444 6.17634,-2.57476 6.80028,-4.20072 1.82002,-4.7429 17.16416,4.81194 17.18432,10.70072 0.008,2.57762 1.24656,4.5 2.89736,4.5 4.40446,0 5.41336,3.16362 2.82242,8.85012 -2.67864,5.87898 -6.04242,6.56228 -9.83122,1.99704 z M 320.89794,707.06424 C 319.30408,703.24956 318,699.34404 318,698.38526 318,696.08416 327.1133,692 332.24796,692 c 2.23284,0 6.70538,-2.64564 9.93894,-5.8792 l 5.8792,-5.8792 3.35228,5.11624 c 3.27874,5.004 3.2118,5.23168 -3.05108,10.3792 -3.76884,3.09762 -6.39594,7.11438 -6.38532,9.76296 0.0216,5.41256 -5.01692,5.99332 -10.3245,1.19002 -3.45604,-3.12768 -3.65748,-3.01752 -3.65748,2 0,7.44736 -3.66124,6.60924 -7.10206,-1.62578 z m 398.42028,5.45826 c -7.59182,-0.5932 -10.97306,-2.07748 -15.66364,-6.87586 -7.11712,-7.2807 -5.09708,-12.16494 3.19564,-7.7268 4.34248,2.32402 10.69482,2.25376 20.99988,-0.23226 1.66548,-0.4018 4.8451,2.8454 7.64986,7.81242 l 4.79974,8.5 -5.64986,-0.3605 c -3.1074,-0.1982 -10.00664,-0.70092 -15.33162,-1.117 z m -331.90162,-9.49352 -3.32424,-6.97102 10.45382,-7.68766 c 16.55748,-12.17624 21.13264,-14.80486 23.36586,-13.42466 4.1365,2.5565 1.90602,6.1731 -7.95024,12.8908 -12.99436,8.85654 -15.09202,11.39188 -12.25428,14.81114 1.60458,1.9334 1.56274,3.28216 -0.1552,5 -3.92858,3.92858 -6.65166,2.68774 -10.13582,-4.6186 z M 669,699.87906 c -2.2,-1.01764 -9.19858,-4.1058 -15.55242,-6.8626 l -11.5524,-5.01238 3.16972,-6.1296 c 3.66796,-7.09304 6.83958,-6.82726 10.59936,0.88822 3.05082,6.26062 9.33574,6.40194 9.33574,0.2099 0,-2.73708 -2.91676,-5.4199 -9.37832,-8.62614 -6.60422,-3.27704 -9.03588,-5.54586 -8.2207,-7.67018 0.85926,-2.23922 2.8896,-2.69172 7.8783,-1.75584 C 659.42476,665.69814 662,665.38016 662,664.09062 662,662.94078 665.7125,662 670.25,662 h 8.25 l -1.3741,6.5 c -3.17976,15.04142 -3.6513,27.45708 -1.15696,30.46258 2.04708,2.46658 2.00498,3.01198 -0.22406,2.90206 C 674.2352,701.7902 671.2,700.89668 669,699.87906 Z m -411.40602,-3.44102 c -4.07186,-0.83104 -5.20446,-4.1669 -5.92062,-17.43804 -0.5096,-9.44304 -0.2649,-10 4.3935,-10 3.59316,0 5.10674,1.22234 5.57224,4.5 0.58072,4.08896 1.7225,4.5 12.5,4.5 9.20968,0 11.8609,-0.67058 11.8609,-3 0,-7.0541 6.60068,-1.5577 8.69772,7.24262 1.14616,4.80986 0.63238,5.34458 -6.22422,6.47798 -4.11042,0.67946 -11.3275,1.24528 -16.03794,1.25738 -6.33406,0.016 -8.93832,0.95086 -10,3.58862 -0.79104,1.9653 -2.96476,3.2545 -4.84158,2.87144 z m 349.8085,0.29776 C 606.63112,695.96444 606,693.73298 606,691.777 c 0,-2.32222 -4.33778,-5.85612 -12.5,-10.18352 -12.58016,-6.66968 -13.49456,-8.20812 -10.34694,-17.4083 0.74596,-2.18038 1.8691,-1.84228 4.9829,1.5 4.6248,4.96414 13.44644,5.73022 15.14078,1.31482 0.63318,-1.65 2.38242,-3 3.88724,-3 1.97336,0 2.40152,1.6725 1.53602,6 -1.15376,5.76882 -0.92536,6 5.9282,6 h 7.12822 l -3.5672,10.5 c -3.30602,9.73124 -7.4033,13.61924 -10.78674,10.2358 z m 129.78586,-4.21412 c -0.6615,-0.6615 -7.27448,-1.7245 -14.69552,-2.3622 -11.69206,-1.00474 -13.40838,-1.65274 -12.86016,-4.8554 0.34798,-2.03276 -0.92152,-5.41328 -2.82106,-7.51226 -5.05526,-5.58598 -2.24212,-6.72562 10.68932,-4.33038 9.92918,1.83916 12.04518,1.66624 15.49908,-1.26658 4.48768,-3.81064 13,-3.33246 13,0.73026 0,1.45582 -1.41206,3.18878 -3.1379,3.85106 -2.97638,1.14214 -2.88208,3.37156 0.5273,12.46574 0.92282,2.46154 -4.27182,5.209 -6.20106,3.27976 z M 315.06222,681.37174 c 0.89224,-4.75606 0.35292,-7.36736 -1.90938,-9.2449 -5.80392,-4.81682 -3.50646,-6.55082 6.80116,-5.13316 8.36418,1.15036 10.803,0.70118 15.26972,-2.81234 2.92364,-2.29974 7.44434,-4.18134 10.046,-4.18134 4.0727,0 4.73028,0.9731 4.73028,7 0,5.56718 -0.78528,7 -3.83642,7 C 340.48644,674 336,676.11122 336,678.78276 336,682.16784 325.3071,688 319.10078,688 c -4.89698,0 -5.19138,-0.48318 -4.03856,-6.62826 z M 680.01116,683.9 c 0.016,-7.23542 3.88766,-19.9 6.08284,-19.9 2.49824,0 2.40434,2.78066 -0.43116,12.76796 -2.89866,10.2098 -5.66664,13.7028 -5.65168,7.13204 z m -302.6293,-0.62608 c -0.6485,-1.68998 1.9781,-4.42576 6.91086,-7.19812 4.37632,-2.45964 8.7785,-6.6329 9.7826,-9.27392 C 395.63136,662.7092 397.23754,662 404.9505,662 c 11.26692,0 12.35806,4.59786 1.90948,8.04622 -3.92702,1.29602 -7.62352,3.6164 -8.21448,5.15638 -0.59094,1.53998 -5.14234,4.59938 -10.1142,6.79868 -10.74236,4.75186 -9.85328,4.65038 -11.14944,1.27264 z M 266,666.8391 c 0,-4.16394 -1.54536,-5.76792 -8,-8.30338 -6.72536,-2.64178 -8,-4.05012 -8,-8.8391 0,-5.29252 0.55566,-5.69662 7.83334,-5.69662 4.3333,0 8.1923,1.07692 8.63674,2.41024 0.44188,1.32562 5.69188,2.90062 11.66666,3.5 10.0487,1.00804 10.91072,1.50216 11.4961,6.58976 0.60862,5.28942 0.2832,5.5 -8.5,5.5 -8.40836,0 -9.13284,0.39664 -9.13284,5 0,3.11112 -1.13334,5 -3,5 -1.8916,0 -3,-1.90676 -3,-5.1609 z m 109.299,-0.83414 c 0.71818,-3.59086 0.1828,-7.21948 -1.335,-9.04832 -1.3937,-1.67932 -2.18076,-3.35286 -1.749,-3.71898 C 374.92864,650.93652 399.9381,644 405.52118,644 c 6.17538,0 6.6911,0.46338 6.11166,5.4913 -0.57026,4.94824 -1.6603,5.65384 -11.02228,7.13494 -9.51568,1.50542 -10.57996,2.221 -12.6551,8.5087 -1.8875,5.71922 -3.2329,6.86506 -8.06056,6.86506 -5.37104,0 -5.7072,-0.4385 -4.5959,-5.99504 z M 714,667.93136 c -2.62276,-1.75496 -2.5599,-2.34468 0.5,-4.68986 4.78864,-3.67012 4.4872,-9.2415 -0.5,-9.2415 -2.2,0 -4,-1.26574 -4,-2.81276 0,-1.88386 1.4045,-2.44548 4.25294,-1.7006 2.74936,0.71898 4.90572,-0.0542 6.09938,-2.18724 1.06502,-1.90308 4.34358,-3.2994 7.74706,-3.2994 4.76612,0 5.91342,0.86522 5.96716,4.5 l 0.0666,4.5 3.75404,-4.5 c 6.35178,-7.61392 10.11288,-5.86074 10.11288,4.71398 0,7.96916 -0.47284,9.02698 -3.5,7.82984 -1.925,-0.76126 -6.425,-1.87532 -10,-2.47566 -6.18168,-1.03808 -6.5,-0.78488 -6.5,5.17016 0,5.50502 -0.66462,6.25798 -5.5,6.23106 -3.025,-0.016 -6.85,-0.93396 -8.5,-2.03802 z m -403.90758,-9.8223 c -2.48852,-1.58244 -2.51336,-2.58548 -0.1724,-6.95956 2.39492,-4.47492 2.30502,-5.58592 -0.7227,-8.93152 -1.90182,-2.10148 -2.72422,-4.24542 -1.82756,-4.76432 0.89666,-0.51888 8.93926,-1.55996 17.87246,-2.3135 13.58378,-1.14584 16.7754,-0.83686 19.5,1.88774 4.64994,4.64994 4.0495,6.61532 -2.24218,7.33926 -4.31994,0.49706 -5.63578,1.8129 -6.13284,6.13284 -0.43942,3.81892 -1.77878,5.5 -4.38198,5.5 -2.062,0 -4.30534,-0.9 -4.98518,-2 -1.86814,-3.02272 -5,-2.39634 -5,1 0,1.65 -0.8264,3 -1.83642,3 -1.01004,0 -3.03504,0.44054 -4.5,0.979 -1.46498,0.53844 -3.97198,0.147 -5.57116,-0.86994 z m 279.21756,-1.76654 C 587.48948,654.3309 586,652.0809 586,651.34252 586,650.60414 592.3,650 600,650 c 13.6,0 14,0.1428 14,5 0,4.7097 -0.62066,5 -10.69002,5 -7.81634,0 -11.57982,-0.9832 -14,-3.65748 z m 85.84678,-2.1957 c -8.6946,-0.72028 -14.16038,-2.10924 -14.6959,-3.73448 -0.65944,-2.00136 2.69864,-2.4545 14.82156,-2 13.05988,0.48964 15.78568,1.17142 16.34254,4.08766 0.36758,1.925 -0.0726,3.34108 -0.97832,3.14682 -0.90564,-0.1942 -7.8761,-0.86924 -15.48988,-1.5 z M 377.5,640.8423 c -6.14686,-3.31936 -6.9817,-5.84576 -2.5,-7.56556 3.96236,-1.5205 3.8443,-8.60548 -0.181,-10.85812 -1.74952,-0.97908 -2.87452,-3.6083 -2.5,-5.84272 0.67332,-4.01712 0.89356,-4.00384 19.68094,1.188 18.71472,5.17174 19.0094,5.34806 19.62672,11.74334 L 412.25338,636 H 400.3706 c -9.51768,0 -12.42892,0.77746 -14.62672,3.90616 -2.5252,3.5948 -3.18238,3.66942 -8.24394,0.93614 z M 270,640 c 0,-1.1 -2.475,-2.01228 -5.5,-2.0273 -10.78358,-0.0536 -14.5,-2.08452 -14.5,-7.92404 0,-5.47866 0.02,-5.48606 17.49874,-6.57654 9.62432,-0.60044 18.15588,-0.68558 18.95904,-0.1892 0.80318,0.4964 0.37628,2.63834 -0.94866,4.75988 -1.88376,3.0164 -1.87484,4.39148 0.041,6.30728 C 290.53904,639.33904 288.26064,642 279,642 c -4.95,0 -9,-0.9 -9,-2 z m 319.06826,0.1104 c -0.6423,-1.03926 4.25458,-2.95636 10.88196,-4.26022 13.34796,-2.62604 15.08286,-5.05282 6.04978,-8.46242 -3.3,-1.24562 -6,-2.85148 -6,-3.56862 0,-1.63492 20.08576,-4.4001 21.52284,-2.96302 0.58074,0.58074 1.49018,5.57568 2.02098,11.09986 l 0.9651,10.04398 H 607.3725 c -9.42504,0 -17.66194,-0.8503 -18.30424,-1.88956 z m 72.32526,0.41514 c -11.82972,-0.92782 -13.7959,-4.61186 -6.08208,-11.39612 5.84748,-5.14284 13.50072,-6.66946 15.68856,-3.12946 1.9097,3.08998 7,2.36278 7,-1 0,-1.65 1.125,-3.01228 2.5,-3.0273 1.375,-0.016 4.525,-0.57 7,-1.23328 5.94888,-1.59424 6.1752,4.2233 0.28688,7.37464 -3.31444,1.77382 -3.96502,3.49528 -3.05,8.07036 1.28798,6.43986 1.91912,6.32248 -23.34336,4.34116 z m 48.08206,0.28332 C 708.664,639.99734 708,636.78334 708,633.66666 708,628.46828 708.60984,628 715.3796,628 c 4.0588,0 12.58388,-1.07492 18.94462,-2.38872 6.36076,-1.31378 12.1192,-1.83454 12.79652,-1.15722 0.67732,0.67732 -0.73882,3.8965 -3.147,7.1537 -3.4162,4.62068 -6.42184,6.1753 -13.6761,7.0738 -5.1137,0.63338 -11.55864,1.70314 -14.32206,2.37726 -2.76344,0.67412 -5.68844,0.56166 -6.5,-0.24992 z M 308,623.21398 c 0,-4.6255 0.79006,-5.21398 7,-5.21398 5.66666,0 7,0.7619 7,4 0,2.60982 -1.33334,4 -3.83642,4 -2.11004,0 -5.26004,0.54628 -7,1.21398 -2.38622,0.91568 -3.16358,-0.0672 -3.16358,-4 z m 20,3.16828 c 0,-0.88976 1.2526,-3.33078 2.78358,-5.4245 2.36504,-3.23438 3.2672,-3.4054 6,-1.13738 C 341.99664,624.14684 340.68538,628 334,628 c -3.3,0 -6,-0.72798 -6,-1.61774 z m 381.5,-5.52264 c -0.825,-0.83946 -1.5,-3.62628 -1.5,-6.19296 0,-5.43294 4.8872,-6.29996 7.65304,-1.35768 2.09508,3.74372 8.34696,2.372 8.34696,-1.8314 0,-2.86034 17.08368,-8.27996 20.14196,-6.38984 1.02192,0.63158 1.85804,3.69674 1.85804,6.81148 0,4.99088 -0.89034,5.80998 -7.5,6.90002 -16.5134,2.7233 -27.57606,3.50928 -29,2.06038 z m -50.03612,-5.11186 c -1.94488,-1.09282 -5.52268,-1.70814 -7.9507,-1.36736 -2.85602,0.40086 -4.64926,-0.55884 -5.0793,-2.7183 -0.53364,-2.6796 2.41492,-3.99532 14.95068,-6.6714 8.5885,-1.83342 17.09214,-3.7358 18.89698,-4.22754 2.27824,-0.62068 3.96256,1.05958 5.50902,5.49572 2.64614,7.59072 1.93006,8.8027 -3.48778,5.90316 -5.9256,-3.17128 -10.51858,-2.6551 -15.17388,1.70532 -3.10342,2.90686 -5.00714,3.37388 -7.66502,1.8804 z m -264.42852,-2.44638 c -8.68312,-2.01696 -10.562,-3.39754 -14.6095,-10.73488 -3.71404,-6.73282 -4.20678,-9.23884 -2.45872,-12.5051 2.05328,-3.83658 2.54616,-3.89868 8.1095,-1.02176 4.3476,2.24822 5.9315,4.51256 5.95398,8.51172 0.0418,7.45466 1.75462,9.47302 10.44152,12.30472 8.1817,2.66704 11.8883,6.25666 6.1459,5.95192 -1.98992,-0.1056 -8.10212,-1.23358 -13.58268,-2.50662 z m -56.41968,-3.16304 c -1.35084,-5.16564 -6.07708,-6.7456 -8.29944,-2.77448 -2.01806,3.60608 -6.31624,1.91716 -6.31624,-2.4819 0,-3.79494 -3.80788,-3.70976 -5.27674,0.118 -1.35142,3.52172 -5.02558,3.89768 -8.09494,0.82832 -1.56222,-1.56222 -1.3087,-4.36854 0.90338,-10 2.87802,-7.32668 3.6003,-7.82916 11.27168,-7.8415 4.71956,-0.008 10.67852,-1.64928 14.0473,-3.87002 5.30588,-3.4977 6.37672,-3.5848 11.5,-0.93546 3.88986,2.01152 5.64932,4.46262 5.64932,7.87002 0,4.16516 -0.94994,4.94864 -6,4.94864 -5.2794,0 -6,0.69258 -6,5.76674 0,4.08472 1.1667,6.07184 4,6.81276 5.77672,1.51064 4.92036,5.4205 -1.18724,5.4205 -3.44328,0 -5.52674,-1.2983 -6.19708,-3.86166 z m 64.44116,-8.04636 c -0.64856,-1.04942 -0.6567,-3.98988 -0.018,-6.53434 1.01258,-4.0345 -0.28274,-5.33448 -10.12568,-10.1619 -9.33516,-4.5784 -10.87482,-6.03198 -8.9042,-8.40644 2.0505,-2.4707 3.49168,-2.30506 10.33928,1.18832 6.39612,3.26306 8.53654,3.57792 10.9133,1.60538 4.3978,-3.64984 12.60946,4.7378 9.53518,9.73956 -1.23404,2.00774 -1.5045,5.80194 -0.63996,8.97744 1.379,5.0652 1.04606,5.5 -4.21162,5.5 -3.13994,0 -6.23964,-0.85862 -6.88822,-1.90802 z M 580.0183,600.0342 c -1.86574,-3.48616 -0.60964,-5.07946 10.38542,-13.17356 19.4635,-14.32822 18.51764,-14.22296 23.51062,-2.6165 2.40016,5.57934 4.07632,10.39506 3.7248,10.7016 -2.39004,2.08418 -9.5294,2.84986 -10.58886,1.13562 -2.07592,-3.35892 -6.75782,-2.4243 -14.62066,2.91864 -8.87422,6.0302 -9.70068,6.09906 -12.41132,1.0342 z m 74.48174,-4.19442 c 1.92502,-1.12122 4.87314,-4.69386 6.55136,-7.93918 C 663.94208,582.31064 672,579.4399 672,584 c 0,1.1 2.25,2 5,2 10.11932,0 5.17874,5.4688 -7.91104,8.75686 -14.7843,3.7137 -19.73686,4.08132 -14.58892,1.08292 z m -400.1153,-1.26636 c -5.61218,-1.07232 -4.74094,-5.32776 1.27192,-6.21252 3.09112,-0.45484 4.34334,-2.04054 4.34334,-5.5 0,-2.6735 1.01246,-4.8609 2.2499,-4.8609 3.9071,0 25.7501,10.46416 25.7501,12.3359 0,2.97212 -6.1104,4.3537 -8.53444,1.92966 -3.44572,-3.44572 -10.13088,-2.8841 -8.7423,0.73444 0.88748,2.31274 -0.32346,2.9376 -5.28602,2.72764 -3.54048,-0.1498 -8.5141,-0.6692 -11.0525,-1.15422 z m 386.84104,-4.2081 c -0.47446,-0.76768 -1.4817,-4.69568 -2.23834,-8.7289 l -1.3757,-7.3331 9.21104,-1.38128 c 5.1355,-0.77012 12.67178,-3.88824 17.03258,-7.04718 l 7.82152,-5.66588 3.32136,5.06904 c 1.82676,2.78796 3.00602,5.3844 2.62058,5.76982 -0.38544,0.38544 -4.89404,2.49824 -10.01912,4.6951 -5.1251,2.19686 -10.26266,5.75876 -11.4168,7.91532 -2.18676,4.08598 -13.45436,9.13858 -14.95712,6.70706 z m -66.37444,-4.60586 c -0.77804,-1.2589 1.27898,-4.32518 4.69508,-6.99868 4.1775,-3.26938 5.76434,-5.9644 5.07162,-8.61338 -0.68588,-2.62282 1.13206,-5.812 5.6869,-9.97648 L 597,554.04968 l 5.5,6.3996 c 6.59336,7.67182 6.6195,7.8894 1.34328,11.18444 -3.1835,1.98814 -4.81466,2.04988 -6.96686,0.26372 -2.245,-1.86318 -3.175,-1.38352 -4.62442,2.38518 C 590.69602,578.32836 580.0827,588 577.19902,588 c -0.52962,0 -1.58608,-1.00824 -2.34768,-2.24054 z M 418.85402,579.8328 c -2.11972,-2.34548 -6.36074,-6.05124 -9.42452,-8.23504 -4.50106,-3.20826 -6.1401,-3.4978 -8.5375,-1.50812 -2.39412,1.98694 -3.73214,1.76998 -6.92952,-1.1236 -4.9071,-4.44086 -5.00222,-7.40514 -0.37206,-11.59538 3.35906,-3.0399 4.55124,-2.5265 18.5,7.96696 13.8316,10.40528 18.00032,16.2988 12.7636,18.04438 -1.1803,0.39342 -3.8803,-1.2037 -6,-3.5492 z M 272.5,575.59722 C 262.54802,571.43574 258,568.4654 258,566.1272 258,562.29126 268.23828,550 271.4335,550 c 3.23154,0 7.43046,6.0055 7.50192,10.72956 0.0506,3.34098 1.80578,4.64834 8.06458,6.00668 12.46092,2.7044 13,2.95546 13,6.0545 0,2.14242 -11.457,10.22888 -12.80728,9.0395 -0.106,-0.0934 -6.71772,-2.89822 -14.69272,-6.23302 z m 46.85098,3.59622 c -0.78032,-2.03346 0.71594,-3.3296 4.90616,-4.24992 9.99682,-2.19566 10.41166,2.89902 0.4797,5.8913 -2.8136,0.84766 -4.64488,0.28958 -5.38586,-1.64138 z m 389.34508,0.31478 c -0.59654,-0.96522 -3.2472,-2.57716 -5.89034,-3.58208 C 700.16258,574.92122 698,573.27688 698,572.27208 c 0,-2.13094 13.24528,-4.97458 15.80428,-3.39304 2.66906,1.64958 13.73732,-2.79972 14.9726,-6.0188 1.4546,-3.7906 9.03738,-3.6714 10.50964,0.1652 0.63854,1.66402 0.0538,4.35952 -1.29934,5.99 -1.96622,2.36914 -1.84956,3.8967 0.58094,7.6061 l 3.0413,4.6416 h -15.91438 c -8.7529,0 -16.40244,-0.78972 -16.99898,-1.75494 z M 564.5,572.07302 c -2.475,-3.13812 -4.4649,-6.46332 -4.422,-7.38934 0.043,-0.92602 4.1699,-4.69524 9.1711,-8.37604 5.0012,-3.6808 9.99366,-9.27572 11.09436,-12.43318 1.92938,-5.53464 2.17414,-5.62752 6.81538,-2.58646 l 4.81414,3.15434 -8.9865,9.99514 c -9.16918,10.19834 -10.77446,14.22142 -6.6835,16.74978 1.59574,0.9862 1.17124,2.25086 -1.38226,4.11802 -4.839,3.53838 -5.1591,3.43908 -10.42072,-3.23226 z m -139.53342,-5.71608 c -3.31838,-2.94632 -10.05406,-8.77362 -14.96818,-12.94954 -6.96244,-5.91656 -8.30918,-7.97926 -6.1008,-9.3441 1.95104,-1.20582 5.04282,0.0692 9.92386,4.0926 7.21692,5.94878 15.1962,7.8994 13.67948,3.3441 -0.45782,-1.375 -2.49178,-2.8216 -4.51992,-3.21468 -4.08394,-0.7915 -10.81064,-7.96546 -10.91448,-11.64016 C 411.99314,534.04604 421.39298,526 424.50288,526 c 1.07988,0 1.5423,2.20296 1.0276,4.89546 -0.8114,4.24456 -0.1204,4.97584 5.19638,5.5 4.87744,0.48084 7.33448,2.55416 12.0079,10.13266 6.21186,10.07324 5.79944,14.0167 -1.02048,9.7576 -5.09178,-3.17988 -6.69494,-1.85514 -3.95366,3.267 1.66468,3.11048 1.19362,4.72804 -2.33796,8.02824 L 431,571.71386 Z m 207.82178,-1.18726 c -1.53074,-3.98904 -2.94416,-2.71924 14.32798,-12.87196 16.01682,-9.41484 17.92746,-9.82144 20.8133,-4.4292 2.62628,4.90728 2.60578,6.13148 -0.1026,6.13148 -1.19518,0 -5.9725,2.72856 -10.61628,6.06348 -10.4227,7.485 -22.5375,10.01796 -24.42232,5.1062 z M 348.5939,552.0079 l -12.4061,-11.73132 5.7888,-1.27144 c 6.96224,-1.52916 10.82262,0.37904 19.94138,9.85716 6.86006,7.13042 6.88518,7.2228 3,11.03378 -3.87324,3.7993 -4.05962,3.70924 -16.32408,-7.88818 z M 289.5,560.62134 c -2.0885,-0.54578 -3.5,-2.82158 -3.5,-5.64316 0,-3.62006 -2.36236,-6.0143 -10.07732,-10.2133 -13.11366,-7.13734 -12.44548,-10.90234 2.07732,-11.7051 12.62026,-0.6976 18,1.39768 18,7.01058 0,2.80432 1.36172,3.92964 4.75512,3.92964 2.6153,0 5.78082,1.23592 7.0345,2.7465 3.28676,3.9603 0.547,9.2535 -4.78962,9.2535 -2.51462,0 -5.09008,1.35 -5.72326,3 -1.18078,3.07706 -1.7512,3.19598 -7.77674,1.62134 z m 413.26472,-1.51328 c -0.77706,-2.02498 -3.1456,-2.99072 -6.49396,-2.64782 -4.35836,0.44632 -5.37532,-0.36052 -5.87474,-4.66102 -0.54958,-4.73256 0.96634,-5.95426 16.83854,-13.57028 13.46342,-6.46018 17.8368,-7.78314 19.17094,-5.79922 5.07622,7.54856 5.8071,9.90426 3.81698,12.3022 -1.13028,1.36192 -1.53778,4.4544 -0.90552,6.87216 1.6336,6.24684 -5.27688,5.8543 -13.12006,-0.74532 l -6.11002,-5.14122 0.45656,7.56408 c 0.35168,5.82662 -0.34878,7.73062 -3.04948,8.28906 -1.92834,0.39872 -4.0565,-0.70946 -4.72924,-2.46262 z M 550.00748,555.5 c 0.004,-1.375 1.95378,-5.65 4.3326,-9.5 2.3908,-3.86938 4.15878,-9.75244 3.95316,-13.1544 -0.23376,-3.86726 1.03532,-7.42798 3.41492,-9.5815 3.58692,-3.2461 4.16998,-3.2011 11.03938,0.85194 3.98886,2.35348 7.25246,4.92178 7.25246,5.70732 0,0.78556 -2.65204,3.96908 -5.8934,7.07452 -3.24138,3.10544 -6.16638,7.8638 -6.5,10.57414 -0.45942,3.73216 -2.54778,5.60002 -8.6066,7.69782 -9.74274,3.37334 -9.00154,3.34612 -8.99252,0.33016 z M 360.02994,539.0305 c -4.73366,-4.82324 -11.55494,-9.50324 -15.1584,-10.40002 L 338.31978,527 l 4.81796,-6 4.81794,-6 14.29078,14.28586 c 13.17392,13.1694 13.98206,14.4511 10.34046,16.40002 -3.35196,1.79392 -5.25402,0.7858 -12.55698,-6.65538 z m 106.033,1.08712 c -1.01432,-1.8953 -0.88358,-4.72224 0.3177,-6.8688 1.6562,-2.95948 0.6806,-5.04156 -5.1696,-11.03268 C 457.24498,518.1545 454,513.79742 454,512.5337 c 0,-4.10558 3.77904,-4.7707 8.71824,-1.5344 4.41454,2.89252 5.10938,2.88736 8.05648,-0.0598 1.7739,-1.7739 3.22528,-4.40606 3.22528,-5.84926 0,-3.5582 10.02472,-5.35306 11.30234,-2.0236 0.5429,1.41474 -0.42804,5.3088 -2.15764,8.65346 -1.82348,3.52624 -3.1447,11.06926 -3.1447,17.95352 0,11.70852 -0.0842,11.88468 -6.10664,12.76858 -4.24452,0.62298 -6.63226,-0.0858 -7.83042,-2.32464 z M 516.5,540.67544 c -1.375,-0.55482 -2.5,-2.63748 -2.5,-4.62812 0,-1.99066 -1.35,-4.1374 -3,-4.77058 -2.11662,-0.81222 -3,-4.11426 -3,-11.21398 C 508,511.18334 508.4924,510 512.18724,510 c 2.50524,0 4.60742,-1.6068 5.23326,-4 1.22014,-4.66584 1.45382,-4.72186 7.21098,-1.7291 6.03518,3.1373 5.93496,2.93364 3.59492,7.30608 -1.64542,3.0745 -1.29648,4.64464 1.61848,7.28264 3.5112,3.1776 3.54176,3.90844 0.55388,13.25172 -3.156,9.86908 -6.12732,11.69994 -13.89876,8.5641 z m 166.69966,-3.87634 c -0.78096,-2.03514 0.5979,-4.63738 3.78602,-7.14516 3.79228,-2.983 5.01432,-5.81016 5.01432,-11.60042 0,-7.1844 0.45742,-7.76434 7.42326,-9.41172 5.48296,-1.2967 7.7229,-3.02488 8.56966,-6.61178 l 1.1464,-4.85622 4.3377,6.09176 4.33772,6.09176 -5.40736,4.39794 -5.40738,4.39794 7.5,-1.16724 c 6.3501,-0.98826 7.5,-0.60838 7.5,2.4777 0,2.5799 -4.97584,6.11268 -17.0294,12.09062 -19.13984,9.4924 -20.05628,9.71318 -21.77094,5.24482 z M 488,532 c 0,-3.3 0.78376,-6 1.74166,-6 0.95792,0 2.35262,-5.4 3.09932,-12 1.14278,-10.10076 1.975,-12 5.25834,-12 3.57864,0 3.90068,1.4861 3.90068,18 v 18 h -7 c -6.44444,0 -7,-0.4762 -7,-6 z m -184.21192,0.5 c -0.1166,-0.825 -0.0662,-3.80764 0.1118,-6.62806 0.49206,-7.79664 -14.029,-13.63194 -16.68688,-6.70562 -2.48648,6.4797 -6.1202,1.63578 -5.4751,-7.29862 C 282.54294,500.71678 285.0467,496 290.16068,496 294.92446,496 324,515.15314 324,518.2912 324,521.23406 309.86714,534 306.60916,534 c -1.43504,0 -2.70452,-0.675 -2.82108,-1.5 z M 378,532.24488 c 0,-0.9653 1.3401,-2.86728 2.97798,-4.2266 4.64022,-3.85104 1.2792,-6.64682 -3.90616,-3.24926 -4.25878,2.79046 -4.93518,2.59246 -10.3103,-3.01794 -3.70578,-3.868 -5.5342,-7.67028 -5.13892,-10.68668 0.33748,-2.5753 -0.33954,-5.27142 -1.5045,-5.99142 -3.41864,-2.11282 -2.46698,-4.27196 2.976,-6.75194 2.80176,-1.27658 5.34194,-2.32104 5.64484,-2.32104 0.30292,0 5.60286,5.7189 11.77768,12.70866 l 11.22692,12.70866 -4.37176,6.25678 C 383.25688,533.56322 378,536.12712 378,532.24488 Z m 231.26542,-1.9516 c -3.37092,-3.72482 -3.27234,-4.1462 2.51076,-10.7328 l 6.01944,-6.85576 -4.92226,-4.92226 -4.92224,-4.92226 6.00058,-9.46194 c 5.48576,-8.65014 6.35498,-9.24472 10.13106,-6.9301 3.3019,2.02396 3.8903,3.83572 2.93322,9.03184 -1.2764,6.92982 0.88934,8.4338 5.00448,3.47534 1.90934,-2.30062 3.16488,-2.48138 5.2449,-0.75512 4.43946,3.68444 3.23054,6.038 -10.97408,21.36494 -13.19726,14.23998 -13.60022,14.4934 -17.02586,10.70812 z m 15.86754,-0.0782 c -1.59706,-2.58412 1.11704,-8.01146 6.39502,-12.78798 3.23424,-2.92694 4.2805,-3.06778 6.14052,-0.8266 1.73984,2.0964 0.73464,4.1625 -4.48778,9.22428 -4.10954,3.98312 -7.24296,5.6925 -8.04776,4.3903 z m -31.04938,-15.12892 -6.7011,-6.91376 10.52954,-16.03844 c 9.18452,-13.98974 11.01228,-15.78008 14.30876,-14.01586 5.0726,2.71478 4.87758,3.63288 -3.17872,14.96426 l -6.95796,9.7865 4.9791,5.19704 4.97908,5.19706 -4.65004,4.36848 c -2.55752,2.40268 -5.09048,4.3685 -5.6288,4.3685 -0.53832,0 -3.99426,-3.1112 -7.67986,-6.91378 z m 81.30216,3.34002 c -2.06328,-2.2799 -2.78524,-5.29058 -1.9941,-8.31586 1.07322,-4.10402 0.65962,-4.5903 -3.07378,-3.614 -7.73878,2.02374 -6.95862,-2.69186 1.94882,-11.77948 6.21728,-6.34306 9.8702,-8.6144 12.67952,-7.884 2.35482,0.61224 5.6897,-0.61194 8.26966,-3.03568 l 4.32346,-4.06168 4.29714,6.0348 4.29716,6.0348 -13.09128,9.59742 c -11.61606,8.51594 -12.98146,10.21722 -12.1168,15.09744 1.12336,6.34036 -0.90638,7.04612 -5.5398,1.92624 z M 386.82606,504.5 c -12.95176,-14.80016 -13.65592,-16.09024 -10.71596,-19.63266 2.1599,-2.60252 3.0415,-2.57282 7.34572,0.2474 5.99656,3.9291 7.65798,2.70344 4.453,-3.28512 -2.03652,-3.80528 -1.84518,-4.92982 1.22022,-7.17128 1.99952,-1.4621 4.40746,-2.65834 5.351,-2.65834 3.07584,0 9.28788,16.6604 8.21402,22.02966 -0.66708,3.3354 0.0964,6.13666 2.13354,7.82726 1.74482,1.44808 3.1724,3.73316 3.1724,5.078 0,2.79638 -6.37068,9.06508 -9.21256,9.06508 -1.04368,0 -6.4263,-5.175 -11.96138,-11.5 z m -77.45784,-6.80448 C 294.31766,486.05568 293.86442,485.46478 297.1782,481.8031 301.99352,476.48222 306,477.0258 306,483 c 0,4.1416 0.9604,5 5.5941,5 3.88066,0 7.96018,2.42306 13.31886,7.91086 6.52902,6.68632 7.32792,8.38906 5.16102,11 -1.41008,1.69904 -3.12856,3.04074 -3.81886,2.98158 -0.69032,-0.0592 -8.28942,-5.54778 -16.8869,-12.19692 z M 413.7152,500.5 c -0.1566,-0.825 -0.53398,-4.56768 -0.8385,-8.31706 -0.30452,-3.74938 -3.32742,-10.75222 -6.71758,-15.56186 -5.12158,-7.26604 -5.63898,-8.94622 -3.05974,-9.93596 1.77524,-0.68122 5.12034,0.70294 7.81368,3.2332 3.94584,3.70694 5.40952,4.04978 9.02608,2.11424 5.18274,-2.77372 11.7987,1.0296 8.14562,4.68268 -3.4051,3.4051 -2.3777,8.92224 1.91524,10.28476 5.48978,1.74238 4.9913,3.1373 -3.39494,9.5 -7.08776,5.37754 -12.32002,7.00122 -12.88986,4 z m 150.99746,-8.67624 -4.17624,-4.17622 5.97386,-14.32378 c 3.28562,-7.87806 6.31112,-14.69496 6.72334,-15.14864 0.4122,-0.45368 3.03006,0.21422 5.81744,1.48424 4.89498,2.2303 4.9632,2.5117 1.99878,8.24426 -2.96596,5.73552 -2.8581,6.17558 3.20664,13.08294 3.45172,3.93128 5.93108,7.37222 5.50968,7.64654 -0.42138,0.27432 -2.34116,1.7043 -4.26616,3.17772 -2.91896,2.23422 -4.03396,2.23582 -6.71642,0.01 -2.7195,-2.25698 -3.6033,-2.14032 -5.7205,0.75512 -3.14994,4.3078 -3.30482,4.29386 -8.35042,-0.75174 z M 654.5,493.72538 c -1.375,-1.38896 -2.5,-3.13506 -2.5,-3.88024 0,-0.74518 6.78254,-7.42522 15.07232,-14.84452 14.63936,-13.10216 15.18516,-13.38756 19,-9.93516 2.16022,1.95496 3.92768,4.24208 3.92768,5.08248 0,0.8404 -5.15418,5.6168 -11.45374,10.61424 -8.33338,6.61088 -12.6481,8.7865 -15.83782,7.98594 -3.38408,-0.84936 -4.53512,-0.1192 -5.04626,3.20114 -0.53202,3.45602 -1.15356,3.80512 -3.16218,1.77612 z M 340,485.6289 c 0,-3.6481 1.73376,-8.2166 4.05654,-10.68908 5.53788,-5.8948 3.34544,-11.56556 -3.85966,-9.98306 -4.21682,0.92616 -6.61616,-0.199 -11.7749,-5.5214 l -6.47896,-6.68458 4.61844,-4.3388 4.61844,-4.3388 13.66122,13.76672 c 12.48098,12.57734 13.42354,14.10056 10.91006,17.63098 C 350.93092,482.24132 342.29816,492 341.12912,492 340.5081,492 340,489.133 340,485.6289 Z m 206.44502,-0.7423 c -5.72854,-4.01242 -5.64566,-4.96274 1.85106,-21.22708 4.46906,-9.69578 7.37088,-13.65952 10,-13.65952 4.48826,0 4.65444,2.36054 0.70394,9.99996 -2.67626,5.1753 -2.6699,5.98602 0.059,7.51316 2.6904,1.50564 2.55864,2.84282 -1.09362,11.09938 -4.60842,10.41808 -5.1685,10.7231 -11.52034,6.2741 z m -228.39354,-2.77798 c -4.87106,-3.74294 -4.8895,-3.86766 -1.17892,-7.9678 C 321.6703,468.83936 319.50162,466.52044 313,470 c -7.27742,3.89476 -8.64202,0.73292 -2.38438,-5.52472 l 5.40352,-5.4035 9.49042,9.5397 9.49044,9.5397 -5,3.87994 c -6.11568,4.7457 -5.87534,4.74414 -11.94852,0.0774 z m 117.08188,-4.35854 c -3.08428,-7.70838 -3.07772,-8.4966 0.1002,-12.00812 2.72722,-3.01354 2.96848,-4.7078 1.2176,-8.55054 C 433.87376,451.53464 434.9527,450 441.5071,450 c 3.5147,0 5.44554,1.60318 7.04988,5.85356 1.2152,3.21948 4.48574,6.89072 7.26784,8.15832 l 5.05836,2.30476 -4.94156,3.7337 c -3.95562,2.98874 -4.44278,4.23408 -2.44158,6.24168 3.76962,3.78166 3.09908,5.10784 -3.79844,7.51232 -9.67656,3.37328 -11.01934,2.81524 -14.5682,-6.05426 z m 30.86326,-10.76796 C 464.04908,456.6605 462.80136,454 459.90832,454 c -3.93494,0 -7.38392,-7.43354 -4.607,-9.9294 0.93428,-0.83972 6.03202,-2.57678 11.32834,-3.86012 9.03114,-2.18834 9.86608,-2.04986 13.43346,2.22808 5.61094,6.72854 5.04534,12.8496 -1.33534,14.45106 l -5.27222,1.32324 5.27222,5.503 c 5.61498,5.86078 6.88778,11.91198 2.77222,13.17986 -12.88148,3.96846 -12.88436,3.9666 -15.50338,-9.9136 z m 124.15004,10.19458 c -2.7629,-3.32908 -2.20098,-11.5422 0.85334,-12.47268 1.1,-0.33512 4.06294,0.97688 6.5843,2.91552 l 4.58428,3.52482 -4.7841,4.49444 c -4.15502,3.90344 -5.10678,4.10566 -7.23782,1.5379 z m 52.64882,0.012 C 641.64748,474.19658 660.58684,446 663.7443,446 c 2.83104,0 10.24956,6.32374 10.10456,8.6134 -0.1616,2.55226 -23.18056,23.49716 -27.35214,24.8877 -1.37204,0.45734 -3.0376,-0.58344 -3.70124,-2.31286 z m -116.65016,-3.0561 c -2.43166,-1.5389 -2.46904,-3.53488 -0.2522,-13.46938 4.54612,-20.37292 4.94828,-20.95682 12.30388,-17.86402 3.4901,1.46748 7.04102,3.9131 7.89092,5.4347 1.8515,3.31484 -2.98102,18.3976 -6.24298,19.48492 -1.26452,0.4215 -3.74696,2.4573 -5.51652,4.524 -3.64942,4.26222 -4.2245,4.39502 -8.1831,1.88978 z M 491.625,460 c -0.20626,-7.7 -0.43126,-16.475 -0.5,-19.5 -0.105,-4.62006 0.80352,-5.60594 5.67866,-6.16214 l 5.80368,-0.66216 -1.1919,14.21702 -1.19192,14.21704 6.86348,4.44512 c 3.77492,2.44482 6.87462,5.12012 6.88824,5.94512 0.014,0.825 -4.92524,1.5 -10.97524,1.5 h -11 z m 137.72568,8.68402 c -0.72378,-0.7238 -0.1988,-2.67016 1.16668,-4.32524 1.97812,-2.39774 1.9746,-3.18026 -0.018,-3.85068 C 623.7909,458.25022 633.12954,442 641.13554,442 c 5.64728,0 6.0122,-1.47042 1.84238,-7.4237 -5.61624,-8.01828 1.34888,-7.87718 11.69444,0.23692 3.53964,2.77616 3.51016,3.101 -0.81184,8.94682 -2.46666,3.33634 -7.12048,6.98486 -10.34184,8.10784 -5.18648,1.80802 -5.70848,2.7179 -4.55978,7.94786 1.02514,4.66744 0.45892,6.35476 -2.6997,8.0452 -4.68468,2.50716 -5.16754,2.56468 -6.90916,0.82308 z M 509.33334,458.66666 C 508.6,457.93334 508,452.98334 508,447.66666 V 438 h 7 c 6.40994,0 7,0.4948 7,5.8698 0,8.90464 -3.41212,16.1302 -7.61716,16.1302 -2.0439,0 -4.31618,-0.6 -5.0495,-1.33334 z m -132.36788,-6.00004 c -3.34822,-5.11004 -3.3369,-5.4512 0.26998,-8.14656 8.61098,-6.43478 9.92078,-6.4885 13.4283,-0.55072 3.3376,5.6501 3.3053,5.78032 -2.44952,9.87812 -7.297,5.19592 -7.0538,5.22146 -11.24876,-1.18084 z m 232.54844,1.18096 c -3.1927,-1.85986 -3.2246,-2.42984 -0.37906,-6.77268 2.54818,-3.889 2.65724,-5.4621 0.60642,-8.746 C 606.704,433.46548 610.20042,428 616.34892,428 c 2.48982,0 4.60132,-2.12898 5.95076,-6 2.43458,-6.9838 2.1581,-6.90024 9.78392,-2.95676 l 5.88498,3.04324 -11.2845,16.95676 c -6.20648,9.32622 -11.82442,16.9294 -12.4843,16.89594 -0.65988,-0.0334 -2.76852,-0.97466 -4.68588,-2.0916 z M 366.18544,443.22346 c -1.23994,-1.49406 -1.69696,-4.16928 -1.01558,-5.94494 0.6814,-1.77566 0.24928,-6.06724 -0.96022,-9.53686 -1.85344,-5.31676 -1.64978,-6.72542 1.29562,-8.96142 5.36522,-4.073 8.39484,-3.30218 10.68976,2.71976 4.43824,11.646 4.07772,15.27582 -1.98344,19.96996 -4.77352,3.69692 -6.16156,4.00016 -8.02614,1.7535 z m 24.97532,-13.84156 c -12.55696,-23.06144 -12.53278,-22.95926 -6.01918,-25.43574 3.05152,-1.16018 6.60442,-1.70412 7.89534,-1.20874 1.2909,0.49536 5.54224,7.6287 9.44738,15.85184 10.60206,22.3249 10.64548,22.6256 3.6215,25.07416 l -6.02508,2.10036 z m 199.73186,14.44436 c -0.73888,-1.19554 0.23536,-5.67486 2.165,-9.95404 2.90758,-6.44784 3.0629,-8.31716 0.90696,-10.91492 -2.1925,-2.64178 -1.92128,-3.61102 1.72516,-6.1651 3.2102,-2.2485 4.01056,-4.28998 3.10164,-7.91136 C 597.78942,404.88872 598.31704,404 601.68908,404 606.91396,404 616,408.07804 616,410.42308 c 0,0.97956 -3.2775,3.15046 -7.28334,4.8242 -6.53894,2.73214 -6.97046,3.35606 -4.222,6.10452 2.74844,2.74844 2.42772,4.16448 -3.1381,13.85476 -6.32336,11.00922 -8.0885,12.46324 -10.46394,8.6197 z m -17.25796,-7.89334 -7.36534,-3.89032 6.12366,-18.5213 C 578.17664,396.02834 582,388.10016 582,393.6 c 0,1.32 2.25,2.4 5,2.4 7.3227,0 6.27382,5.38332 -2,10.265 -7.5899,4.47816 -8.75598,7.1867 -3.89678,9.05136 2.2974,0.8816 2.76122,2.74784 1.7862,7.18706 -0.7746,3.5268 -0.43626,6.54058 0.8216,7.31798 2.1658,1.33854 0.8898,10.25308 -1.44428,10.0902 -0.6967,-0.0486 -4.58114,-1.83902 -8.63208,-3.97868 z M 424,425.84926 c 0,-7.99584 -0.1236,-8.13836 -6.5,-7.5 -5.94602,0.59528 -6.8765,-0.1164 -10.91756,-8.34926 -5.45444,-11.11246 -5.51478,-12 -0.8157,-12 2.08472,0 4.23382,1.78616 4.81276,4 0.62584,2.3932 2.72802,4 5.23326,4 4.69132,0 5.23556,-2.30416 1.98074,-8.38584 -1.69416,-3.16558 -1.57808,-4.52062 0.5,-5.836 1.48858,-0.94222 3.435,-1.48494 4.3254,-1.20602 1.86758,0.58502 10.7327,20.8308 14.02798,32.03654 2.48468,8.44924 0.43876,11.30226 -8.14688,11.3607 -3.93554,0.0268 -4.5,-0.99176 -4.5,-8.12012 z m 20,1.31904 c 0,-0.49934 0.82194,-3.06976 1.82652,-5.71204 1.7085,-4.49366 0.1694,-9.69734 -9.14818,-30.92846 -1.07944,-2.45964 3.169,-4.6952 13.82166,-7.27306 l 5.5,-1.33094 v 17.16958 c 0,9.44328 0.93882,18.92378 2.08624,21.06778 2.23582,4.17764 1.94958,4.4013 -8.58624,6.7099 -3.025,0.66284 -5.5,0.7966 -5.5,0.29724 z m 98,-2.6815 c 0,-0.83226 0.86766,-4.53856 1.92814,-8.23624 1.40978,-4.91562 1.18176,-8.50932 -0.84814,-13.36758 -2.63322,-6.3022 -2.55224,-6.67648 1.57186,-7.26378 2.81106,-0.40032 4.5841,-2.2865 5.01562,-5.3357 0.58348,-4.12298 1.44602,-4.5608 6.85416,-3.47918 7.41842,1.4837 6.6991,0.73938 8.40364,8.69568 1.0704,4.99638 0.71844,6.5 -1.52148,6.5 -1.60272,0 -4.04844,1.36688 -5.43494,3.03752 -2.05514,2.4763 -1.91564,3.70634 0.75512,6.65748 C 563.69714,417.19028 562.8925,422 557,422 c -2.75,0 -5,0.9 -5,2 0,1.1 -2.25,2 -5,2 -2.75,0 -5,-0.68094 -5,-1.5132 z M 468.56342,404.5 c -7.79554,-24.91524 -8.0553,-22.5 2.41984,-22.5 5.65926,0 8.77276,0.77674 8.01674,2 -0.67984,1.1 -3.02768,2 -5.21742,2 -5.16786,0 -2.51122,5.27522 4.37914,8.69552 4.04796,2.00936 4.93702,4.1089 5.4428,12.85308 0.59592,10.30288 0.52336,10.4514 -5.10634,10.4514 -5.29992,0 -6.01478,-0.9714 -9.93476,-13.5 z m 24.53512,11 c -0.42676,-1.375 -1.32992,-7.45 -2.007,-13.5 -0.67708,-6.05 -1.74982,-13.925 -2.38388,-17.5 -1.0585,-5.9682 -0.72552,-6.5 4.06976,-6.5 H 498 v 20 c 0,12.40574 -0.78326,20 -2.06276,20 -1.13454,0 -2.41194,-1.125 -2.8387,-2.5 z M 504,398 v -18 h 8 c 4.4,0 8,0.8264 8,1.83642 0,4.4725 -2.71284,8.16358 -6,8.16358 -4.5366,0 -6.97874,5.82542 -2.96628,7.0757 1.63146,0.50836 4.31628,1.34606 5.96628,1.86154 1.65,0.51546 3,3.21546 3,6 0,3.72942 -1.05344,5.06276 -4,5.06276 -2.22222,0 -4,1.33334 -4,3 0,1.66666 -1.77778,3 -4,3 -3.7037,0 -4,-1.33334 -4,-18 z M 314,409.11794 C 314,408.23578 335.99326,369.9064 390.38258,276 427.80098,211.3949 489.11366,105.14724 496.13032,92.751598 l 4.66908,-8.248402 27.19908,47.248404 c 14.9595,25.98662 55.3902,96.2984 89.846,156.2484 34.45582,59.95 64.52944,112.15 66.83028,116 l 4.18336,7 -7.80178,-5.88608 c -35.5351,-26.80952 -77.37438,-45.89644 -121.67952,-55.50972 -29.461,-6.39242 -87.29264,-6.39242 -116.75364,0 -39.7236,8.61918 -82.53478,27.2804 -113.41446,49.43688 C 320.84392,405.0429 314,409.5775 314,409.11794 Z"
     id="path1942" />
</svg>
