<?xml version="1.0" encoding="UTF-8" standalone="no"?>
<svg
   version="1.1"
   viewBox="0 0 100 139.28572"
   id="svg4"
   sodipodi:docname="bite_5.svg"
   inkscape:version="1.1.2 (0a00cf5339, 2022-02-04)"
   width="100"
   height="139.28572"
   xmlns:inkscape="http://www.inkscape.org/namespaces/inkscape"
   xmlns:sodipodi="http://sodipodi.sourceforge.net/DTD/sodipodi-0.dtd"
   xmlns="http://www.w3.org/2000/svg"
   xmlns:svg="http://www.w3.org/2000/svg">
  <defs
     id="defs8">
    <inkscape:path-effect
       effect="skeletal"
       id="path-effect3090"
       is_visible="true"
       lpeversion="1"
       pattern="m 57.50518,122.38744 a 9,9 0 0 1 -9,9 9,9 0 0 1 -9,-9 9,9 0 0 1 9,-9 9,9 0 0 1 9,9 z"
       copytype="repeated"
       prop_scale="0.7"
       scale_y_rel="false"
       spacing="0"
       normal_offset="16.8"
       tang_offset="0"
       prop_units="false"
       vertical_pattern="false"
       hide_knot="false"
       fuse_tolerance="0" />
    <inkscape:path-effect
       effect="skeletal"
       id="path-effect1881"
       is_visible="true"
       lpeversion="1"
       pattern="m -1.0470522,41.756308 a 9.9999997,9.9999997 0 0 0 10,-10 H -11.047052 a 9.9999997,9.9999997 0 0 0 9.9999998,10 z"
       copytype="repeated_stretched"
       prop_scale="1"
       scale_y_rel="false"
       spacing="-6"
       normal_offset="-4.8"
       tang_offset="0"
       prop_units="false"
       vertical_pattern="false"
       hide_knot="false"
       fuse_tolerance="0" />
    <inkscape:path-effect
       effect="skeletal"
       id="path-effect1687"
       is_visible="true"
       lpeversion="1"
       pattern="m -1.0470522,41.756308 a 9.9999997,9.9999997 0 0 0 10,-10 H -11.047052 a 9.9999997,9.9999997 0 0 0 9.9999998,10 z"
       copytype="repeated"
       prop_scale="1"
       scale_y_rel="false"
       spacing="0"
       normal_offset="0"
       tang_offset="0"
       prop_units="false"
       vertical_pattern="false"
       hide_knot="false"
       fuse_tolerance="0" />
    <inkscape:path-effect
       effect="skeletal"
       id="path-effect1648"
       is_visible="true"
       lpeversion="1"
       pattern="m -23.490347,61.309183 a 9.9999997,9.9999997 0 0 0 10,-10 h -20 a 9.9999997,9.9999997 0 0 0 10,10 z"
       copytype="repeated"
       prop_scale="1"
       scale_y_rel="false"
       spacing="0"
       normal_offset="0"
       tang_offset="0"
       prop_units="false"
       vertical_pattern="false"
       hide_knot="false"
       fuse_tolerance="0" />
    <inkscape:path-effect
       effect="skeletal"
       id="path-effect1622"
       is_visible="true"
       lpeversion="1"
       pattern="m -1.0470522,41.756308 a 9.9999997,9.9999997 0 0 0 10,-10 H -11.047052 a 9.9999997,9.9999997 0 0 0 9.9999998,10 z"
       copytype="repeated"
       prop_scale="1"
       scale_y_rel="false"
       spacing="0"
       normal_offset="0"
       tang_offset="0"
       prop_units="false"
       vertical_pattern="false"
       hide_knot="false"
       fuse_tolerance="0" />
    <inkscape:path-effect
       effect="skeletal"
       id="path-effect3090-7"
       is_visible="true"
       lpeversion="1"
       pattern="m 57.50518,122.38744 a 9,9 0 0 1 -9,9 9,9 0 0 1 -9,-9 9,9 0 0 1 9,-9 9,9 0 0 1 9,9 z"
       copytype="repeated"
       prop_scale="0.7"
       scale_y_rel="false"
       spacing="0"
       normal_offset="16.8"
       tang_offset="0"
       prop_units="false"
       vertical_pattern="false"
       hide_knot="false"
       fuse_tolerance="0" />
    <inkscape:path-effect
       effect="skeletal"
       id="path-effect1881-5"
       is_visible="true"
       lpeversion="1"
       pattern="m -1.0470522,41.756308 a 9.9999997,9.9999997 0 0 0 10,-10 H -11.047052 a 9.9999997,9.9999997 0 0 0 9.9999998,10 z"
       copytype="repeated_stretched"
       prop_scale="1"
       scale_y_rel="false"
       spacing="-6"
       normal_offset="-4.8"
       tang_offset="0"
       prop_units="false"
       vertical_pattern="false"
       hide_knot="false"
       fuse_tolerance="0" />
    <inkscape:path-effect
       effect="skeletal"
       id="path-effect1687-3"
       is_visible="true"
       lpeversion="1"
       pattern="m -1.0470522,41.756308 a 9.9999997,9.9999997 0 0 0 10,-10 H -11.047052 a 9.9999997,9.9999997 0 0 0 9.9999998,10 z"
       copytype="repeated"
       prop_scale="1"
       scale_y_rel="false"
       spacing="0"
       normal_offset="0"
       tang_offset="0"
       prop_units="false"
       vertical_pattern="false"
       hide_knot="false"
       fuse_tolerance="0" />
    <inkscape:path-effect
       effect="skeletal"
       id="path-effect1648-5"
       is_visible="true"
       lpeversion="1"
       pattern="m -23.490347,61.309183 a 9.9999997,9.9999997 0 0 0 10,-10 h -20 a 9.9999997,9.9999997 0 0 0 10,10 z"
       copytype="repeated"
       prop_scale="1"
       scale_y_rel="false"
       spacing="0"
       normal_offset="0"
       tang_offset="0"
       prop_units="false"
       vertical_pattern="false"
       hide_knot="false"
       fuse_tolerance="0" />
    <inkscape:path-effect
       effect="skeletal"
       id="path-effect1622-6"
       is_visible="true"
       lpeversion="1"
       pattern="m -1.0470522,41.756308 a 9.9999997,9.9999997 0 0 0 10,-10 H -11.047052 a 9.9999997,9.9999997 0 0 0 9.9999998,10 z"
       copytype="repeated"
       prop_scale="1"
       scale_y_rel="false"
       spacing="0"
       normal_offset="0"
       tang_offset="0"
       prop_units="false"
       vertical_pattern="false"
       hide_knot="false"
       fuse_tolerance="0" />
    <inkscape:path-effect
       effect="skeletal"
       id="path-effect3090-75"
       is_visible="true"
       lpeversion="1"
       pattern="m 57.50518,122.38744 a 9,9 0 0 1 -9,9 9,9 0 0 1 -9,-9 9,9 0 0 1 9,-9 9,9 0 0 1 9,9 z"
       copytype="repeated"
       prop_scale="0.7"
       scale_y_rel="false"
       spacing="0"
       normal_offset="16.8"
       tang_offset="0"
       prop_units="false"
       vertical_pattern="false"
       hide_knot="false"
       fuse_tolerance="0" />
    <inkscape:path-effect
       effect="skeletal"
       id="path-effect1881-3"
       is_visible="true"
       lpeversion="1"
       pattern="m -1.0470522,41.756308 a 9.9999997,9.9999997 0 0 0 10,-10 H -11.047052 a 9.9999997,9.9999997 0 0 0 9.9999998,10 z"
       copytype="repeated_stretched"
       prop_scale="1"
       scale_y_rel="false"
       spacing="-6"
       normal_offset="-4.8"
       tang_offset="0"
       prop_units="false"
       vertical_pattern="false"
       hide_knot="false"
       fuse_tolerance="0" />
    <inkscape:path-effect
       effect="skeletal"
       id="path-effect1687-5"
       is_visible="true"
       lpeversion="1"
       pattern="m -1.0470522,41.756308 a 9.9999997,9.9999997 0 0 0 10,-10 H -11.047052 a 9.9999997,9.9999997 0 0 0 9.9999998,10 z"
       copytype="repeated"
       prop_scale="1"
       scale_y_rel="false"
       spacing="0"
       normal_offset="0"
       tang_offset="0"
       prop_units="false"
       vertical_pattern="false"
       hide_knot="false"
       fuse_tolerance="0" />
    <inkscape:path-effect
       effect="skeletal"
       id="path-effect1648-6"
       is_visible="true"
       lpeversion="1"
       pattern="m -23.490347,61.309183 a 9.9999997,9.9999997 0 0 0 10,-10 h -20 a 9.9999997,9.9999997 0 0 0 10,10 z"
       copytype="repeated"
       prop_scale="1"
       scale_y_rel="false"
       spacing="0"
       normal_offset="0"
       tang_offset="0"
       prop_units="false"
       vertical_pattern="false"
       hide_knot="false"
       fuse_tolerance="0" />
    <inkscape:path-effect
       effect="skeletal"
       id="path-effect1622-2"
       is_visible="true"
       lpeversion="1"
       pattern="m -1.0470522,41.756308 a 9.9999997,9.9999997 0 0 0 10,-10 H -11.047052 a 9.9999997,9.9999997 0 0 0 9.9999998,10 z"
       copytype="repeated"
       prop_scale="1"
       scale_y_rel="false"
       spacing="0"
       normal_offset="0"
       tang_offset="0"
       prop_units="false"
       vertical_pattern="false"
       hide_knot="false"
       fuse_tolerance="0" />
  </defs>
  <sodipodi:namedview
     id="namedview6"
     pagecolor="#ffffff"
     bordercolor="#666666"
     borderopacity="1.0"
     inkscape:pageshadow="2"
     inkscape:pageopacity="0.0"
     inkscape:pagecheckerboard="0"
     showgrid="false"
     inkscape:zoom="4.52521"
     inkscape:cx="-115.57475"
     inkscape:cy="71.488395"
     inkscape:window-width="1920"
     inkscape:window-height="1016"
     inkscape:window-x="1920"
     inkscape:window-y="27"
     inkscape:window-maximized="1"
     inkscape:current-layer="svg4"
     fit-margin-top="0"
     fit-margin-left="0"
     fit-margin-right="0"
     fit-margin-bottom="0" />
  <path
     id="rect1454"
     style="fill:#000000;stroke-width:0.527545;stroke-linejoin:round;stroke-dasharray:1.0551, 3.1653"
     d="M 0 0 L 0 34.595703 C 0.45169893 34.689893 0.90249671 34.839889 1.3378906 35.054688 C 3.5742133 36.157961 4.4993254 38.250966 4.0859375 39.986328 A 29.299899 29.299899 0 0 1 4.4511719 40.257812 C 5.9254713 39.248154 8.2150355 39.372827 10.058594 41.087891 C 11.938277 42.836563 12.188884 45.151452 11.222656 46.685547 A 29.299899 29.299899 0 0 1 11.447266 46.984375 C 12.114057 46.740666 12.868322 46.696601 13.652344 46.910156 C 14.843164 47.234516 15.948535 48.1121 16.648438 49.330078 C 17.34862 50.548547 17.541183 51.933189 17.210938 53.103516 C 16.957587 54.00134 16.424126 54.680585 15.736328 55.121094 A 29.299899 29.299899 0 0 1 15.796875 55.28125 C 16.604975 55.166754 17.453886 55.33584 18.228516 55.847656 C 19.237886 56.514572 19.988885 57.681128 20.226562 59.048828 C 20.371765 59.884378 20.313032 60.735901 20.058594 61.501953 C 19.605069 62.989608 18.532837 63.876297 17.308594 64.119141 A 29.299899 29.299899 0 0 1 17.320312 64.279297 C 18.137514 64.44872 18.895415 64.900059 19.455078 65.664062 C 19.993978 66.399733 20.293707 67.346967 20.304688 68.353516 C 20.308387 68.68903 20.278907 69.032217 20.216797 69.375 C 19.968528 70.745196 19.217715 71.923263 18.205078 72.609375 C 17.499868 73.087196 16.730748 73.281761 15.986328 73.238281 A 29.299899 29.299899 0 0 1 15.894531 73.513672 C 16.493711 73.950147 16.960382 74.584258 17.199219 75.400391 C 17.543464 76.576714 17.3732 77.97824 16.695312 79.224609 C 15.504219 81.414567 13.384435 82.260406 11.667969 81.787109 A 29.299899 29.299899 0 0 1 11.386719 82.162109 C 12.321033 83.675916 12.099372 85.947955 10.326172 87.712891 C 9.3167741 88.717582 8.0157924 89.281564 6.7832031 89.289062 C 5.9480318 89.294162 5.2168116 89.043642 4.6308594 88.613281 A 29.299899 29.299899 0 0 1 4.3671875 88.796875 C 4.6054358 89.488717 4.6290618 90.267541 4.3769531 91.066406 C 4.0063446 92.240735 3.0892562 93.307882 1.8457031 93.953125 C 1.249839 94.2623 0.6202652 94.45101 0 94.523438 L 0 108.84766 C 1.0000551 109.14486 1.8813447 109.6676 2.5507812 110.39062 A 44.950512 44.950512 0 0 1 3.0820312 110.17578 C 2.9856453 109.09091 3.2198828 107.95594 3.8476562 106.87891 C 4.8011551 105.24305 6.5402467 103.95198 8.6230469 103.39844 C 10.70669 102.84467 12.83435 103.11037 14.4375 104.06445 C 15.667367 104.79639 16.464074 105.85858 16.84375 107.05273 A 44.950512 44.950512 0 0 1 17.103516 107.02734 C 17.254718 105.78437 17.842172 104.59312 18.908203 103.64844 C 20.29728 102.41749 22.326134 101.76617 24.447266 101.95703 C 25.743106 102.07363 26.979511 102.49848 28.013672 103.17969 C 30.038116 104.44246 30.928973 106.38432 30.802734 108.29492 A 44.950512 44.950512 0 0 1 31.042969 108.3418 C 31.618508 107.19808 32.588964 106.25255 33.943359 105.72656 C 35.247506 105.22008 36.771639 105.15372 38.267578 105.53711 A 44.950512 44.950512 0 0 1 38.347656 104.9707 C 37.359943 104.51174 36.493856 103.74039 35.875 102.6582 C 34.935058 101.01452 34.686033 98.863736 35.248047 96.783203 C 35.810287 94.701824 37.102632 92.991406 38.730469 92.080078 C 39.979275 91.380951 41.297484 91.221967 42.521484 91.490234 A 44.950512 44.950512 0 0 1 42.628906 91.251953 C 41.628062 90.499512 40.89057 89.395553 40.605469 88 C 40.233972 86.181549 40.686259 84.100901 41.912109 82.359375 C 42.661006 81.295445 43.646874 80.435861 44.753906 79.880859 C 46.859719 78.759024 48.986612 78.958811 50.578125 80.023438 A 44.950512 44.950512 0 0 1 50.738281 79.837891 C 50.035557 78.767598 49.702152 77.455464 49.923828 76.019531 C 50.137281 74.636869 50.841879 73.283513 51.921875 72.179688 C 52.281873 71.811744 52.683821 71.474401 53.123047 71.169922 C 54.878771 69.952848 56.97358 69.485632 58.816406 69.839844 C 60.099765 70.086521 61.143907 70.709736 61.904297 71.564453 A 44.950512 44.950512 0 0 1 62.300781 71.365234 C 62.124277 70.241747 62.307381 69.048736 62.933594 67.904297 C 63.836239 66.254772 65.541454 64.91943 67.628906 64.302734 C 71.296704 63.219157 74.514669 64.601095 75.863281 66.976562 A 44.950512 44.950512 0 0 1 76.574219 66.875 C 76.663249 66.498863 76.804999 66.135006 76.974609 65.78125 C 76.40103 65.597134 75.83608 65.368594 75.294922 65.054688 C 73.42999 63.972906 72.111303 62.280895 71.652344 60.472656 C 71.300251 59.085455 71.488537 57.771063 72.064453 56.658203 A 44.950512 44.950512 0 0 1 71.861328 56.492188 C 70.875502 57.264184 69.619054 57.691279 68.197266 57.605469 C 66.344627 57.493658 64.450846 56.517637 63.085938 54.882812 C 62.252088 53.884068 61.677302 52.711002 61.427734 51.498047 C 60.889148 49.173635 61.632002 47.169941 63.072266 45.908203 A 44.950512 44.950512 0 0 1 62.935547 45.705078 C 61.719845 46.106844 60.364787 46.089676 59.035156 45.503906 C 57.754853 44.939867 56.63044 43.908966 55.84375 42.580078 C 55.581518 42.137116 55.360112 41.661266 55.179688 41.158203 C 54.458498 39.147301 54.55004 37.004762 55.369141 35.316406 C 55.93957 34.14062 56.811587 33.292559 57.833984 32.779297 A 44.950512 44.950512 0 0 1 57.744141 32.34375 C 56.613253 32.22346 55.50781 31.737054 54.564453 30.835938 C 53.204757 29.537122 52.356191 27.545077 52.300781 25.369141 C 52.203421 21.54586 54.370091 18.795255 57.013672 18.107422 A 44.950512 44.950512 0 0 1 57.101562 17.394531 C 54.699008 16.099958 53.247941 12.91213 54.25 9.2070312 C 54.820426 7.0978977 56.11811 5.3499827 57.75 4.3945312 C 58.85571 3.7471195 60.018327 3.520264 61.126953 3.6425781 A 44.950512 44.950512 0 0 1 61.335938 3.1953125 C 60.488678 2.4588908 59.859863 1.4422831 59.582031 0.1875 C 59.56861 0.12688497 59.574176 0.06119542 59.5625 0 L 0 0 z " />
</svg>
