<?xml version="1.0" encoding="UTF-8" standalone="no"?>
<svg
   version="1.1"
   viewBox="0 0 100 139.28572"
   id="svg4"
   sodipodi:docname="bite_6.svg"
   inkscape:version="1.1.2 (0a00cf5339, 2022-02-04)"
   width="100"
   height="139.28572"
   xmlns:inkscape="http://www.inkscape.org/namespaces/inkscape"
   xmlns:sodipodi="http://sodipodi.sourceforge.net/DTD/sodipodi-0.dtd"
   xmlns="http://www.w3.org/2000/svg"
   xmlns:svg="http://www.w3.org/2000/svg">
  <path
     id="rect1454"
     style="fill:#000000;stroke-width:0.527545;stroke-linejoin:round;stroke-dasharray:1.0551, 3.1653"
     d="M 0 0 L 0 34.613281 C 0.45196293 34.707451 0.90224277 34.839764 1.3378906 35.054688 C 3.5742133 36.157961 4.4993254 38.250966 4.0859375 39.986328 A 29.299899 29.299899 0 0 1 4.4511719 40.257812 C 5.9254713 39.248154 8.2150355 39.372827 10.058594 41.087891 C 11.938277 42.836563 12.188884 45.151452 11.222656 46.685547 A 29.299899 29.299899 0 0 1 11.447266 46.984375 C 12.114057 46.740666 12.868322 46.696601 13.652344 46.910156 C 14.163577 47.049408 14.650892 47.308645 15.105469 47.634766 C 18.022488 47.399247 20.436281 48.707128 21.503906 50.732422 A 44.950512 44.950512 0 0 1 22.070312 50.664062 C 22.257994 49.591214 22.778921 48.555589 23.664062 47.677734 C 25.008463 46.344402 27.020681 45.546381 29.175781 45.550781 C 31.331751 45.555181 33.319505 46.362718 34.621094 47.699219 C 35.619616 48.724524 36.114205 49.955308 36.171875 51.207031 A 44.950512 44.950512 0 0 1 36.429688 51.25 C 36.897441 50.088519 37.772667 49.089707 39.046875 48.453125 C 40.707213 47.623637 42.83648 47.520561 44.835938 48.253906 C 46.057445 48.70192 47.142233 49.433709 47.964844 50.359375 C 49.593478 52.103082 49.950421 54.208655 49.333984 56.021484 A 44.950512 44.950512 0 0 1 49.554688 56.126953 C 50.406633 55.171162 51.58687 54.511039 53.03125 54.353516 C 54.422044 54.201836 55.912077 54.531557 57.257812 55.289062 C 57.706392 55.541564 58.137138 55.842047 58.544922 56.1875 C 60.17494 57.568398 61.165965 59.472041 61.300781 61.34375 C 61.394671 62.647225 61.064337 63.815787 60.435547 64.771484 A 44.950512 44.950512 0 0 1 60.730469 65.105469 C 61.769991 64.644199 62.970752 64.511601 64.238281 64.820312 C 64.674493 64.926554 65.10296 65.087287 65.521484 65.287109 C 66.166748 64.883955 66.858406 64.530363 67.628906 64.302734 C 71.296704 63.219157 74.514669 64.601095 75.863281 66.976562 A 44.950512 44.950512 0 0 1 76.574219 66.875 C 76.663249 66.498863 76.804999 66.135006 76.974609 65.78125 C 76.40103 65.597134 75.83608 65.368594 75.294922 65.054688 C 73.42999 63.972906 72.111303 62.280895 71.652344 60.472656 C 71.300251 59.085455 71.488537 57.771063 72.064453 56.658203 A 44.950512 44.950512 0 0 1 71.861328 56.492188 C 70.875502 57.264184 69.619054 57.691279 68.197266 57.605469 C 66.344627 57.493658 64.450847 56.517637 63.085938 54.882812 C 62.252088 53.884068 61.677302 52.711002 61.427734 51.498047 C 60.889148 49.173635 61.632002 47.169941 63.072266 45.908203 A 44.950512 44.950512 0 0 1 62.935547 45.705078 C 61.719845 46.106844 60.364787 46.089676 59.035156 45.503906 C 57.754853 44.939867 56.63044 43.908966 55.84375 42.580078 C 55.581518 42.137116 55.360112 41.661266 55.179688 41.158203 C 54.458498 39.147301 54.55004 37.004762 55.369141 35.316406 C 55.93957 34.14062 56.811587 33.292559 57.833984 32.779297 A 44.950512 44.950512 0 0 1 57.744141 32.34375 C 56.613253 32.22346 55.50781 31.737054 54.564453 30.835938 C 53.204757 29.537122 52.356191 27.545077 52.300781 25.369141 C 52.203421 21.54586 54.370091 18.795255 57.013672 18.107422 A 44.950512 44.950512 0 0 1 57.101562 17.394531 C 54.699008 16.099958 53.247941 12.91213 54.25 9.2070312 C 54.820426 7.0978977 56.11811 5.3499826 57.75 4.3945312 C 58.85571 3.7471195 60.018327 3.520264 61.126953 3.6425781 A 44.950512 44.950512 0 0 1 61.335938 3.1953125 C 60.488678 2.4588908 59.859863 1.4422831 59.582031 0.1875 C 59.56861 0.12688497 59.574176 0.06119542 59.5625 0 L 0 0 z " />
  <defs
     id="defs8">
    <inkscape:path-effect
       effect="skeletal"
       id="path-effect3090"
       is_visible="true"
       lpeversion="1"
       pattern="m 57.50518,122.38744 a 9,9 0 0 1 -9,9 9,9 0 0 1 -9,-9 9,9 0 0 1 9,-9 9,9 0 0 1 9,9 z"
       copytype="repeated"
       prop_scale="0.7"
       scale_y_rel="false"
       spacing="0"
       normal_offset="16.8"
       tang_offset="0"
       prop_units="false"
       vertical_pattern="false"
       hide_knot="false"
       fuse_tolerance="0" />
    <inkscape:path-effect
       effect="skeletal"
       id="path-effect1881"
       is_visible="true"
       lpeversion="1"
       pattern="m -1.0470522,41.756308 a 9.9999997,9.9999997 0 0 0 10,-10 H -11.047052 a 9.9999997,9.9999997 0 0 0 9.9999998,10 z"
       copytype="repeated_stretched"
       prop_scale="1"
       scale_y_rel="false"
       spacing="-6"
       normal_offset="-4.8"
       tang_offset="0"
       prop_units="false"
       vertical_pattern="false"
       hide_knot="false"
       fuse_tolerance="0" />
    <inkscape:path-effect
       effect="skeletal"
       id="path-effect1687"
       is_visible="true"
       lpeversion="1"
       pattern="m -1.0470522,41.756308 a 9.9999997,9.9999997 0 0 0 10,-10 H -11.047052 a 9.9999997,9.9999997 0 0 0 9.9999998,10 z"
       copytype="repeated"
       prop_scale="1"
       scale_y_rel="false"
       spacing="0"
       normal_offset="0"
       tang_offset="0"
       prop_units="false"
       vertical_pattern="false"
       hide_knot="false"
       fuse_tolerance="0" />
    <inkscape:path-effect
       effect="skeletal"
       id="path-effect1648"
       is_visible="true"
       lpeversion="1"
       pattern="m -23.490347,61.309183 a 9.9999997,9.9999997 0 0 0 10,-10 h -20 a 9.9999997,9.9999997 0 0 0 10,10 z"
       copytype="repeated"
       prop_scale="1"
       scale_y_rel="false"
       spacing="0"
       normal_offset="0"
       tang_offset="0"
       prop_units="false"
       vertical_pattern="false"
       hide_knot="false"
       fuse_tolerance="0" />
    <inkscape:path-effect
       effect="skeletal"
       id="path-effect1622"
       is_visible="true"
       lpeversion="1"
       pattern="m -1.0470522,41.756308 a 9.9999997,9.9999997 0 0 0 10,-10 H -11.047052 a 9.9999997,9.9999997 0 0 0 9.9999998,10 z"
       copytype="repeated"
       prop_scale="1"
       scale_y_rel="false"
       spacing="0"
       normal_offset="0"
       tang_offset="0"
       prop_units="false"
       vertical_pattern="false"
       hide_knot="false"
       fuse_tolerance="0" />
    <inkscape:path-effect
       effect="skeletal"
       id="path-effect3090-7"
       is_visible="true"
       lpeversion="1"
       pattern="m 57.50518,122.38744 a 9,9 0 0 1 -9,9 9,9 0 0 1 -9,-9 9,9 0 0 1 9,-9 9,9 0 0 1 9,9 z"
       copytype="repeated"
       prop_scale="0.7"
       scale_y_rel="false"
       spacing="0"
       normal_offset="16.8"
       tang_offset="0"
       prop_units="false"
       vertical_pattern="false"
       hide_knot="false"
       fuse_tolerance="0" />
    <inkscape:path-effect
       effect="skeletal"
       id="path-effect1881-5"
       is_visible="true"
       lpeversion="1"
       pattern="m -1.0470522,41.756308 a 9.9999997,9.9999997 0 0 0 10,-10 H -11.047052 a 9.9999997,9.9999997 0 0 0 9.9999998,10 z"
       copytype="repeated_stretched"
       prop_scale="1"
       scale_y_rel="false"
       spacing="-6"
       normal_offset="-4.8"
       tang_offset="0"
       prop_units="false"
       vertical_pattern="false"
       hide_knot="false"
       fuse_tolerance="0" />
    <inkscape:path-effect
       effect="skeletal"
       id="path-effect1687-3"
       is_visible="true"
       lpeversion="1"
       pattern="m -1.0470522,41.756308 a 9.9999997,9.9999997 0 0 0 10,-10 H -11.047052 a 9.9999997,9.9999997 0 0 0 9.9999998,10 z"
       copytype="repeated"
       prop_scale="1"
       scale_y_rel="false"
       spacing="0"
       normal_offset="0"
       tang_offset="0"
       prop_units="false"
       vertical_pattern="false"
       hide_knot="false"
       fuse_tolerance="0" />
    <inkscape:path-effect
       effect="skeletal"
       id="path-effect1648-5"
       is_visible="true"
       lpeversion="1"
       pattern="m -23.490347,61.309183 a 9.9999997,9.9999997 0 0 0 10,-10 h -20 a 9.9999997,9.9999997 0 0 0 10,10 z"
       copytype="repeated"
       prop_scale="1"
       scale_y_rel="false"
       spacing="0"
       normal_offset="0"
       tang_offset="0"
       prop_units="false"
       vertical_pattern="false"
       hide_knot="false"
       fuse_tolerance="0" />
    <inkscape:path-effect
       effect="skeletal"
       id="path-effect1622-6"
       is_visible="true"
       lpeversion="1"
       pattern="m -1.0470522,41.756308 a 9.9999997,9.9999997 0 0 0 10,-10 H -11.047052 a 9.9999997,9.9999997 0 0 0 9.9999998,10 z"
       copytype="repeated"
       prop_scale="1"
       scale_y_rel="false"
       spacing="0"
       normal_offset="0"
       tang_offset="0"
       prop_units="false"
       vertical_pattern="false"
       hide_knot="false"
       fuse_tolerance="0" />
    <inkscape:path-effect
       effect="skeletal"
       id="path-effect3090-75"
       is_visible="true"
       lpeversion="1"
       pattern="m 57.50518,122.38744 a 9,9 0 0 1 -9,9 9,9 0 0 1 -9,-9 9,9 0 0 1 9,-9 9,9 0 0 1 9,9 z"
       copytype="repeated"
       prop_scale="0.7"
       scale_y_rel="false"
       spacing="0"
       normal_offset="16.8"
       tang_offset="0"
       prop_units="false"
       vertical_pattern="false"
       hide_knot="false"
       fuse_tolerance="0" />
    <inkscape:path-effect
       effect="skeletal"
       id="path-effect1881-3"
       is_visible="true"
       lpeversion="1"
       pattern="m -1.0470522,41.756308 a 9.9999997,9.9999997 0 0 0 10,-10 H -11.047052 a 9.9999997,9.9999997 0 0 0 9.9999998,10 z"
       copytype="repeated_stretched"
       prop_scale="1"
       scale_y_rel="false"
       spacing="-6"
       normal_offset="-4.8"
       tang_offset="0"
       prop_units="false"
       vertical_pattern="false"
       hide_knot="false"
       fuse_tolerance="0" />
    <inkscape:path-effect
       effect="skeletal"
       id="path-effect1687-5"
       is_visible="true"
       lpeversion="1"
       pattern="m -1.0470522,41.756308 a 9.9999997,9.9999997 0 0 0 10,-10 H -11.047052 a 9.9999997,9.9999997 0 0 0 9.9999998,10 z"
       copytype="repeated"
       prop_scale="1"
       scale_y_rel="false"
       spacing="0"
       normal_offset="0"
       tang_offset="0"
       prop_units="false"
       vertical_pattern="false"
       hide_knot="false"
       fuse_tolerance="0" />
    <inkscape:path-effect
       effect="skeletal"
       id="path-effect1648-6"
       is_visible="true"
       lpeversion="1"
       pattern="m -23.490347,61.309183 a 9.9999997,9.9999997 0 0 0 10,-10 h -20 a 9.9999997,9.9999997 0 0 0 10,10 z"
       copytype="repeated"
       prop_scale="1"
       scale_y_rel="false"
       spacing="0"
       normal_offset="0"
       tang_offset="0"
       prop_units="false"
       vertical_pattern="false"
       hide_knot="false"
       fuse_tolerance="0" />
    <inkscape:path-effect
       effect="skeletal"
       id="path-effect1622-2"
       is_visible="true"
       lpeversion="1"
       pattern="m -1.0470522,41.756308 a 9.9999997,9.9999997 0 0 0 10,-10 H -11.047052 a 9.9999997,9.9999997 0 0 0 9.9999998,10 z"
       copytype="repeated"
       prop_scale="1"
       scale_y_rel="false"
       spacing="0"
       normal_offset="0"
       tang_offset="0"
       prop_units="false"
       vertical_pattern="false"
       hide_knot="false"
       fuse_tolerance="0" />
  </defs>
  <sodipodi:namedview
     id="namedview6"
     pagecolor="#ffffff"
     bordercolor="#666666"
     borderopacity="1.0"
     inkscape:pageshadow="2"
     inkscape:pageopacity="0.0"
     inkscape:pagecheckerboard="0"
     showgrid="false"
     inkscape:zoom="4.52521"
     inkscape:cx="30.937791"
     inkscape:cy="63.974932"
     inkscape:window-width="1920"
     inkscape:window-height="1016"
     inkscape:window-x="1920"
     inkscape:window-y="27"
     inkscape:window-maximized="1"
     inkscape:current-layer="svg4"
     fit-margin-top="0"
     fit-margin-left="0"
     fit-margin-right="0"
     fit-margin-bottom="0" />
</svg>
