<?xml version="1.0" encoding="UTF-8" standalone="no"?>
<svg
   version="1.1"
   viewBox="0 0 100 139.28572"
   id="svg4"
   width="100"
   height="139.28572"
   sodipodi:docname="bite_1.svg"
   inkscape:version="1.1.2 (0a00cf5339, 2022-02-04)"
   xmlns:inkscape="http://www.inkscape.org/namespaces/inkscape"
   xmlns:sodipodi="http://sodipodi.sourceforge.net/DTD/sodipodi-0.dtd"
   xmlns="http://www.w3.org/2000/svg"
   xmlns:svg="http://www.w3.org/2000/svg">
  <defs
     id="defs6">
    <inkscape:path-effect
       effect="skeletal"
       id="path-effect3090"
       is_visible="true"
       lpeversion="1"
       pattern="m 57.50518,122.38744 a 9,9 0 0 1 -9,9 9,9 0 0 1 -9,-9 9,9 0 0 1 9,-9 9,9 0 0 1 9,9 z"
       copytype="repeated"
       prop_scale="0.7"
       scale_y_rel="false"
       spacing="0"
       normal_offset="16.8"
       tang_offset="0"
       prop_units="false"
       vertical_pattern="false"
       hide_knot="false"
       fuse_tolerance="0" />
    <inkscape:path-effect
       effect="skeletal"
       id="path-effect1881"
       is_visible="true"
       lpeversion="1"
       pattern="m -1.0470522,41.756308 a 9.9999997,9.9999997 0 0 0 10,-10 H -11.047052 a 9.9999997,9.9999997 0 0 0 9.9999998,10 z"
       copytype="repeated_stretched"
       prop_scale="1"
       scale_y_rel="false"
       spacing="-6"
       normal_offset="-4.8"
       tang_offset="0"
       prop_units="false"
       vertical_pattern="false"
       hide_knot="false"
       fuse_tolerance="0" />
    <inkscape:path-effect
       effect="skeletal"
       id="path-effect1687"
       is_visible="true"
       lpeversion="1"
       pattern="m -1.0470522,41.756308 a 9.9999997,9.9999997 0 0 0 10,-10 H -11.047052 a 9.9999997,9.9999997 0 0 0 9.9999998,10 z"
       copytype="repeated"
       prop_scale="1"
       scale_y_rel="false"
       spacing="0"
       normal_offset="0"
       tang_offset="0"
       prop_units="false"
       vertical_pattern="false"
       hide_knot="false"
       fuse_tolerance="0" />
    <inkscape:path-effect
       effect="skeletal"
       id="path-effect1648"
       is_visible="true"
       lpeversion="1"
       pattern="m -23.490347,61.309183 a 9.9999997,9.9999997 0 0 0 10,-10 h -20 a 9.9999997,9.9999997 0 0 0 10,10 z"
       copytype="repeated"
       prop_scale="1"
       scale_y_rel="false"
       spacing="0"
       normal_offset="0"
       tang_offset="0"
       prop_units="false"
       vertical_pattern="false"
       hide_knot="false"
       fuse_tolerance="0" />
    <inkscape:path-effect
       effect="skeletal"
       id="path-effect1622"
       is_visible="true"
       lpeversion="1"
       pattern="m -1.0470522,41.756308 a 9.9999997,9.9999997 0 0 0 10,-10 H -11.047052 a 9.9999997,9.9999997 0 0 0 9.9999998,10 z"
       copytype="repeated"
       prop_scale="1"
       scale_y_rel="false"
       spacing="0"
       normal_offset="0"
       tang_offset="0"
       prop_units="false"
       vertical_pattern="false"
       hide_knot="false"
       fuse_tolerance="0" />
  </defs>
  <sodipodi:namedview
     id="namedview4"
     pagecolor="#ffffff"
     bordercolor="#666666"
     borderopacity="1.0"
     inkscape:pageshadow="2"
     inkscape:pageopacity="0.0"
     inkscape:pagecheckerboard="0"
     showgrid="false"
     inkscape:zoom="4.2847043"
     inkscape:cx="30.107095"
     inkscape:cy="69.433029"
     inkscape:window-width="1920"
     inkscape:window-height="1016"
     inkscape:window-x="1920"
     inkscape:window-y="27"
     inkscape:window-maximized="1"
     inkscape:current-layer="svg4" />
  <path
     id="rect1454"
     style="display:inline;fill:#000000;stroke-width:0.527545;stroke-linejoin:round;stroke-dasharray:1.0551, 3.1653"
     d="M 0 0 L 0 34.595703 C 0.45169893 34.689893 0.90249671 34.839889 1.3378906 35.054688 C 3.5742133 36.157961 4.4993254 38.250966 4.0859375 39.986328 A 29.299899 29.299899 0 0 1 4.4511719 40.257812 C 5.9254713 39.248154 8.2150355 39.372827 10.058594 41.087891 C 11.938277 42.836563 12.188884 45.151452 11.222656 46.685547 A 29.299899 29.299899 0 0 1 11.447266 46.984375 C 12.114057 46.740666 12.868322 46.696601 13.652344 46.910156 C 14.843164 47.234516 15.948535 48.1121 16.648438 49.330078 C 17.34862 50.548547 17.541183 51.933189 17.210938 53.103516 C 16.957587 54.00134 16.424126 54.680585 15.736328 55.121094 A 29.299899 29.299899 0 0 1 15.796875 55.28125 C 16.604975 55.166754 17.453886 55.33584 18.228516 55.847656 C 19.237886 56.514572 19.988885 57.681128 20.226562 59.048828 C 20.371765 59.884378 20.313032 60.735901 20.058594 61.501953 C 19.605069 62.989608 18.532837 63.876297 17.308594 64.119141 A 29.299899 29.299899 0 0 1 17.320312 64.279297 C 18.137514 64.44872 18.895415 64.900059 19.455078 65.664062 C 19.993978 66.399733 20.293707 67.346967 20.304688 68.353516 C 20.308387 68.68903 20.278907 69.032217 20.216797 69.375 C 19.968528 70.745196 19.217715 71.923263 18.205078 72.609375 C 17.499868 73.087196 16.730748 73.281761 15.986328 73.238281 A 29.299899 29.299899 0 0 1 15.894531 73.513672 C 16.493711 73.950147 16.960382 74.584258 17.199219 75.400391 C 17.543464 76.576714 17.3732 77.97824 16.695312 79.224609 C 15.504219 81.414567 13.384435 82.260406 11.667969 81.787109 A 29.299899 29.299899 0 0 1 11.386719 82.162109 C 12.321033 83.675916 12.099372 85.947955 10.326172 87.712891 C 9.3167741 88.717582 8.0157924 89.281564 6.7832031 89.289062 C 5.9480318 89.294162 5.2168116 89.043642 4.6308594 88.613281 A 29.299899 29.299899 0 0 1 4.3671875 88.796875 C 4.6054358 89.488717 4.6290618 90.267541 4.3769531 91.066406 C 4.0063446 92.240735 3.0892562 93.307882 1.8457031 93.953125 C 1.249839 94.2623 0.6202652 94.45101 0 94.523438 L 0 139.28516 L 100 139.28516 L 100 0 L 0 0 z " />
</svg>
