<svg
   version="1.1"
   id="svg2"
   width="1000"
   height="1000"
   viewBox="0 0 1000 1000"
   xmlns="http://www.w3.org/2000/svg">
  <path
     style="fill:#fdf7ed;stroke-width:2"
     d="m 338,910.30726 c -26.43136,-11.63104 -63.18258,-34.68292 -71.7475,-45.00302 -1.79336,-2.16086 1.2818,-12.94464 13.92758,-48.84052 l 16.2291,-46.06734 -14.34614,-16.60178 C 242.44844,707.95138 223.21448,666.05848 210.63042,598.2093 L 209,589.4186 172,577.73156 c -20.35,-6.42788 -50.74084,-15.88122 -67.5352,-21.00744 -16.794356,-5.12622 -30.267302,-9.58828 -29.939878,-9.9157 0.327426,-0.32744 31.536938,-9.18694 69.354478,-19.68782 37.81753,-10.50086 68.9311,-19.32382 69.14126,-19.60654 C 213.52084,506.84116 220,480.49296 220,479.1318 220,478.55644 193,455.54712 160,428 c -33,-27.54712 -60,-50.45982 -60,-50.9171 0,-0.45728 2.925,-0.39868 6.5,0.1302 3.575,0.5289 38.82738,5.86994 78.33863,11.86896 39.51125,5.99902 72.04657,10.6847 72.30071,10.41262 0.25416,-0.27208 4.12396,-5.38346 8.59958,-11.35862 l 8.13748,-10.86394 -3.71752,-6.13606 C 268.11426,367.76124 249.13964,334.4 227.99308,297 c -21.14656,-37.4 -38.96202,-68.85788 -39.5899,-69.90642 -0.62789,-1.04852 3.29954,0.65962 8.72761,3.79588 22.92933,13.24822 117.04323,68.36212 130.53751,76.44388 l 14.6683,8.78488 7.0267,-4.34276 c 7.0135,-4.33458 7.02422,-4.36384 5.702,-15.5591 -0.7286,-6.169 -5.81654,-46.1734 -11.30656,-88.89866 -5.49,-42.72526 -9.70662,-79.0537 -9.37028,-80.72987 0.33634,-1.67617 25.33822,30.80586 55.5597,72.18229 C 438.3497,265.03696 445.5286,274 450.20328,274 c 6.20088,0 8.77716,-2.71612 10.43366,-11 6.1331,-30.67058 37.71042,-178.014024 38.27038,-178.57398 1.14692,-1.14693 1.793,1.55062 23.1185,96.52497 11.10864,49.47305 21.27228,90.63427 22.58586,91.46937 7.8967,5.02036 10.1541,2.50944 67.1144,-74.65124 C 642.67674,155.84213 668,123.21907 668,125.27343 c 0,2.05436 -4.87796,38.83326 -10.8399,81.73089 C 651.19816,249.90194 645.74484,289.95 645.04162,296 l -1.2786,11 8.08018,4.53768 8.0802,4.53768 75.23876,-44.17056 c 41.38132,-24.2938 75.60686,-43.80244 76.05678,-43.35252 0.44992,0.44992 -17.99998,34.01332 -40.99978,74.58534 l -41.81784,73.7673 6.20324,8.63786 c 3.41178,4.75082 7.23414,9.49342 8.4941,10.5391 1.48112,1.22922 29.07286,-1.93788 78.05972,-8.96002 41.67288,-5.9737 76.06632,-10.56382 76.4299,-10.20026 0.36356,0.36356 -24.82008,22.0358 -55.96364,48.16052 -31.14354,26.12472 -57.45296,48.24194 -58.46534,49.14938 -1.10788,0.99304 -0.38008,8.04502 1.82806,17.71312 l 3.66874,16.06324 12.17196,3.5935 c 6.69456,1.97642 37.14114,10.74964 67.65906,19.49606 30.51792,8.74642 55.49292,16.3892 55.5,16.98394 0.008,0.59476 -29.54916,9.89906 -65.68054,20.67622 l -65.6934,19.59486 -3.19852,19.32378 c -9.78508,59.11636 -36.2231,111.666 -78.6474,156.32378 l -8.54988,9 17.9971,44 c 12.69512,31.03748 17.46046,44.8838 16.17546,47 -3.2827,5.40612 -28.52602,23.4475 -47.1426,33.69276 -19.71712,10.85092 -44.75408,21.46716 -46.50294,19.7183 -0.5958,-0.5958 -9.48012,-43.23202 -19.7429,-94.74716 L 604.34186,729 621.701,711 c 35.16342,-36.46158 30.43626,-27.66594 46.2265,-86.01144 7.73842,-28.5937 14.07046,-52.66638 14.07118,-53.49482 7.2e-4,-0.82844 -27.93274,12.46642 -62.07436,29.54412 l -62.07568,31.05036 -15.42432,-6.88006 c -8.48338,-3.78402 -36.08266,-16.40388 -61.33174,-28.0441 L 435.18518,576 H 403.59258 372 v -7 -7 h 52 52 v -34 -34 h -84 -84 l 0.0252,57.5 0.0252,57.5 44.97472,58.3777 c 24.7361,32.10774 44.9693,59.55774 44.96268,61 -0.006,1.44226 -4.54762,23.7723 -10.09112,49.6223 -5.54348,25.85 -14.10798,66.35 -19.0322,90 -9.88558,47.47822 -10.5291,50.04696 -12.49942,49.89404 -0.75086,-0.0584 -9.01522,-3.47234 -18.36522,-7.58678 z M 522,458.95586 V 361.91174 L 484.5,362.45586 447,363 l -0.52966,59.43204 -0.52966,59.43204 21.52966,0.56796 L 489,483 l 0.54512,36.5 0.54512,36.5 H 506.04512 522 Z M 607.52244,473.5 608.04486,392 H 572.02244 536 l 0.0272,77.5 c 0.016,42.625 0.57544,79.54578 1.24534,82.04618 1.21414,4.53166 1.3274,4.54442 35.4727,4 L 607,555 Z M 684,484 v -72 h -32 -32 v 70.66666 c 0,38.86668 0.6,71.26668 1.33334,72 0.73332,0.73334 15.13332,1.33334 32,1.33334 H 684 Z M 434,437 v -45 h -39 -39 v 45 45 h 39 39 z"
     id="path1712" />
</svg>
