<svg
   version="1.1"
   id="svg2"
   width="1000"
   height="1000"
   viewBox="0 0 1000 1000"
   xmlns="http://www.w3.org/2000/svg">
  <path
     style="fill:#0283b7;stroke-width:2"
     d="M 417.06072,933.59564 C 395.83274,908.98666 366.48544,858.579 327.05528,779 278.3376,680.67672 230,566.25324 230,549.25334 c 0,-3.28562 4.76166,-7.5489 19.3295,-17.30644 34.88074,-23.36314 51.85014,-44.47632 59.43368,-73.9469 2.23112,-8.67042 3.14558,-10.15288 4.31796,-7 11.5033,30.93586 22.88028,53.80736 35.81018,71.99044 l 7.10416,9.99042 -5.21264,1.39408 c -13.01768,3.48146 -17.4123,14.6807 -17.1571,43.72312 0.20254,23.0493 8.78292,96.88402 15.48532,133.2519 13.42502,72.84574 39.62962,153.28766 70.18312,215.44568 3.72966,7.58762 6.4212,14.15564 5.9812,14.59564 -0.43998,0.43998 -4.13658,-3.06806 -8.21466,-7.79564 z m 155.02456,7.8644 c -0.047,-0.84698 3.86046,-9.39698 8.68304,-19 19.7701,-39.36752 43.53816,-106.02438 57.1439,-160.25856 17.3947,-69.33742 31.16684,-181.98576 25.5082,-208.6426 C 661.34842,543.79808 653.0335,534 646.82222,534 644.17,534 642,533.55778 642,533.0173 c 0,-0.54048 3.05974,-4.99116 6.79942,-9.8904 9.88652,-12.95206 21.69848,-35.32914 30.44232,-57.67126 l 7.64892,-19.54438 2.52152,11.10258 c 6.27006,27.60782 26.5969,52.80712 61.082,75.72376 9.6218,6.39406 17.91034,12.2989 18.41898,13.1219 1.43172,2.31658 -15.30364,49.9807 -29.6199,84.36066 C 695.90178,734.42322 636.57816,852.66558 600.93118,906 c -12.37324,18.51262 -28.6747,38.55188 -28.8459,35.46004 z M 156.43026,619.638 C 132.32805,554.89724 110,451.32208 110,404.25772 V 388.7203 l 17.93764,-2.38824 c 56.78348,-7.5602 130.01252,-39.6534 164.69128,-72.1772 l 7.6289,-7.15486 -1.6289,18 c -0.8959,9.9 -1.50696,27.7367 -1.35788,39.63712 l 0.27102,21.6371 -7.68074,-1.29764 c -15.26964,-2.5798 -40.9612,5.93968 -62.33134,20.66946 -18.76194,12.93202 -40.59728,41.1994 -52.02801,67.35396 -15.26334,34.92388 -21.28767,89.04068 -15.32462,137.66162 1.19135,9.71388 1.72672,18.10098 1.1897,18.638 -0.53701,0.537 -2.75857,-3.81072 -4.93679,-9.66162 z M 836.91382,624 c 2.83434,-17.5796 3.5378,-74.85712 1.1366,-92.5451 -7.91448,-58.3002 -33.87078,-104.6214 -72.6812,-129.7058 -18.14554,-11.72802 -31.96822,-16.34802 -49.55608,-16.56326 l -15.18684,-0.1858 0.1868,-22 c 0.1028,-12.1 -0.53616,-29.88808 -1.41984,-39.52908 l -1.60668,-17.52908 9.18746,8.92918 c 31.76448,30.87154 113.0782,65.63556 168.59378,72.07882 l 12.43214,1.4429 v 17.73486 c 0,41.7694 -17.95044,129.4538 -39.75724,194.20642 -8.77994,26.07094 -13.20814,35.3214 -11.32894,23.66598 z M 470,534.98546 C 403.63566,518.80886 354.2826,448.14588 350.57884,364 c -1.396,-31.71594 1.6378,-54.88026 10.8173,-82.59464 17.55132,-52.99028 53.25804,-92.2429 98.36836,-108.13692 14.98836,-5.28095 19.97346,-6.07351 38.2355,-6.07892 23.99426,-0.007 37.57546,3.28216 58.25532,14.10903 61.00514,31.93903 98.54952,112.49233 90.1203,193.35753 -5.46832,52.4599 -25.59152,95.40652 -59.57448,127.14286 -16.65238,15.55148 -38.8802,27.90126 -59.72134,33.18118 -14.44298,3.659 -42.08004,3.66158 -57.0798,0.006 z m 53.58432,-92.14562 c 29.23002,-5.99204 57.92488,-20.15262 76.0761,-37.54262 20.01582,-19.17644 19.31902,-31.19146 -2.9606,-51.04896 -26.43856,-23.5643 -76.46552,-40.82286 -107.4771,-37.078 -35.82466,4.32606 -75.34966,22.72166 -95.80364,44.58862 -10.48946,11.21408 -12.9112,17.8104 -9.53302,25.96606 6.17968,14.91906 41.37684,39.70472 69.84762,49.18638 29.02256,9.66538 45.00464,11.02186 69.85064,5.92852 z m -36.0016,-36.81666 c -9.38184,-2.8281 -17.00898,-9.67474 -20.5016,-18.40366 -4.155,-10.38434 -2.791,-19.28054 4.2367,-27.63248 C 478.59186,351.34232 486.15202,348 498.43188,348 518.50766,348 532,360.17474 532,378.29 c 0,8.25532 -1.03074,10.8394 -6.92694,17.36578 -9.6532,10.68492 -23.62224,14.54786 -37.49034,10.3674 z M 46.664974,300 c 5.736318,-44.9968 40.653644,-112.54154 89.949476,-174 17.23336,-21.48529 52.65577,-60 55.18268,-60 0.77319,0 3.27647,3.85038 5.56283,8.5564 6.34818,13.066458 26.98102,39.43304 41.44814,52.96632 33.3801,31.22545 67.75946,45.64269 105.2489,44.13691 l 19.26758,-0.77388 -8.26376,10.14566 c -13.70284,16.82339 -27.53284,40.63853 -36.37454,62.63663 l -8.36282,20.80664 -3.97762,-7.79678 C 288.96802,222.61456 245.30866,195.31626 204,192.68552 148.11293,189.12635 98.062266,222.68218 55.866116,292 l -10.348488,17 z m 896.330786,-7.3858 c -14.41826,-23.84214 -27.10932,-40.11448 -44.3247,-56.8326 -24.1825,-23.484 -47.4141,-36.59923 -74.10738,-41.8368 -17.1086,-3.35693 -44.50288,-1.59925 -60.56368,3.8859 -28.76336,9.82338 -57.2387,32.24954 -70.27244,55.34404 l -6.35092,11.25324 -5.3847,-14.714 C 672.3532,223.37554 651.62458,187.52009 639.90514,176.91416 637.75732,174.9704 636,172.71913 636,171.91135 c 0,-0.80779 7.425,-1.03191 16.5,-0.49804 50.42322,2.9663 104.04106,-29.06958 139.60726,-83.41331 5.39936,-8.25 10.96896,-16.656564 12.3769,-18.681252 2.34814,-3.376736 4.13906,-2.053208 21.65008,16 C 873.7792,134.43888 920.61852,204.20188 938.7165,253 c 5.86732,15.8202 15.85188,53.09828 14.56622,54.38396 -0.46446,0.46444 -5.0936,-6.18194 -10.28696,-14.76976 z M 399.18344,129.21893 c 0.58486,-6.72041 1.36304,-13.75364 1.72932,-15.62939 1.29886,-6.65182 -2.7034,-33.093808 -6.75304,-44.615748 -2.26,-6.430102 -3.78286,-12.01731 -3.38416,-12.41602 1.83488,-1.834868 26.70208,14.961388 38.52536,26.021494 11.28798,10.559334 30.426,34.924054 28.37828,36.128504 -0.37356,0.21972 -6.9792,1.97314 -14.6792,3.89648 -7.7,1.92334 -20.94798,6.94773 -29.43996,11.1653 l -15.43996,7.66831 z m 182.10828,2.88038 c -8.63956,-4.15821 -20.78956,-8.73091 -27,-10.16154 -6.21044,-1.43064 -11.96494,-2.95391 -12.78776,-3.38505 -2.37254,-1.24316 12.98312,-22.529844 24.6337,-34.148276 10.23306,-10.204818 39.03864,-29.894818 40.94534,-27.988112 0.51004,0.510048 -1.05422,6.250028 -3.47614,12.755514 -3.7804,10.154474 -4.41788,16.002394 -4.50518,41.328154 -0.056,16.225 -0.55168,29.42343 -1.10168,29.32984 -0.55,-0.0936 -8.06872,-3.57232 -16.70828,-7.73053 z"
     id="path2172" />
</svg>
