<svg
   height="1000"
   width="1000"
   version="1.1"
   id="svg4"
   xmlns="http://www.w3.org/2000/svg">
  <path
     d="M 438.56775,0 C 491.59002,142.09968 464.01844,219.5122 404.63349,281.01803 339.94632,348.88653 239.20401,399.78791 168.15415,499.46978 73.774512,632.02545 57.867832,923.64793 398.27081,1000 255.11069,924.70838 224.35777,706.25663 379.1828,569.45917 c -40.29693,132.55568 33.93426,217.39131 126.19301,186.63839 90.13786,-30.75292 149.52281,33.93425 147.40192,108.16543 -1.06045,50.90138 -21.20891,94.37961 -73.17075,118.76991 221.63311,-39.23651 310.71052,-222.69356 310.71052,-362.67235 0,-184.5175 -164.36904,-209.96819 -81.65429,-364.79321 -98.62143,8.48356 -132.55569,73.17073 -123.01168,179.21527 6.36268,69.98939 -66.80806,117.70944 -120.89078,85.89608 C 521.28249,494.16755 522.34293,443.26617 560.51897,405.09014 642.17327,324.49629 673.98663,138.91835 438.56775,0 Z"
     id="path2"
     style="stroke-width:1.06045" />
</svg>
