<svg
   width="100mm"
   height="100mm"
   viewBox="0 0 100 100"
   version="1.1"
   id="svg5"
   xmlns="http://www.w3.org/2000/svg"
>
    <path
       id="path846"
       style="fill:#000000;stroke-width:0.447001;stroke-linejoin:round;stroke-dasharray:0.894002, 2.682"
       d="M 188.97656,188.97656 A 188.97638,188.97638 0 0 0 0,377.95312 188.97638,188.97638 0 0 0 188.97656,566.92969 188.97638,188.97638 0 0 0 377.95312,377.95312 188.97638,188.97638 0 0 0 188.97656,188.97656 Z m -10.79687,42.51172 A 146.46526,146.46526 0 0 1 324.64453,377.95312 146.46526,146.46526 0 0 1 178.17969,524.41797 146.46526,146.46526 0 0 1 31.714844,377.95312 146.46526,146.46526 0 0 1 178.17969,231.48828 Z"
       transform="scale(0.26458333)" />
</svg>
