<svg
   version="1.1"
   id="svg2"
   width="1000"
   height="1000"
   viewBox="0 0 1000 1000"
   xmlns="http://www.w3.org/2000/svg">
  <path
     style="fill:#000000;stroke-width:2"
     d="m 378.66038,913.7582 c 15.46996,-26.40276 15.03218,-72.7903 -1.14782,-121.62682 -14.10662,-42.5783 -65.15496,-100.16854 -84.48878,-95.31606 -4.27844,1.07382 -4.73408,0.0674 -8.7557,-19.34128 -11.50632,-55.5303 -14.78202,-123.324 -7.59664,-157.2196 12.26918,-57.87736 38.4053,-91.14542 93.98082,-119.626 24.45338,-12.53154 40.1695,-28.23262 51.09578,-51.04692 4.3677,-9.11984 9.04022,-20.36178 10.3834,-24.9821 1.34318,-4.62032 5.01308,-10.8637 8.15534,-13.87418 l 5.71322,-5.4736 -0.0348,23.87418 c -0.0398,27.37002 -2.52118,40.93744 -13.863,75.79944 C 426.10594,423.3565 424,433.12296 424,442.50002 v 12.67036 l -9.2102,2.46336 c -31.20844,8.34698 -54.19664,43.95604 -60.85328,94.2626 l -2.23576,16.89634 7.97692,6.62608 c 7.16428,5.95106 21.79188,24.23636 31.30404,39.13178 l 3.54456,5.55054 -5.39334,-2.05054 C 378.98962,614.19406 372.05178,615.54822 364.8,622.8 c -5.54324,5.54324 -6.8,8.33024 -6.8,15.07968 0,15.78664 14.20006,34.85572 31.82122,42.7323 8.92906,3.99124 25.43434,5.5369 36.17878,3.38802 4.41586,-0.88318 5.62954,0.28512 10.38848,10 11.30036,23.06854 14.58476,39.96832 14.57592,75 -0.008,35.12888 -2.19628,47.23882 -13.54714,75 -12.69278,31.04318 -32.16236,56.68824 -54.92968,72.35254 l -8.95882,6.16384 z M 620,916.88574 C 597.28504,900.92652 576.89204,874.1053 564.58274,844 553.034,815.75486 550.99826,804.25554 551.12832,768 c 0.108,-30.1301 0.59742,-34.5654 5.62656,-51 3.02948,-9.9 7.50366,-21.6 9.9426,-26 3.70838,-6.69012 5.24234,-7.83626 9.36848,-7 10.62756,2.15392 27.191,0.59998 36.11282,-3.38802 11.0722,-4.94922 22.2826,-15.7554 28.02806,-27.01742 11.29904,-22.14796 -5.4163,-43.87932 -27.33978,-35.54402 l -5.39334,2.05054 3.54456,-5.55054 c 9.51216,-14.89542 24.13976,-33.18072 31.30404,-39.13178 l 7.97692,-6.62608 -2.23576,-16.89634 c -6.65664,-50.30656 -29.64484,-85.91562 -60.85328,-94.2626 L 578,455.17038 v -12.67036 c 0,-9.37706 -2.10594,-19.14352 -8.10228,-37.57476 -11.34182,-34.862 -13.82318,-48.42942 -13.863,-75.79944 L 556,305.25164 l 5.71322,5.4736 c 3.14226,3.01048 6.81216,9.25386 8.15534,13.87418 1.34318,4.62032 6.0157,15.86226 10.3834,24.9821 10.92628,22.8143 26.6424,38.51538 51.09578,51.04692 33.9958,17.4217 58.59552,38.5855 73.64388,63.35776 8.0269,13.21372 17.92056,41.65218 20.87862,60.0138 6.76346,41.98298 3.4888,98.60142 -9.16532,158.46726 -3.04098,14.38666 -3.58282,15.3886 -7.7557,14.34128 -19.44532,-4.88046 -71.28824,53.86174 -84.8214,96.10948 -15.78572,49.2798 -16.13914,94.64042 -0.93952,120.58198 2.73918,4.675 4.71738,8.45586 4.396,8.40192 -0.32136,-0.054 -3.7343,-2.31122 -7.5843,-5.01618 z M 240.50204,875.96214 C 240.76136,815.50902 229.6944,792.05326 169.18152,724.8025 137.37692,689.45658 121.60133,665.6539 90.219702,605.66264 70.549842,568.06038 63.6379,557.99722 57.487456,558.00748 c -7.668414,0.012 -17.057218,7.38088 -23.272768,18.2639 l -5.960728,10.43684 -1.444368,-5.75482 c -1.802592,-7.1821 2.18742,-27.10472 7.57953,-37.84552 2.23868,-4.45934 10.864576,-19.23526 19.168658,-32.8354 C 71.087446,481.563 85.749584,446.74074 107.14669,383 121.98897,338.7857 136,288.17816 136,278.78248 c 0,-2.775 -0.94678,-6.81452 -2.10396,-8.97672 C 130.54511,263.54448 115.93401,254 109.69992,254 c -13.767692,0 -2.31937,-13.92546 22.11729,-26.90292 13.67493,-7.26228 24.68077,-15.59656 45.6039,-34.534 15.16839,-13.72885 34.83899,-30.66783 43.71247,-37.64219 27.82366,-21.86882 77.5075,-49.4636 107.75402,-59.8474 18.1234,-6.221866 17.8929,-6.318326 25.31102,10.59232 5.13766,11.71205 4.99714,13.43453 -3.5759,43.83419 l -7.4733,26.5 h -6.78602 c -24.2595,0 -61.7194,19.01475 -91.88846,46.64284 C 214.99668,249.6383 172,312.34766 172,328.34534 c 0,3.82852 -2.63113,16.34204 -5.84695,27.8078 -13.90312,49.57056 -18.06565,77.03024 -18.11641,119.51164 -0.0359,30.00346 -0.17266,30.97392 -6.34429,45 -6.10767,13.88072 -6.23643,14.75308 -4.0613,27.51488 3.34861,19.64672 29.09489,86.62132 42.71198,111.10798 6.51039,11.70718 23.51973,38.77528 37.79853,60.1513 41.66282,62.37114 47.0649,75.67088 45.27698,111.47036 -1.17996,23.62628 -4.77338,40.03312 -12.28496,56.0907 -10.13386,21.66324 -10.76898,21.00386 -10.63154,-11.03786 z m 514.64684,19.47232 C 744.4863,877.24016 738,849.91366 738,823.18706 c 0,-29.61214 7.13624,-45.77562 45.7111,-103.53484 14.19776,-21.25872 30.99546,-47.89536 37.3282,-59.19254 13.42212,-23.94416 40.0093,-92.80074 43.3102,-112.1666 2.1986,-12.89878 2.0787,-13.7183 -4.04184,-27.6283 -6.17164,-14.02608 -6.30846,-14.99654 -6.3443,-45 -0.0456,-38.17518 -3.47888,-62.7709 -14.9662,-107.2168 C 834.04872,349.30186 830,330.69658 830,327.10294 c 0,-4.48188 -4.04364,-13.2666 -12.87546,-27.97172 C 786.1941,247.63156 749.55348,209.63836 712.01826,190.14494 696.07958,181.8674 676.8402,176 665.6366,176 h -6.78602 l -7.4733,-26.5 c -8.57304,-30.39966 -8.71356,-32.12214 -3.5759,-43.83419 7.41812,-16.910646 7.18762,-16.814186 25.31102,-10.59232 30.59064,10.50194 79.57858,37.70307 107.6844,59.79303 8.91176,7.00426 28.6137,23.96771 43.7821,37.69656 20.92312,18.93744 31.92896,27.27172 45.6039,34.534 C 894.08638,239.79144 906.06766,254 892.86852,254 881.31712,254 866,267.28638 866,277.3063 c 0,18.05606 31.6447,120.12794 55.48378,178.96618 7.20362,17.7796 17.78796,38.98092 26.95844,54 8.30408,13.60014 16.92998,28.37606 19.16866,32.8354 5.3921,10.7408 9.38212,30.66342 7.57952,37.84552 l -1.44436,5.75482 -5.96072,-10.43684 c -6.18968,-10.83772 -15.59984,-18.25102 -23.18354,-18.2639 -6.24028,-0.01 -11.31014,7.49298 -35.12912,51.99252 -33.23378,62.08864 -44.77532,79.37404 -76.65418,114.8025 -60.37972,67.10276 -71.57762,90.76224 -71.3243,150.6975 0.0662,15.675 -0.20492,28.5 -0.60256,28.5 -0.39766,0 -2.98188,-3.85448 -5.74274,-8.56554 z M 471.40826,560.84454 c -1.5391,-14.91256 -8.64134,-28.93266 -23.80554,-46.99312 -11.4529,-13.6403 -12.47802,-15.65616 -13.22696,-26.01012 -1.21684,-16.82272 4.5749,-49.0756 17.1238,-95.35848 9.60826,-35.43722 11.26588,-44.1061 11.37394,-59.48282 0.1282,-18.25386 -3.70562,-35.91146 -9.52364,-43.8625 -2.73248,-3.73424 -3.1639,-3.61468 -12.99342,3.60084 -18.70494,13.7307 -40.68728,41.57922 -48.8606,61.89948 -2.29236,5.6992 -4.80614,11.10662 -5.5862,12.0165 -0.78004,0.90986 -5.43716,-5.84014 -10.34912,-15 -4.91198,-9.15988 -14.1852,-25.96552 -20.60718,-37.34586 -10.6191,-18.81808 -11.42918,-21.08162 -8.94688,-25 6.47464,-10.22046 8.09286,-16.24722 13.7907,-51.36086 3.30682,-20.37882 10.6383,-57.72882 16.29212,-83 9.38112,-41.93111 10.87132,-46.67124 17.04744,-54.22589 l 6.76772,-8.278288 22.54778,-1.289224 c 36.35098,-2.078454 41.32208,-3.008926 48.01244,-8.986758 l 6.04274,-5.399178 10.61586,10.615868 C 492.96198,93.222858 499.15082,98 500.8762,98 c 1.72538,0 7.80574,-4.5 13.5119,-10 5.70614,-5.5 10.74824,-10 11.20464,-10 0.45642,0 3.39732,2.160398 6.53536,4.800884 6.28166,5.285672 12.2951,6.344982 47.41968,8.353314 l 22.54778,1.289224 6.76772,8.278288 c 6.17612,7.55465 7.66632,12.29478 17.04744,54.22589 5.65382,25.27118 12.9853,62.62118 16.29212,83 5.69728,35.11022 7.31642,41.14104 13.78804,51.35658 2.48346,3.92018 1.58444,6.32896 -10.0772,27 -7.04216,12.4827 -16.50672,29.7283 -21.03234,38.32356 l -8.22844,15.62774 -4.4124,-11.62774 c -8.40988,-22.1621 -30.86634,-51.4058 -50.59694,-65.8894 -9.82952,-7.21552 -10.26094,-7.33508 -12.99342,-3.60084 -5.80312,7.93068 -9.65158,25.61724 -9.54414,43.8625 0.0886,15.04796 1.6401,23.57606 9.46022,52 15.41602,56.03294 22.20974,95.66738 18.75664,109.4257 -0.67682,2.69664 -6.68526,11.57902 -13.3521,19.73864 -14.89944,18.23558 -21.54906,31.4035 -23.48688,46.50986 L 529,572.24194 l -6.93724,-7.1673 c -6.27782,-6.48602 -7.00992,-8.45366 -7.7019,-20.70004 -0.61536,-10.89036 0.298,-16.61162 4.67778,-29.30094 5.02512,-14.55912 5.25886,-16.58858 3.04816,-26.46704 -2.80256,-12.52312 -13.19464,-27.30778 -19.87182,-28.27138 -5.83204,-0.8416 -12.7945,5.57998 -17.9564,16.56142 -6.90136,14.682 -7.1515,21.21556 -1.44528,37.748 8.47028,24.5406 6.74566,41.65088 -5.3354,52.93352 l -4.90216,4.57818 z M 303.2907,405.61524 c -2.12576,-7.93708 -1.35416,-24.08906 1.79696,-37.61524 3.29706,-14.15264 12.6878,-39.62516 15.17498,-41.16232 0.85288,-0.5271 2.5161,2.89378 3.69604,7.60198 3.02958,12.08848 12.03524,35.3205 14.2135,36.66676 3.16676,1.95716 1.99474,4.41732 -2.67218,5.6091 -7.32608,1.87082 -19.25378,12.99504 -25.31728,23.61184 -5.14582,9.00996 -5.7674,9.48688 -6.89202,5.28788 z M 693.50436,403.213 c -4.94532,-10.37044 -16.88274,-22.7293 -24.6763,-25.5475 -6.8685,-2.48368 -8.38202,-4.46904 -5.00024,-6.55908 2.17826,-1.34626 11.18392,-24.57828 14.2135,-36.66676 1.17994,-4.7082 2.84316,-8.12908 3.69604,-7.60198 2.48718,1.53716 11.87792,27.00968 15.17498,41.16232 3.15946,13.562 3.83114,32.4016 1.3771,38.62494 -1.2029,3.05046 -1.96122,2.50976 -4.78508,-3.41194 z"
     id="path2402" />
</svg>
