<svg
   version="1.1"
   id="svg2"
   width="1000"
   height="1000"
   viewBox="0 0 1000 1000"
   xmlns="http://www.w3.org/2000/svg">
  <path
     style="fill:#000000;stroke-width:2"
     d="m 483.48186,873.5 c -0.90732,-29.85238 -2.12414,-37.62774 -7.9245,-50.63676 -1.11044,-2.49048 -1.15012,-13.63342 -0.0998,-28 C 477.17202,771.416 476.81856,762 474.22402,762 c -0.72032,0 -7.3137,4.37716 -14.65194,9.72702 -7.33824,5.34986 -16.18832,10.29622 -19.66684,10.99194 -3.4785,0.6957 -12.30522,5.47226 -19.6149,10.6146 C 395.64464,810.67168 393.45186,812 389.47602,812 c -3.32634,0 -3.55786,-0.49152 -1.4359,-3.04834 4.8255,-5.81438 0.0844,-5.4038 -11.21082,0.97086 -6.70004,3.78128 -12.97478,5.98294 -15.3105,5.37214 -3.86062,-1.00956 -23.40564,9.98136 -23.48286,13.20534 -0.0434,1.80908 5.86718,2.35626 17.96406,1.66308 10.8716,-0.62296 11.98436,-1.8772 -21,23.67026 -18.12584,14.03906 -27.62994,20.14222 -31.38196,20.15226 -7.0477,0.018 -8.8738,-3.28304 -4.4929,-8.12388 5.26724,-5.82024 2.5919,-6.39632 -7.98228,-1.71886 -5.21142,2.30526 -9.89496,3.7717 -10.40788,3.25878 -2.93014,-2.93012 73.37488,-66.13614 90.26502,-74.76956 18.26788,-9.33766 37.10888,-24.84304 47.42942,-39.03248 12.4295,-17.08904 15.91632,-19.19116 22.82212,-13.75906 l 5.13836,4.04184 7.86466,-4.01224 c 5.60438,-2.85916 7.41644,-4.81182 6.30506,-6.79432 -0.8578,-1.53014 -9.04938,-10.94816 -18.20354,-20.92894 C 430.8799,699.63438 424.3206,694 421.23028,694 c -5.03462,0 -13.18278,-7.84408 -17.92932,-17.2602 -1.73562,-3.4431 -7.68836,-9.51662 -13.22832,-13.49668 -10.05624,-7.22468 -11.91538,-10.60038 -7.99638,-14.51938 1.43502,-1.43502 -5.6502,-10.35988 -22.94096,-28.89746 -22.29546,-23.90318 -25.24964,-27.90944 -27.15354,-36.82374 -1.17496,-5.5014 -4.3643,-13.37754 -7.0874,-17.50254 -8.1677,-12.37252 -0.3928,-9.3688 14.62688,5.65088 11.1759,11.17588 13.43146,12.6495 15.01924,9.81232 1.56752,-2.80102 5.48928,0.23394 24.35684,18.84912 C 391.26598,612.01554 402.4009,622 403.64154,622 c 1.24066,0 8.5299,5.4 16.19832,12 13.58942,11.69606 18.6375,14.08172 21.16014,10 2.46894,-3.99484 4.88924,-1.82422 7.24766,6.5 1.32452,4.675 3.62628,9.51066 5.11502,10.74588 1.48874,1.23524 2.14824,3.7015 1.46554,5.48056 -0.85572,2.22998 2.96256,7.58904 12.29338,17.25412 7.44406,7.71068 14.287,14.01944 15.20652,14.01944 0.91954,0 1.67828,-3.375 1.6861,-7.5 0.0318,-16.80558 2.67112,-34.88854 5.23574,-35.87266 4.3625,-1.67406 14.75004,3.99376 14.75004,8.04812 0,2.03446 1.69482,4.14222 3.76624,4.68392 4.0902,1.0696 6.17356,9.2379 6.21174,24.3546 0.0254,10.08522 0.28874,10.07646 16.92094,-0.56302 6.00006,-3.8382 12.26908,-9.60826 13.93116,-12.82238 3.33898,-6.45686 6.94734,-8.48886 16.68024,-9.39324 8.39754,-0.7803 21.6306,-8.98774 52.13008,-32.33218 18.57856,-14.22014 25.27324,-18.33468 27.21282,-16.72498 1.92344,1.59632 9.20418,-1.89858 28.8596,-13.85312 C 684.17076,597.23166 696,590.75706 696,591.63708 c 0,0.88 -4.95,5.87354 -11,11.09672 -12.556,10.84006 -14.36678,16.21434 -5,14.83958 3.3,-0.48434 6,-0.61936 6,-0.30008 0,1.52374 -44.23864,33.84368 -70.98182,51.85802 -27.35874,18.42898 -30.17332,20.8815 -32.17052,28.0323 -2.3318,8.3487 -8.39808,11.35914 -13.8208,6.85868 -2.16906,-1.80016 -7.92948,1.18326 -27.15838,14.0658 l -24.4054,16.3506 19.97862,19.9786 c 18.84948,18.8495 20.22958,19.82614 24.4192,17.28066 4.19174,-2.54676 5.45198,-1.64614 22.4864,16.06936 15.53408,16.1552 17.8978,19.50718 16.98264,24.08298 -0.90868,4.54338 2.379,9.37166 22.62878,33.23268 18.56534,21.8762 22.89348,28.05148 20.00198,28.53838 -2.02948,0.34176 -6.61064,-0.88898 -10.18036,-2.73496 -6.14064,-3.17544 -6.63294,-3.16138 -9.13536,0.2609 -1.45474,1.98948 -2.64498,4.3452 -2.64498,5.23496 0,3.15476 -4.15072,1.56066 -5.56444,-2.13706 -0.78956,-2.06514 -6.09458,-7.69014 -11.78894,-12.5 C 598.95226,856.93534 578.43152,838.15 559.045,820 c -19.38652,-18.15 -36.7775,-33 -38.64662,-33 -2.52112,0 -3.56592,2.05856 -4.0474,7.97464 -0.8068,9.91318 -3.7031,13.6216 -9.5019,12.1662 -4.37336,-1.09764 -4.47002,-0.69014 -5.7818,24.37142 -1.52268,29.09112 -1.98096,31.33256 -6.08414,29.75802 C 492.53068,860.32918 492,862.39986 492,872.91018 492,886.23478 488.35116,906 485.89132,906 c -0.78192,0 -1.86618,-14.625 -2.40946,-32.5 z M 483,637.15446 c -7.7,-1.50246 -16.7,-3.80222 -20,-5.11062 -3.3,-1.30838 -11.4,-3.25438 -18,-4.32444 -15.14388,-2.45528 -21.78438,-6.5039 -20.2557,-12.34958 C 426.05812,610.34574 417.31948,600 411.762,600 c -4.02818,0 -8.9584,-6.45466 -16.76978,-21.95504 -20.40204,-40.48438 -25.091,-91.99816 -11.0116,-120.97506 3.5331,-7.27148 17.0448,-27.29308 27.97494,-41.45316 4.73628,-6.1359 30.74986,-23.9988 35.73814,-24.54054 1.81846,-0.1974 4.6563,-0.84186 6.3063,-1.43194 27.67302,-9.89664 84.47354,-9.5307 104.58136,0.67376 1.96974,0.99962 4.27492,1.38884 5.1226,0.86494 0.8477,-0.5239 8.65774,3.7206 17.35566,9.43224 12.54016,8.23472 17.9982,13.49042 26.362,25.3848 25.3782,36.09092 27.45242,41.82674 27.4836,76 0.018,20.07904 -0.87612,28.1494 -4.54416,41 -7.66978,26.87044 -25.7183,60.86938 -30.68374,57.80058 -1.1013,-0.68064 -4.67382,1.32188 -7.93892,4.45004 -4.31504,4.13408 -5.63014,6.90848 -4.8147,10.15744 1.43236,5.70692 -4.60188,9.89216 -16.9237,11.73798 -4.95,0.74152 -16.46432,3.46924 -25.5874,6.06158 -21.24686,6.03736 -43.4016,7.4612 -61.4126,3.94684 z m -3.60384,-56.72552 C 485.77828,575.16488 494.6,569.69766 499,568.27958 c 7.07124,-2.279 9.04486,-2.12668 17,1.31188 4.95,2.1396 10.74078,5.83588 12.86842,8.21394 6.1494,6.87322 16.70082,12.60086 20.8104,11.29654 5.87556,-1.86484 18.27152,-15.22098 23.29736,-25.10194 10.43516,-20.51596 14.09526,-48.28438 8.72626,-66.2045 -1.7926,-5.98314 -1.74198,-8.338 0.23032,-10.71448 2.11134,-2.54402 1.53428,-3.97404 -3.50224,-8.67886 -5.53032,-5.16608 -10.39194,-16.66668 -10.41936,-24.6479 C 567.99584,449.2992 538.90114,422 534.16836,422 c -2.17766,0 -9.0622,5.80322 -16.01548,13.5 l -12.1959,13.5 -12.73226,-13.97268 c -11.7558,-12.9011 -13.1279,-13.82138 -17.89124,-12 -2.83744,1.08498 -10.88716,7.5178 -17.88824,14.29514 -11.2125,10.85418 -13.0385,13.70428 -15.3245,23.9192 -1.8373,8.20992 -4.3455,13.23174 -8.5883,17.1951 -4.91884,4.59488 -5.55318,6.1284 -3.539,8.55534 1.34974,1.62632 1.84114,4.54342 1.09202,6.48244 -8.69488,22.50558 -2.73792,56.3464 14.25526,80.98236 5.12118,7.42448 15.49298,15.44526 20.05544,15.5094 1.3179,0.018 7.6179,-4.27328 14,-9.53736 z m 18.21594,-30.57746 c -2.96334,-2.21198 -9.26334,-4.67676 -14,-5.47728 -7.40634,-1.2517 -9.52214,-2.81152 -15.1121,-11.14088 -10.85578,-16.17574 -9.00498,-31.9105 6.49614,-55.22752 7.904,-11.8893 10.47602,-14.26934 17.629,-16.31318 4.60618,-1.31612 9.49986,-3.24558 10.87486,-4.28768 1.59076,-1.20562 3.40924,-1.14938 5,0.1546 1.375,1.12714 6.2689,3.05692 10.87534,4.28842 7.19516,1.92356 9.63162,4.13522 17.2907,15.69554 13.99254,21.11976 16.65876,36.32548 9.10536,51.92872 -4.78242,9.87916 -9.52942,13.51142 -20.0685,15.35584 -4.01342,0.70238 -9.55536,3.0534 -12.31546,5.22448 -6.24828,4.9149 -8.96804,4.88022 -15.77534,-0.20108 z M 661.48252,516.5 c 1.84874,-14.01046 1.7726,-22.56872 -0.39148,-44 -1.15728,-11.46074 -1.00998,-16.5 0.4823,-16.5 1.18166,0 2.43606,1.9545 2.78756,4.34334 0.95424,6.48502 4.77832,6.5632 7.43392,0.152 1.2884,-3.11046 5.90878,-11.01938 10.2675,-17.57536 4.35872,-6.556 7.92782,-13.44816 7.93132,-15.31594 0.006,-2.91772 -0.85296,-3.0964 -6.09574,-1.26876 -5.76438,2.00948 -10.00988,1.11004 -7.34398,-1.55586 0.67132,-0.67132 7.302,-2.49536 14.73488,-4.05342 7.43286,-1.55806 15.22936,-4.3838 17.32556,-6.27942 12.24364,-11.07208 20.82378,-54.19584 11.1473,-56.02646 -2.35464,-0.44546 -3.859,1.85226 -5.5128,8.4201 -2.60268,10.33616 -5.4901,12.40438 -23.03022,16.49622 -6.63986,1.54898 -13.68588,4.27642 -15.65782,6.061 -6.07384,5.49676 -6.3517,1.25964 -0.67788,-10.33722 4.21172,-8.60848 8.25974,-13.10068 18.19184,-20.1881 15.99372,-11.41288 22.2218,-18.75232 25.00098,-29.46226 1.20028,-4.62542 3.02426,-11.17376 4.05328,-14.55186 3.33514,-10.94866 2.05758,-25.2043 -3.39274,-37.858 -4.55632,-10.57812 -7.6062,-23 -5.64706,-23 0.37992,0 4.85996,4.275 9.95564,9.5 12.06934,12.37566 18.5219,26.30876 20.91124,45.15394 1.06296,8.38374 3.20858,20.8913 4.76806,27.7946 5.0142,22.19614 5.59886,33.71814 2.33946,46.10388 -3.91068,14.86054 -7.56766,20.2595 -18.86784,27.85524 -17.68992,11.8908 -24.34102,20.79438 -18.31554,24.51834 2.43488,1.50484 15.55774,-10.0046 17.15884,-15.04918 0.67674,-2.13224 2.0698,-3.87682 3.09568,-3.87682 2.5077,0 2.35752,11.50756 -0.31266,23.95822 -1.7119,7.98232 -3.70694,11.31978 -9.32426,15.59846 -10.37698,7.90404 -16.71204,14.82426 -15.82838,17.29038 1.08668,3.0327 9.42342,1.68882 13.73628,-2.21428 5.22476,-4.72832 5.97688,-2.49266 1.52624,4.53666 -2.2295,3.52126 -10.35904,9.74102 -19.38586,14.83172 -21.08166,11.88912 -29.21108,18.46688 -35.89116,29.04058 -3.11024,4.9231 -6.33784,8.95272 -7.17246,8.95468 -0.8346,0.002 -0.8346,-5.17142 0,-11.49642 z M 346.6347,514.55 c -2.16258,-1.9525 -7.28092,-7.8013 -11.3741,-12.99736 -5.61978,-7.13398 -9.50126,-9.97752 -15.85136,-11.6125 -16.48766,-4.24512 -21.59052,-6.35092 -27.55838,-11.37254 -7.71494,-6.49168 -15.08584,-21.03916 -18.76198,-37.02928 L 270.20632,429 l 5.1895,6 C 284.29618,445.29046 298,452.07936 298,446.19816 c 0,-3.81986 -17.96144,-25.38668 -24.1645,-29.01498 -13.40342,-7.83998 -21.75,-17.27342 -24.91446,-28.15878 -2.81724,-9.69102 -2.73354,-12.4998 1.11018,-37.25284 7.9696,-51.32302 14.69924,-71.54872 26.90344,-80.85732 3.4939,-2.66492 7.59636,-7.16944 9.1166,-10.01004 2.70724,-5.0585 2.79632,-5.07756 4.33186,-0.92662 1.01818,2.7524 0.4978,5.8711 -1.48444,8.89636 -1.6787,2.56204 -5.2218,11.49416 -7.87354,19.84916 -4.62112,14.56014 -4.69318,15.62872 -1.73558,25.73392 1.69716,5.79864 3.29858,14.02174 3.5587,18.27354 0.31736,5.18712 1.72886,8.4334 4.29012,9.86676 2.09944,1.1749 7.9705,6.02116 13.0468,10.76944 5.0763,4.74828 9.68808,8.63324 10.2484,8.63324 0.56034,0 1.48834,-5.84978 2.06226,-12.9995 0.94762,-11.80536 5.3531,-23.00128 9.05026,-23 0.79964,2.8e-4 1.53602,3.87354 1.63638,8.60726 0.1276,6.01614 2.48048,12.71594 7.817,22.25854 6.44808,11.53024 7.78474,15.99266 8.60122,28.71498 l 0.96668,15.06318 -7.78368,-6.1595 c -4.28104,-3.38774 -12.39334,-7.49996 -18.02734,-9.1383 -16.76734,-4.87586 -22.34696,-8.69844 -27.57194,-18.88944 -3.95056,-7.70532 -5.11392,-8.78498 -6.28006,-5.82824 -0.78722,1.99592 -0.95914,9.511 -0.38206,16.70016 1.40304,17.47902 9.79494,34.16804 19.92886,39.63264 4.04086,2.179 7.83456,5.90436 8.43046,8.2786 1.6809,6.69728 18.08404,27.2271 25.95864,32.48934 7.41454,4.95476 13.15974,4.61206 13.15974,-0.78498 0,-1.74944 0.9,-2.62458 2,-1.94474 2.87102,1.77438 2.48028,10.06364 -1.1868,25.17754 -2.87868,11.86442 -2.89674,14.35566 -0.1812,25 1.65882,6.50236 2.77274,12.06996 2.47536,12.37246 -0.29736,0.30252 -2.31006,-1.04748 -4.47262,-3 z M 316.5,425.55902 c -5.98586,-2.88688 -5.7315,-5.23976 0.43892,-4.0602 5.58366,1.06738 11.4957,6.59708 6.80596,6.36582 -1.50968,-0.0744 -4.76988,-1.11198 -7.24488,-2.30562 z m 63.59924,-30.43946 c -1.82162,-2.1949 -1.6467,-4.91968 0.77338,-12.04786 4.78914,-14.10608 4.14958,-27.90908 -1.55178,-33.49076 -2.57352,-2.51952 -6.98024,-8.63204 -9.7927,-13.58338 C 363.18058,324.82268 358.59408,320.61952 344.43316,313 328.4957,304.42458 325.2272,297.25654 324.37,269 c -0.58872,-19.40642 0.0574,-24.78634 5.4813,-45.63516 C 333.23308,210.3655 336,196.09417 336,191.65077 336,180.08801 345.8146,161.0866 358.89874,147.31802 365.00444,140.89293 370,133.97104 370,131.93605 c 0,-2.03499 0.9,-4.25621 2,-4.93605 4.791,-2.961 1.83574,15.35165 -4.20464,26.05462 -3.43402,6.08475 -5.66692,12.39535 -5.00042,14.1322 0.66234,1.726 -0.1456,5.06531 -1.79536,7.42069 -3.44822,4.92303 -4.0579,23.67795 -0.95802,29.47015 1.12286,2.09808 2.93336,8.51708 4.02332,14.26444 1.93472,10.20176 8.21046,19.6579 13.04632,19.6579 1.32766,0 3.45682,-4.14164 4.73144,-9.20366 1.27464,-5.06202 5.97552,-16.53702 10.4464,-25.5 8.44114,-16.92235 29.70192,-51.97204 30.83712,-50.83685 0.35692,0.35693 -0.28094,4.67457 -1.4175,9.59474 -2.90636,12.58166 -1.08928,34.55097 3.42274,41.38235 l 3.67458,5.56342 1.81782,-7 c 8.14272,-31.35559 16.28024,-48.4026 34.13894,-71.51644 16.06912,-20.79767 18.00976,-24.11965 15.76912,-26.99357 -1.35014,-1.73172 1.31694,-8.88507 8.75804,-23.48999 5.88464,-11.55 10.70178,-19.593216 10.70472,-17.873814 0.002,1.7194 4.13194,11.1694 9.1755,21 5.04356,9.830598 10.97628,22.647114 13.18384,28.481154 2.20758,5.83403 8.43908,17.22373 13.84778,25.31043 13.46886,20.13762 26.00902,50.72568 27.3204,66.64019 0.98482,11.95128 1.2091,12.40022 4.64266,9.2929 6.65072,-6.01882 11.7141,-25.43492 10.53194,-40.38592 -0.7858,-9.93855 -0.31252,-14.45848 1.80722,-17.2586 2.65758,-3.51064 2.96676,-3.10122 4.14398,5.48764 1.86912,13.63671 9.74406,27.52647 24.43686,43.10162 8.53906,9.05186 14.1114,17.00248 16.18808,23.09724 1.74172,5.11166 4.13756,8.97034 5.32406,8.57484 1.18652,-0.3955 3.1704,-5.16252 4.40862,-10.59338 1.23824,-5.43086 3.21402,-11.6743 4.39062,-13.8743 1.17662,-2.2 2.75948,-7.74538 3.51746,-12.32307 1.72212,-10.4003 -5.22096,-37.62443 -12.22934,-47.95188 -3.6604,-5.39389 -4.29886,-7.77962 -2.62252,-9.7995 1.58662,-1.91175 1.60848,-3.80463 0.077,-6.66622 -1.17632,-2.198 -2.10884,-4.73053 -2.07224,-5.62785 0.1056,-2.58817 7.93346,7.5376 7.93346,10.26232 0,1.34786 4.53326,8.09921 10.07392,15.003 13.74238,17.12332 18.09254,26.40728 20.1411,42.98441 0.95962,7.76533 3.65024,22.21879 5.97918,32.11879 2.83766,12.06258 4.24618,24.73618 4.2701,38.42154 0.0486,27.79096 -3.7313,35.5174 -24.4643,50.00742 -14.7413,10.30252 -28.63564,26.17228 -35.02684,40.0068 -3.5497,7.68378 -3.87164,20.88046 -0.6609,27.09138 C 620.04864,395.62368 620.1287,396 616.7531,396 c -1.80444,0 -6.11922,-3.00962 -9.58842,-6.68804 -3.4692,-3.67842 -10.09474,-9.19422 -14.7234,-12.25732 l -8.41574,-5.56928 1.2626,-10.74268 C 586.12626,353.6116 585.82546,350 584.3934,350 c -1.18654,0 -2.72152,0.91286 -3.41106,2.02858 C 579.78892,353.95956 565.35314,362 563.07968,362 562.48586,362 562,361.16428 562,360.14286 c 0,-3.62202 6.29318,-8.06762 14.57876,-10.2987 23.45382,-6.31546 30.82366,-16.54836 25.57996,-35.5174 -1.41804,-5.12972 -3.69018,-14.5447 -5.04922,-20.92218 -1.35904,-6.37748 -4.42602,-14.02748 -6.81554,-17 -2.3895,-2.97252 -6.35816,-8.31844 -8.81926,-11.87982 -2.46108,-3.56138 -5.5997,-6.48638 -6.9747,-6.5 -3.1685,-0.0314 -3.13562,0.92972 0.25912,7.57456 5.52496,10.81448 5.74352,17.34768 0.8374,25.03198 -3.71684,5.82156 -5.8528,7.2156 -11.16076,7.28404 -3.61032,0.0466 -9.79524,1.43466 -13.74424,3.08466 -3.94902,1.65 -7.42254,3 -7.71896,3 -0.2964,0 -1.15662,-2.475 -1.91156,-5.5 -0.75496,-3.025 -2.87752,-7.20648 -4.71682,-9.2922 -2.66222,-3.01888 -2.79486,-3.9837 -0.65038,-4.73126 6.2573,-2.18132 16.4224,-13.4003 18.53728,-20.45916 4.54574,-15.1723 -2.84394,-41.189 -17.01542,-59.90594 -2.86862,-3.7887 -5.24756,-8.28871 -5.28654,-10 -0.1922,-8.44171 -20.63114,-30.86445 -33.21466,-36.43861 -4.55704,-2.01865 -8.80378,-5.02084 -9.43722,-6.67155 C 488.6438,149.35058 486.68664,148 484.928,148 c -3.98422,0 -2.2375,7.52332 2.7861,12 1.85158,1.65 5.99926,8.23176 9.21706,14.62614 5.38532,10.70161 5.63786,12.13301 3.17578,18 -1.47112,3.50562 -2.8551,8.95866 -3.0755,12.11788 -0.23106,3.31178 -2.0163,6.59908 -4.21608,7.76336 -2.09846,1.11064 -6.58624,4.628 -9.97288,7.81636 -3.38664,3.18838 -11.9195,9.59486 -18.96192,14.23664 -17.97092,11.84498 -24.12124,21.33908 -25.39984,39.20914 -0.80868,11.30224 -0.30966,15.19366 2.49782,19.4784 l 3.50836,5.35446 -7.55564,-1.2261 C 428.07444,295.939 418,287.15508 418,280.87006 c 0,-2.40986 1.35,-7.61256 3,-11.56158 6.48666,-15.52478 1.16058,-18.0591 -9.81182,-4.66874 -21.61146,26.37394 -26.15972,69.53578 -8.19022,77.72324 5.02322,2.28874 5.98542,5.11956 8.12136,23.89326 l 1.28066,11.25624 -12.69998,8.9342 c -16.99722,11.95722 -16.90784,11.91768 -19.60076,8.67288 z M 417,352 c -5.19808,-4.13092 -6.4682,-6 -4.07726,-6 4.53562,0 16.25188,5.59562 19.23016,9.18422 C 436.7615,360.73726 424.84278,358.23266 417,352 Z m 91,-40.55498 c 0,-1.40526 1.39004,-4.53956 3.089,-6.96516 3.64652,-5.20616 20.72156,-17.33596 22.25088,-15.80664 0.58232,0.58232 -0.002,4.27276 -1.29836,8.20094 C 528.83334,306.59506 508,319.22152 508,311.44502 Z"
     id="path2632" />
</svg>
