<svg
   version="1.1"
   id="svg2"
   width="1000"
   height="1000"
   viewBox="0 0 1000 1000"
   xmlns="http://www.w3.org/2000/svg">
  <path
     style="display:inline;fill:#000000;stroke-width:2"
     d="m 472,902.70192 c -26.93216,-5.23658 -53.78704,-20.75164 -81,-46.79668 -5.5,-5.26396 -23.5,-17.43532 -40,-27.04748 -36.50274,-21.26486 -55.41602,-33.86306 -72.15238,-48.06096 -12.4148,-10.5318 -12.76776,-10.68304 -15.03712,-6.44272 -1.61112,3.0104 -1.81214,8.37614 -0.65542,17.49408 2.17256,17.12542 1.95992,38.51462 -0.4253,42.77676 -1.5678,2.80152 -3.32258,1.18306 -10.41722,-9.6079 -5.55188,-8.4444 -11.53948,-14.7395 -17.14292,-18.02334 -17.88852,-10.48336 -41.71166,-40.1934 -58.60765,-73.09008 -19.3193,-37.6149 -30.31602,-80.31494 -34.83838,-135.27676 -7.30886,-88.8272 18.74866,-178.3099 72.47753,-248.89106 51.65074,-67.85124 130.07224,-119.96806 211.2998,-140.42416 31.42746,-7.9146 51.81198,-9.98044 85.49906,-8.66476 41.74426,1.63036 74.03962,9.26448 116.78606,27.60636 71.8326,30.82236 136.08928,86.00372 176.76444,151.79906 39.15504,63.33644 58.0539,143.6001 51.70816,219.60504 -4.50596,53.96928 -14.83758,93.87564 -34.4813,133.1857 -16.52624,33.07154 -40.66578,63.43716 -58.947,74.15066 -5.60344,3.28384 -11.59104,9.57894 -17.14292,18.02334 -7.09464,10.79096 -8.84942,12.40942 -10.41722,9.6079 -2.38522,-4.26214 -2.59786,-25.65134 -0.4253,-42.77676 1.16456,-9.17976 0.95838,-14.47868 -0.68272,-17.54508 -2.30426,-4.30556 -2.61288,-4.17122 -15.46184,6.72932 -17.1797,14.5746 -35.11354,26.54618 -71.70036,47.86298 -16.5,9.6135 -34.5,21.77694 -40,27.02988 -28.1162,26.85322 -54.0953,41.5979 -82.72094,46.94902 -20.06734,3.75128 -32.30694,3.71092 -52.27906,-0.1724 z M 393.17244,691.0175 c 2.69692,-4.11602 3.32912,-11.68098 3.63532,-43.5 0.3776,-39.24042 0.32626,-38.876 10.21436,-72.5175 0.92344,-3.14176 -0.45472,-4.858 -6.42322,-7.99892 C 387.12848,559.9123 352.02012,522.8115 342.08112,505.16232 330.24058,484.13648 321.02516,460.59324 316.96634,441 c -3.4981,-16.88644 -4.71564,-58.77638 -2.06364,-71 2.71388,-12.50872 -2.22774,-3.92066 -7.5653,13.14784 -8.00382,25.5946 -11.49744,47.58822 -12.68432,79.85216 -2.49598,67.85044 13.94584,130.8379 47.3924,181.55706 C 351.92004,659.53104 384.62658,696 388.1812,696 c 0.94962,0 3.19568,-2.24212 4.99124,-4.9825 z m 237.6004,-15.16284 C 660.81486,643.91982 680.78936,606.7773 693.07718,560 707.943,503.4087 707.07672,435.6155 690.8238,383.65812 685.3349,366.11116 680.40058,357.43136 683.0594,370 c 2.53986,12.00634 1.27414,54.54268 -2.11836,71.19002 -3.94028,19.33546 -13.16158,42.91088 -25.02216,63.9723 -12.71608,22.58056 -44.99282,54.61026 -67.36026,66.84466 -18.71584,10.2371 -18.37012,9.36966 -13.38238,33.57734 6.1552,29.8739 14.37982,51.48066 26.41936,69.40588 6.27242,9.33878 11.9859,16.98638 12.69664,16.9947 0.71072,0.008 8.12698,-7.2503 16.4806,-16.13024 z M 590.24312,546.83838 c 7.47828,-4.97156 20.23208,-16.18136 28.34182,-24.9107 66.96012,-72.0761 63.85048,-187.74444 -6.85658,-255.04234 C 590.0748,246.2758 567.15846,233.2151 538,224.86538 c -18.21262,-5.21532 -59.78738,-5.21532 -78,0 -70.89728,20.30192 -120.3031,79.90804 -128.03464,154.46862 -3.8482,37.1109 4.63498,77.05538 23.49866,110.6475 6.907,12.29986 14.77408,22.2247 28.53598,36 10.45,10.46018 21.85628,20.60378 25.34728,22.54136 l 6.3473,3.52286 8.5028,-15.52286 c 4.67652,-8.53758 13.07024,-22.12694 18.6527,-30.19858 18.92656,-27.36584 21.47492,-31.9096 22.59972,-40.29554 0.61776,-4.60578 2.34428,-8.84274 3.8367,-9.41542 4.28876,-1.64576 3.37856,-15.14522 -1.36442,-20.2362 -4.05496,-4.35248 -6.82234,-5.15198 -15.42208,-4.45538 -2.475,0.2005 -4.5,-0.61918 -4.5,-1.82148 0,-1.20232 -2.21314,-3.19438 -4.91808,-4.42684 -3.96212,-1.80526 -5.9444,-1.56834 -10.19826,1.2189 -4.5758,2.99818 -5.12774,4.43674 -4.13744,10.7837 C 430.336,447.86514 431.1881,458 430.455,458 c -2.31404,0 -16.07152,-8.25614 -18.81754,-11.29276 -5.26452,-5.82168 -15.31632,-32.7603 -17.94584,-48.09442 -2.24156,-13.07174 -2.1069,-14.49208 2.22174,-23.43386 C 401.39816,363.84888 430.09048,334.85078 453,317.48394 467.39782,306.5695 490.45232,294 496.07336,294 c 1.18866,0 5.48342,-2.64566 9.54392,-5.87924 4.0605,-3.23358 15.48272,-10.09464 25.38272,-15.24682 9.9,-5.15216 20.025,-11.2134 22.5,-13.46938 6.2091,-5.65968 5.65526,-3.12028 -2.5,11.46268 -9.49838,16.98468 -9.29922,17.9297 3.5,16.60858 8.48888,-0.8762 20.8971,-5.3709 36.03692,-13.05384 0.8453,-0.42896 -4.31136,7.84584 -11.45924,18.38844 -14.824,21.86434 -17.12914,27.99526 -12.3301,32.7943 3.02156,3.02156 5.32518,2.9387 30.7593,-1.1063 C 631.956,319.01968 642,317.73002 642,318.78544 c 0,0.458 -4.76004,3.51912 -10.57788,6.8025 -9.83728,5.55182 -18.12136,14.04482 -29.1483,29.88342 l -4.5054,6.47134 6.09854,8.86394 c 4.33926,6.30688 9.6574,10.6423 18.43524,15.02864 6.78518,3.3906 13.76794,6.2397 15.51724,6.33134 1.74932,0.0916 -2.0022,1.42254 -8.33666,2.95756 -19.77488,4.79196 -37.04014,16.2483 -46.86802,31.09922 -4.82334,7.28856 -5.22118,9.8697 -6.82156,44.25828 -0.93472,20.08508 -2.59114,42.81832 -3.68092,50.51832 -1.08976,7.7 -2.01086,19.27128 -2.04684,25.71398 -0.077,13.77392 -0.3516,13.77222 20.17768,0.1244 z M 319.19118,225.5123 C 312.87378,202.6011 308.69758,186 309.2514,186 c 1.0499,0 34.76584,26.66868 34.2211,27.06824 -10.3421,7.58606 -23.7291,14.44682 -24.28132,12.44406 z m 346.32,-5.42226 -11.4888,-7.34274 17.01532,-13.37365 C 680.39614,192.01814 688.38632,186 688.79368,186 c 0.40736,0 -1.40458,7.37878 -4.02652,16.39728 -2.62194,9.0185 -4.76716,17.9654 -4.76716,19.88196 0,5.83932 -2.52364,5.45802 -14.48882,-2.1892 z M 392.81866,161.00891 c 0.0998,-16.9349 0.78716,-30.16482 1.5276,-29.39982 4.85694,5.01803 35.67224,47.03907 34.99318,47.71815 -0.46174,0.46172 -7.477,2.70548 -15.58948,4.98612 -8.11248,2.28063 -16.18156,4.89804 -17.9313,5.81645 -2.84652,1.4941 -3.16224,-1.57056 -3,-29.1209 z m 210.65636,29.79944 c -0.6554,-0.6554 -8.59362,-3.34361 -17.64046,-5.97379 -9.04684,-2.63017 -16.80086,-5.13419 -17.23114,-5.56448 -0.63884,-0.63884 30.41764,-42.87053 35.05032,-47.66268 0.74044,-0.76593 1.39752,12.50907 1.4602,29.5 0.0627,16.99093 -0.0123,30.8926 -0.16668,30.8926 -0.1544,0 -0.81684,-0.53624 -1.47224,-1.19165 z M 472,169.61803 c 0,-0.76008 0.79378,-1.87255 1.76398,-2.47216 2.77544,-1.71532 13.97928,-30.83781 19.29056,-50.14256 2.65628,-9.65477 5.24652,-17.971044 5.75608,-18.480604 0.50956,-0.50956 1.93662,2.989374 3.17124,7.775414 5.8004,22.48539 17.06812,53.13702 23.41718,63.70188 0.33052,0.55 -11.54904,1 -26.39904,1 -14.85,0 -27,-0.62188 -27,-1.38197 z"
     id="path2862" />
</svg>
