<svg
   version="1.1"
   id="svg2"
   width="1000"
   height="1000"
   viewBox="0 0 1000 1000"
   xmlns="http://www.w3.org/2000/svg">
  <path
     style="fill:#fdf4d7;stroke-width:2"
     d="M 495.55258,923 C 494.86242,918.6 488.7004,866.4 481.8592,807 475.018,747.6 469.12734,698.65134 468.76886,698.2252 468.41036,697.79906 461.76438,702.64772 454,709 c -7.76438,6.35228 -14.40102,11.20094 -14.74808,10.7748 C 438.90484,719.34866 435.67624,711.8 432.07724,703 421.54736,677.25324 424.48132,678.71366 403.97604,689.01204 394.13318,693.95542 385.26564,698 384.27042,698 c -0.99524,0 -2.41652,-4.85824 -3.15842,-10.79612 -3.08794,-24.71504 3.1464,-27.299 -63.21894,26.20266 C 241.2345,775.20628 240.8374,775.51684 242.9741,772 c 1.00248,-1.65 23.6934,-36.1745 50.42428,-76.72112 C 320.12928,654.73226 342,620.8776 342,620.04628 c 0,-0.83132 -9.01372,-1.94554 -20.03048,-2.47602 -11.01676,-0.5305 -20.50026,-1.43432 -21.07444,-2.00852 -0.57418,-0.57418 2.58952,-9.30084 7.03048,-19.39256 C 312.3665,586.07744 316,577.15234 316,576.33558 c 0,-0.81674 -9,-4.43498 -20,-8.04052 -11,-3.60554 -20,-6.99874 -20,-7.54042 0,-0.54168 5.44122,-7.44902 12.09158,-15.34966 10.40944,-12.3664 11.59194,-14.55894 8.5,-15.76034 C 293.50026,528.4435 113.96077,506.25082 78.5,502.68658 71.625,501.99556 66,500.65838 66,499.71508 c 0,-0.9433 2.025,-1.7019 4.5,-1.6858 10.313378,0.067 222.64832,-24.72604 224.27638,-26.18748 0.9813,-0.88086 -2.82326,-7.0993 -8.5,-13.89308 C 280.62438,451.18454 276,444.91104 276,444.0076 c 0,-0.90346 8.55,-5.02666 19,-9.16268 10.45,-4.13604 19,-8.28614 19,-9.22246 0,-0.93632 -4.0145,-9.69574 -8.92112,-19.4654 -10.3165,-20.54136 -11.56698,-18.8192 15.42112,-21.2379 8.525,-0.764 15.5,-1.83744 15.5,-2.38542 0,-0.54796 -13.797,-19.56722 -30.65998,-42.26502 C 254.79492,272.2344 245.91492,260 247.07922,260 c 0.6115,0 29.59664,19.575 64.41142,43.5 34.81478,23.925 64.0218,43.8 64.90448,44.16666 C 377.2778,348.03334 378,338.86144 378,327.2847 c 0,-11.57674 0.675,-21.45342 1.5,-21.94814 0.825,-0.49474 10.2719,2.99876 20.99312,7.76332 22.45358,9.97848 19.87214,11.30544 28.40224,-14.59988 2.98822,-9.075 6.06354,-16.5 6.83404,-16.5 0.7705,0 7.36446,4.95 14.65326,11 7.2888,6.05 14.03798,11 14.99816,11 0.96018,0 7.83906,-49.725 15.2864,-110.5 C 493.2761,90.603588 497.27264,62.542414 497.7933,73.251688 c 0.40792,8.39057 26.26418,227.472472 26.92444,228.132732 0.3713,0.37128 6.8353,-4.23414 14.36444,-10.23428 7.52916,-6.00014 14.22526,-10.57816 14.88022,-10.17338 0.65496,0.4048 4.62908,9.24352 8.83136,19.64162 l 7.64054,18.90564 18.99962,-8.87858 c 10.44978,-4.88322 19.43022,-8.44798 19.9565,-7.92168 0.52628,0.52628 2.35592,10.02874 4.06588,21.11656 1.80022,11.67318 4.04242,20.12954 5.32634,20.08806 1.21956,-0.0394 27.39518,-16.63658 58.16806,-36.88262 30.7729,-20.24606 56.2664,-36.49532 56.65224,-36.10948 0.38586,0.38584 -16.91696,25.16088 -38.4507,55.05562 C 673.6185,355.88664 656,380.71814 656,381.173 c 0,0.45484 6.075,0.93348 13.5,1.06362 7.425,0.1302 15.95008,0.80516 18.94462,1.5 l 5.44462,1.26338 -8.84422,19.6013 c -5.98818,13.2715 -8.06932,19.88016 -6.44462,20.46482 1.31978,0.47492 10.73396,3.85124 20.92038,7.5029 l 18.52078,6.63938 -12.29602,14.60766 c -7.63526,9.07072 -11.46332,15.1223 -10.09922,15.96536 1.20824,0.74672 53.5321,7.59868 116.27524,15.22656 C 874.6647,492.63588 926,499.37388 926,499.98136 c 0,0.60746 -50.625,6.79428 -112.5,13.74848 -61.875,6.9542 -113.67204,12.9997 -115.10452,13.43442 -1.67808,0.50926 1.34536,5.67908 8.5,14.53426 6.10748,7.5591 11.10452,14.1549 11.10452,14.65732 0,0.50242 -8.55,4.3689 -19,8.59216 -10.45,4.22326 -19,8.71026 -19,9.97112 0,1.26086 3.63684,9.81302 8.08188,19.00478 4.44504,9.19178 7.37004,17.3381 6.5,18.10292 -0.87004,0.76484 -10.99486,2.90966 -22.4996,4.76628 -11.50474,1.85662 -21.16406,3.62202 -21.46516,3.92312 -0.30112,0.3011 16.96822,29.51314 38.37626,64.91562 C 710.40144,721.03432 727.42782,750 726.8298,750 c -0.59804,0 -24.64168,-19.35 -53.43032,-43 -28.78864,-23.65 -52.92128,-43 -53.6281,-43 -0.70682,0 -2.31432,6.91978 -3.57222,15.3773 -1.2579,8.45752 -2.52202,15.61224 -2.80918,15.89938 -0.28714,0.28714 -9.41326,-3.48264 -20.28024,-8.3773 C 582.24274,682.00472 573.10606,678 572.80602,678 c -0.30004,0 -3.49554,9 -7.10108,20 -3.60554,11 -7.31596,20 -8.24536,20 -0.92938,0 -8.09578,-5.39224 -15.9253,-11.98274 -7.8295,-6.5905 -14.47426,-11.74396 -14.76608,-11.45212 -0.29184,0.29184 -6.88934,52.25906 -14.6611,115.48274 C 504.33532,873.27154 497.71354,926.35 497.392,928 c -0.32152,1.65 -1.14926,-0.6 -1.83942,-5 z M 542.74776,670.10114 C 603.17724,653.65436 648.87032,609.21394 667.26242,549 c 4.98672,-16.32598 5.49804,-20.88304 5.49804,-49 0,-28.11696 -0.51132,-32.67402 -5.49804,-49 C 648.76958,390.45624 603.01718,346.38838 541,329.3864 c -23.13236,-6.34174 -67.17094,-6.2211 -89.79006,0.24596 -34.51812,9.8691 -60.2857,25.40258 -84.60052,50.99978 -34.56224,36.38506 -52.29984,88.9819 -46.49412,137.86786 4.62156,38.91508 20.42152,73.10464 46.60484,100.84822 26.07558,27.62942 56.44116,44.85194 93.27986,52.90576 22.7301,4.96932 60.15686,3.9956 82.74776,-2.15284 z m -66.89858,-14.06252 c -56.8328,-7.32352 -107.18376,-46.68274 -127.03096,-99.29982 -33.01274,-87.52038 14.01924,-181.71888 103.5886,-207.47348 22.08082,-6.34908 43.04796,-8.07596 63.76674,-5.25192 64.66884,8.8146 114.45552,51.11408 132.98574,112.9866 4.6239,15.43928 5.3847,21.55656 5.34788,43 -0.0364,21.19842 -0.85616,27.73714 -5.39082,43 -18.20158,61.26314 -68.17724,104.0623 -131.76108,112.8402 -17.0407,2.35252 -24.51248,2.38824 -41.5061,0.1984 z"
     id="path3172" />
</svg>
