<svg
   version="1.1"
   id="svg2"
   width="1000"
   height="1000"
   viewBox="0 0 1000 1000"
   xmlns="http://www.w3.org/2000/svg">
  <path
     style="fill:#000000;stroke-width:2"
     d="M 350.10662,842.94392 C 329.0029,839.12504 308.45558,831.1476 292.96588,820.7592 l -13.33956,-8.94636 -16.31316,3.4141 c -17.9824,3.76344 -53.51078,4.58748 -61.18814,1.41916 -4.65018,-1.91904 -4.2813,-2.32616 8,-8.82896 27.57138,-14.5987 61.00794,-54.0738 79.83838,-94.2569 11.25724,-24.0223 11.8027,-27.88072 4.72816,-33.44554 -5.37006,-4.22408 -9.69546,-4.60836 -20.28672,-1.80228 -1.69888,0.45012 -4.55242,-5.32828 -8.26244,-16.73132 -9.46064,-29.07822 -20.53784,-44.7889 -38.5047,-54.61076 -9.6814,-5.2925 -12.25584,-5.79008 -28.6377,-5.53498 -22.03518,0.34314 -39.04464,5.28682 -57.03056,16.57554 C 115.28425,634.75966 109.08173,636.9358 86,637.64764 59.166052,638.47522 40.100912,634.5908 18.341889,623.8627 9.1799286,619.34546 2.0412162,615.29212 2.478084,614.85524 c 0.4368678,-0.43686 7.933018,-1.76046 16.658111,-2.94132 20.537653,-2.77956 38.068685,-10.92832 50.712471,-23.5721 5.43711,-5.43712 17.74438,-21.9133 27.349488,-36.61374 C 118.90819,518.50126 147.20004,489.2851 169.56204,477 c 13.04697,-7.16766 14.45646,-8.52022 13.54722,-13 -6.60749,-32.55504 -7.47472,-42.6832 -6.80725,-79.50014 0.40387,-22.27706 -0.0681,-38.50008 -1.12009,-38.5 -0.99994,8e-5 -5.49994,3.98762 -10,8.86122 -4.50005,4.87358 -10.58692,9.45358 -13.52636,10.17776 -2.93944,0.72418 -8.56444,4.5367 -12.5,8.47226 -6.24564,6.24564 -7.15556,6.63132 -7.15556,3.0329 0,-6.45052 7.88986,-30.415 14.00841,-42.54882 13.17922,-26.136 32.90388,-45.84952 63.24641,-63.2107 34.62068,-19.80902 46.09306,-28.07276 51.50122,-37.0972 5.18318,-8.64902 5.20604,-8.66084 5.19032,-2.68728 -0.0326,12.36936 -6.07988,33.86916 -14.99994,53.32898 -6.96852,15.2024 -9.47646,23.34312 -10.28586,33.38766 -2.81438,34.92648 19.4576,80.60774 53.15664,109.02762 l 9.1828,7.74426 14.69376,-1.10468 c 8.08156,-0.60758 15.01588,-1.4268 15.40956,-1.8205 0.3937,-0.3937 -1.03354,-7.4315 -3.17166,-15.63958 C 321.79168,384.675 316.2286,351.2574 317.7919,343 c 3.77426,-19.9358 13.51942,-31.99584 45.69654,-56.55138 26.3953,-20.14324 41.8086,-35.49656 48.78518,-48.59536 3.99996,-7.51012 4.71616,-11.73578 4.72086,-27.85326 0.006,-18.21693 -0.341,-19.72125 -8.40232,-36.5 -4.6243,-9.625 -7.92138,-17.5 -7.32684,-17.5 2.20048,0 30.0833,20.17441 40.38204,29.21813 13.62376,11.96358 29.56266,34.64355 33.37978,47.49719 7.3353,24.70058 2.32016,39.42864 -25.0128,73.45566 -22.57312,28.10144 -30.7304,42.97078 -34.03492,62.03986 -2.66742,15.3926 -0.97636,23.96632 8.3846,42.51028 l 5.96774,11.82204 29.688,-1.41316 c 27.49882,-1.30894 29.82938,-1.14462 31.60554,2.22844 3.962,7.52414 4.64906,33.58658 2.0536,77.90172 -3.00592,51.32358 -2.99384,84.5261 0.0578,158.73984 2.49832,60.7576 1.23058,75.26246 -8.21564,94 -4.94094,9.80082 -7.72642,13.16636 -11.3189,13.676 -3.95254,0.5607 -4.50274,0.0492 -3.22644,-3 3.01886,-7.2121 3.37198,-12.28934 1.14426,-16.45188 C 469.67296,743.6519 466,742.53826 466,746.36856 466,750.02728 457.85122,766 455.98464,766 c -0.91218,0 -3.55842,-5.7092 -5.88052,-12.6871 -6.4243,-19.30502 -15.71524,-33.47146 -25.48588,-38.85978 l -8.38176,-4.62238 -4.96142,10.3669 c -3.80532,7.95122 -4.53192,11.49656 -3.11824,15.21482 3.02484,7.95594 2.02298,21.00068 -2.3492,30.58754 l -4.10454,9 -2.7257,-6.4303 c -2.8926,-6.82412 -9.62432,-9.90348 -16.72386,-7.65016 -5.87356,1.8642 -23.10508,21.44522 -28.28086,32.13692 -7.91836,16.35716 -1.89726,30.0046 20.04924,45.44354 l 10.66128,7.5 -9.8416,-0.1806 c -5.41286,-0.0992 -16.5436,-1.39328 -24.73496,-2.87558 z M 406.97266,620.1253 c 2.21504,-3.7811 7.2752,-10.0811 11.24482,-14 3.96962,-3.91892 8.35894,-10.6352 9.75404,-14.92508 2.38562,-7.33564 2.25366,-8.01354 -2.21748,-11.39238 C 408.4092,566.70042 375.21244,550.40096 354.76286,544.9515 341.55746,541.43248 316,538.68844 316,540.7896 c 0,0.75336 1.8,4.89804 4,9.2104 2.2,4.31236 4,10.20678 4,13.09872 0,3.55598 2.76282,7.95186 8.53486,13.57968 4.69416,4.57688 11.11344,12.8216 14.26508,18.3216 8.38832,14.63872 14.75964,20.80654 28.20006,27.2994 16.56356,8.0016 26.40352,7.33248 31.97266,-2.1741 z m 216.06308,220.59562 c 18.84096,-12.48862 28.2296,-26.1487 26.27034,-38.22224 -1.46668,-9.0381 -11.36658,-24.20148 -22.50218,-34.4659 -7.26436,-6.69606 -10.19846,-8.15514 -15.38974,-7.6531 -5.01816,0.48532 -7.16082,2.11624 -9.84484,7.49356 l -3.43068,6.87326 -4.0254,-8.87326 c -4.30034,-9.4793 -5.2767,-22.55272 -2.2741,-30.45014 1.41628,-3.72512 0.67608,-7.1874 -3.21948,-15.05888 l -5.0586,-10.22158 -7.67558,3.91578 c -9.8285,5.01414 -17.98058,16.9463 -24.90652,36.45556 C 547.95526,759.0313 544.86374,766 544.10894,766 542.08584,766 534,750.98458 534,747.2277 c 0,-4.56528 -3.44346,-4.00464 -6.11994,0.99642 -2.22772,4.16254 -1.8746,9.23978 1.14426,16.45188 1.2763,3.04912 0.7261,3.5607 -3.22644,3 -6.95498,-0.98666 -17.55414,-22.7342 -19.87286,-40.77552 -1.08876,-8.47126 -0.9689,-34.60108 0.30688,-66.90048 3.05826,-77.42818 3.076,-105.59558 0.0994,-157.84134 -2.58118,-45.305 -1.91544,-71.28128 2.01834,-78.7534 1.74352,-3.31174 4.23094,-3.48584 31.59702,-2.21152 l 29.7045,1.38322 6.1362,-12.15572 c 8.75148,-17.3366 10.79054,-28.17386 8.11266,-43.11742 -3.21732,-17.95376 -11.6797,-33.31942 -33.04538,-60.00244 -10.4368,-13.03424 -20.82558,-27.32408 -23.08616,-31.7552 C 510.9384,242.5565 531.6837,201.6176 583.32686,165.90688 591.20662,160.45809 598.14014,156 598.73468,156 c 0.59454,0 -2.70254,7.875 -7.32684,17.5 C 583.34882,190.27398 583,191.78825 583,210 c 0,17.194 0.54726,19.98752 5.75748,29.38906 7.6167,13.74392 19.33638,25.28318 47.75408,47.01892 32.20132,24.62968 41.92528,36.67214 45.69654,56.59202 1.61772,8.54482 -4.47748,44.6938 -12.26754,72.75552 -2.25292,8.11552 -3.69838,15.15334 -3.21214,15.63956 0.48624,0.48624 7.49626,1.38118 15.57782,1.98876 L 697,434.48852 l 9.43928,-7.8112 c 22.46804,-18.5928 44.04216,-53.3581 50.68604,-81.67732 5.08752,-21.68534 3.07538,-36.89148 -7.96588,-60.19982 -8.56084,-18.07208 -15.18264,-41.78376 -15.14052,-54.21586 0.018,-5.35548 0.22778,-5.23582 5.11582,2.91982 5.34306,8.91482 17.63858,18.15346 41.86526,31.45674 32.21474,17.6897 51.01498,33.64416 64.82724,55.01442 9.08242,14.05226 19.39234,39.2618 21.39308,52.30978 l 1.33632,8.71492 -7.43388,-7.32222 c -4.08864,-4.02724 -9.83864,-7.92578 -12.77778,-8.66346 -2.93914,-0.73768 -9.154,-5.31768 -13.81078,-10.17778 -4.6568,-4.8601 -9.15704,-8.8367 -10.00056,-8.8369 -0.8435,-2e-4 -1.53364,20.4748 -1.53364,45.5 0,37.12714 -0.67578,48.3824 -3.67226,61.16144 -2.01974,8.61358 -3.36974,15.86742 -3,16.1196 0.36974,0.2522 7.36248,4.36806 15.5394,9.14636 23.20908,13.56254 45.25016,36.23214 68.0216,69.9612 10.8098,16.01146 23.4158,33.36666 28.01336,38.56708 11.39284,12.88678 31.94788,22.84186 53.0979,25.71604 8.8,1.19588 16.29614,2.46768 16.65812,2.82626 0.36196,0.35856 -6.83804,4.33254 -16,8.83104 -21.59546,10.60334 -41.95118,14.72856 -68.30986,13.8434 -22.33796,-0.75014 -28.9079,-3.08524 -55.3177,-19.66116 C 839.98924,606.6874 823.02982,601.76976 801,601.474 c -13.81192,-0.1854 -19.6287,0.6006 -25,3.37828 -23.33138,12.06546 -33.07412,27.08186 -47.03674,72.49748 -0.539,1.7532 -2.49744,1.80498 -7.71398,0.20398 -5.22932,-1.60492 -8.5196,-1.51284 -13.05392,0.36534 -10.97432,4.54572 -10.19406,11.93694 4.3368,41.08092 18.91008,37.92724 51.1471,74.94682 77.34282,88.81714 12.2813,6.5028 12.65018,6.90992 8,8.82896 -7.6899,3.17348 -43.2076,2.34386 -61.24386,-1.43052 l -16.36886,-3.42548 -11.72296,8.00202 C 687.17766,834.37346 649.35146,846 623.27376,846 h -8.2023 z m 4.30836,-219.42174 c 11.22934,-5.72892 17.79788,-12.43506 25.62608,-26.16288 3.0936,-5.42502 9.54086,-13.66974 14.32726,-18.3216 C 673.559,570.72916 676,566.75574 676,562.64878 c 0,-3.13942 1.8,-9.06642 4,-13.17114 2.2,-4.10474 4,-7.9164 4,-8.4704 C 684,540.45326 680.0654,540 675.25644,540 c -12.85998,0 -44.29126,8.53534 -61.35712,16.66186 C 593.726,566.2681 570,581.71776 570,585.24776 c 0,5.86764 5.61314,16.03872 10.68552,19.36226 2.87718,1.88522 6.7085,6.34418 8.51404,9.90882 6.20888,12.25808 8.85116,14.02614 19.14454,12.81028 5.13924,-0.60706 13.68924,-3.32052 19,-6.02994 z"
     id="path3402" />
</svg>
