<svg
   version="1.1"
   id="svg2"
   width="1000"
   height="1000"
   viewBox="0 0 1000 1000"
   xmlns="http://www.w3.org/2000/svg">
  <path
     style="fill:#fbedc4;stroke-width:2"
     d="m 487.26544,914.4295 c -0.59564,-0.96378 -2.55624,-6.1797 -4.3569,-11.59092 C 478.98922,891.06038 474.75054,884 471.59884,884 c -1.26992,0 -7.93936,6.06144 -14.82098,13.46988 L 444.2658,910.93976 428.68192,906.96988 413.09804,903 l 0.60268,-9.51034 c 0.70556,-11.13388 -2.62332,-22.68796 -7.28896,-25.29898 -4.90194,-2.74326 -12.42594,1.98832 -20.05538,12.61212 C 382.72368,885.86126 378.49972,890 376.96984,890 373.1184,890 364,885.6835 364,883.8603 c 0,-0.82372 5.5448,-8.10426 12.32178,-16.17898 C 391.68252,849.37912 406,830.12976 406,827.77998 c 0,-4.14108 -5.89596,-0.91948 -24.4044,13.33478 -21.21028,16.3351 -39.45412,26.9116 -46.2987,26.84076 -4.37046,-0.0452 -15.0377,-6.9424 -13.26702,-8.57814 0.53356,-0.4929 5.92012,-3.37904 11.97012,-6.41364 22.94478,-11.50884 48.00506,-32.10144 44.99436,-36.97286 -0.60208,-0.97418 -5.3417,-0.45744 -10.54404,1.14958 C 339.70786,826.01908 327.4676,828.41592 306,829.3692 l -23,1.02134 -9.429,-9.69526 -9.429,-9.69528 27.429,-0.21396 c 20.72698,-0.1616 31.82712,-1.2761 45.429,-4.56092 60.60992,-14.63724 100.43332,-58.67726 114.11466,-126.19746 5.08098,-25.07568 3.35494,-64.08252 -3.71622,-83.98252 C 434.32624,559.2567 408.018,534.63706 368.008,521.75038 326.12406,508.26012 286.47866,512.48306 225,536.98326 c -12.1,4.82204 -23.575,9.36976 -25.5,10.10602 -3.10731,1.18848 -3.5,-0.0918 -3.5,-11.41126 v -12.74994 l 32,-16.61802 c 17.6,-9.1399 32,-16.92222 32,-17.29402 0,-0.3718 -13.60606,-10.35446 -30.23568,-22.18368 l -30.23567,-21.50768 1.30875,-11.13542 c 0.7198,-6.12446 2.05932,-11.88598 2.97668,-12.80334 0.91736,-0.91736 19.89606,9.66166 42.17486,23.50894 l 40.50692,25.17686 57.90248,2.14706 c 50.91484,1.88798 62.7269,1.71428 59.435,-0.87398 C 403.375,470.98442 381.8514,455.97866 356.0031,437.99864 L 309.00618,405.3077 263.0031,401.72538 c -25.3017,-1.9703 -47.0659,-3.61452 -48.36488,-3.65386 -1.55856,-0.0472 -0.77116,-3.98256 2.31526,-11.57152 l 4.67704,-11.5 38.18474,-0.54318 C 280.81686,374.15806 298,373.35842 298,372.67986 c 0,-0.67858 -7.59124,-15.74786 -16.8694,-33.48728 l -16.86942,-32.25348 7.03528,-8.46954 C 275.16586,293.8113 279.05202,290 279.93238,290 c 0.88036,0 12.45146,18.32756 25.71356,40.72792 l 24.11292,40.72794 45.62058,26.63718 c 25.0913,14.65046 48.14738,28.37108 51.23572,30.49026 3.08832,2.11918 5.92,3.52988 6.29258,3.13488 C 433.28034,431.32318 422.13602,407.6 408.14258,379 L 382.69998,327 342.85,300.1675 c -21.9175,-14.75786 -40.3,-27.22402 -40.85,-27.70254 -1.1541,-1.00414 16.23198,-16.45142 18.5254,-16.45956 0.83896,-0.002 15.68896,8.09242 33,17.98976 L 385,291.9903 l 1.27742,-15.49514 c 0.70258,-8.52234 1.91994,-25.25468 2.70526,-37.18298 l 1.42784,-21.68782 6.40548,-2.67638 c 3.52302,-1.472 8.83066,-3.28506 11.79474,-4.029 L 414,209.56636 v 46.85746 46.85746 l 30.30966,49.85936 c 33.8112,55.61938 31.37946,51.8369 32.56408,50.65228 0.48056,-0.48056 1.99284,-26.9761 3.36062,-58.87898 l 2.48688,-58.00524 -21.64142,-40.57356 c -11.92924,-22.36512 -20.84222,-41.26632 -19.8606,-42.1172 2.72006,-2.35782 18.64464,-6.53815 20.51142,-5.38441 0.9066,0.5603 9.57304,14.10197 19.25878,30.09261 9.68574,15.99062 18.15046,29.06482 18.8105,29.05378 0.66004,-0.012 9.2169,-13.28604 19.01522,-29.5 9.79832,-16.21396 18.01384,-29.74544 18.25672,-30.06997 0.7244,-0.96796 19.78788,4.00801 21.6057,5.63953 0.92266,0.8281 -7.97332,19.65762 -19.76882,41.84336 l -21.44636,40.33774 1.47108,43.3847 c 0.80908,23.8616 2.05506,50.88468 2.7688,60.0513 L 523,406.33314 l 30.20714,-49.7216 30.20714,-49.72162 1.47466,-47.94496 c 0.81106,-26.36972 1.72414,-48.20126 2.0291,-48.51454 0.30494,-0.31326 5.39812,1.03674 11.3182,3 L 609,217 l 2.4151,33.91368 c 1.32832,18.65252 2.67832,35.49088 3,37.41858 0.4896,2.93388 3.8434,1.62844 20.5849,-8.01254 11,-6.3346 25.51728,-14.5465 32.26062,-18.24864 l 12.26062,-6.73118 9.2189,7.55418 c 5.07038,4.1548 8.76068,8.29558 8.20066,9.2017 -0.56002,0.90614 -18.59826,13.5068 -40.08496,28.00148 l -39.06674,26.35394 -26.01064,51.99164 c -14.30586,28.5954 -25.71238,52.28992 -25.34782,52.65446 0.36456,0.36456 23.76556,-12.85824 52.00222,-29.38402 l 51.3394,-30.04684 24.18176,-40.83322 C 707.254,308.37494 718.92962,290 719.89984,290 721.8363,290 734,304.69244 734,307.03146 c 0,0.80072 -7.2,15.69124 -16,33.09006 -8.8,17.3988 -16,32.13916 -16,32.75634 0,0.61718 16.99548,1.12214 37.76772,1.12214 h 37.7677 l 4.49376,11.07188 c 2.47156,6.08952 4.00778,11.55784 3.41382,12.1518 -0.59396,0.59394 -22.13374,2.63126 -47.86616,4.52734 l -46.78624,3.44742 -46.8953,32.66584 C 618.10288,455.8305 596.1,471.39632 595,472.45498 c -1.91854,1.84644 23.47616,1.3852 92.35564,-1.67742 l 26.35566,-1.17188 40.34552,-24.935 c 22.19004,-13.71424 40.7837,-24.49682 41.31924,-23.96128 1.36534,1.36534 4.51882,15.44778 4.57622,20.43602 0.0354,3.07882 -7.67132,9.66336 -29.95228,25.59076 -16.5,11.79492 -30,21.78732 -30,22.20532 0,0.418 14.3967,8.25216 31.99266,17.40926 L 803.98532,523 l 0.008,12.5 c 0.004,6.875 -0.41098,12.5 -0.92226,12.5 -0.51128,0 -11.98628,-4.45214 -25.5,-9.89364 -46.80452,-18.84652 -76.59004,-25.33602 -107.5704,-23.43682 -23.72172,1.45422 -38.41906,5.32626 -59.5573,15.69048 -18.80574,9.22056 -38.29874,26.63652 -47.4576,42.40084 -24.16908,41.60002 -23.85144,101.8558 0.8129,154.20284 18.07344,38.35866 52.90672,67.50216 93.202,77.97806 17.66354,4.59212 47.54844,7.69956 63.2465,6.57638 7.56442,-0.54124 13.7535,-0.39162 13.7535,0.33248 0,0.7241 -3.98968,5.23214 -8.86598,10.01784 l -8.86596,8.7013 -22.63404,-1.11514 c -20.92436,-1.03092 -35.60666,-3.93034 -62.08434,-12.2603 -5.19768,-1.6352 -9.9425,-2.17676 -10.54404,-1.20344 -3.0979,5.0125 27.20924,29.26034 48.51182,38.81286 4.6654,2.09208 8.48254,4.37302 8.48254,5.0688 0,3.34944 -12.46848,8.34238 -17.87012,7.15598 -8.08928,-1.7767 -24.26064,-11.90396 -44.07652,-27.6028 C 599.29994,826.15306 594,823.54922 594,828.59098 c 0,1.42504 7.875,12.3681 17.5,24.31792 27.27894,33.86788 25.50576,31.22078 22.3069,33.30108 -8.63174,5.6134 -11.69442,4.55268 -23.62636,-8.18268 -10.5561,-11.26686 -12.07364,-12.22526 -16.01648,-10.1151 -5.97278,3.19652 -8.51174,10.94998 -7.87346,24.04382 L 586.82896,903 571.122,906.84162 555.41506,910.68324 542.96084,897.34162 C 536.11102,890.00374 529.60284,884 528.4982,884 c -3.39958,0 -6.81804,5.49166 -11.52508,18.51474 L 512.46046,915 l -12.056,0.59092 c -6.63082,0.325 -12.54336,-0.1976 -13.13902,-1.16142 z M 443.3544,883.14932 c 7.42788,-9.01338 21.4249,-35.0367 19.7473,-36.71428 -1.8107,-1.8107 -17.7736,6.89346 -23.16296,12.63018 C 433.05678,866.39072 430.0425,890 435.98916,890 c 0.9458,0 4.26014,-3.0828 7.36524,-6.85068 z M 566,877.99778 c 0,-11.37144 -0.41964,-12.40946 -7.98454,-19.75096 -7.98398,-7.74818 -19.1125,-13.81644 -21.30924,-11.6197 C 533.5802,849.75314 559.25404,890 564.37418,890 565.26838,890 566,884.599 566,877.99778 Z M 506.72688,872.2499 C 509.6271,865.78736 512,858.16196 512,855.30458 512,849.42552 502.44034,828 499.81722,828 c -2.0468,0 -7.0619,9.35628 -11.00396,20.52926 -2.73336,7.7472 -2.59292,8.62976 3.46502,21.77262 3.47264,7.53396 6.95774,13.69812 7.74466,13.69812 0.78694,0 3.80372,-5.28754 6.70394,-11.7501 z M 434.50936,837.836 c 12.85646,-7.63788 17.55344,-12.43986 14.83086,-15.16244 -3.61678,-3.61678 -24.44832,10.18584 -29.43464,19.50288 -2.9224,5.46054 -0.8638,4.8487 14.60378,-4.34044 z m 136.85554,-5.00704 c -8.75614,-7.92746 -18.41712,-12.4434 -21.03016,-9.83036 -2.45918,2.45918 3.48548,8.2337 15.87514,15.42076 15.64694,9.07658 18.24418,6.25998 5.15502,-5.5904 z M 123.5,529.83954 C 100.675,516.57452 82.010724,505.10902 82.023832,504.36066 82.03694,503.6123 101.36162,491.75 124.96757,478 c 23.60594,-13.75 42.94522,-25.56962 42.97616,-26.26584 0.0309,-0.69622 -14.67894,-17.79622 -32.68864,-38 -19.51705,-21.89478 -31.83804,-37.245 -30.5,-37.99874 1.2347,-0.6955 22.49491,-5.5377 47.24491,-10.76044 24.75,-5.22274 46.03937,-10.05368 47.30972,-10.73542 1.5461,-0.82976 -4.57014,-16.42242 -18.5,-47.16362 C 169.36437,281.8177 160,260.62874 160,259.98938 c 0,-0.63936 23.1086,0.89286 51.35246,3.40494 28.24384,2.5121 51.59992,4.31996 51.9024,4.0175 0.30246,-0.30248 -1.93338,-22.79388 -4.96854,-49.98088 C 254.93592,187.42031 253.54098,168 254.73572,168 c 2.45022,0 87.65064,36.04786 89.91042,38.04064 0.90538,0.7984 -4.19422,4.71776 -11.33246,8.7097 -34.47874,19.2816 -78.63986,59.84242 -103.74486,95.28686 -44.74659,63.17544 -69.00177,146.51528 -64.4544,221.4628 0.75085,12.375 1.03227,22.4905 0.62538,22.47888 -0.40689,-0.0116 -19.4148,-10.87432 -42.2398,-24.13934 z m 710.77206,-11.21418 c 0.016,-19.59394 -0.95582,-42.28458 -2.15744,-50.42362 -1.20162,-8.13904 -1.93254,-15.05048 -1.62424,-15.35878 0.889,-0.889 87.4252,50.01206 87.46966,51.45012 0.022,0.7112 -15.48504,10.2784 -34.46004,21.26046 -18.975,10.98206 -37.81994,21.93158 -41.87764,24.33228 l -7.37764,4.3649 0.0274,-35.62536 z M 829.16536,447.5 c -0.39,-1.375 -3.12212,-11.89104 -6.07138,-23.369 -22.57956,-87.875 -82.4617,-167.35006 -158.68502,-210.60538 -5.82506,-3.30562 -10.10802,-6.49322 -9.51768,-7.08356 0.59034,-0.59034 21.3313,-9.80536 46.09104,-20.4778 L 746,166.55981 v 5.62798 c 0,3.09539 -2.26104,25.60839 -5.02452,50.02891 -2.76348,24.4205 -4.70916,44.7163 -4.3237,45.10174 0.38546,0.38546 23.57148,-1.41946 51.52452,-4.01092 27.95304,-2.59146 51.14362,-4.45088 51.53462,-4.13204 0.39102,0.31884 -8.83242,21.51636 -20.4965,47.1056 -11.66408,25.58926 -20.534,47.09942 -19.71092,47.8004 0.82308,0.70096 22.86942,5.69438 48.99186,11.0965 26.12246,5.40212 47.49746,10.52188 47.5,11.37728 0.006,2.073 -62.55578,73.10064 -64.55812,73.2939 -0.85954,0.083 -1.88188,-0.97416 -2.27188,-2.34916 z M 350,201.37426 c 0,-4.054 17.85888,-91.8998 18.89336,-92.93428 0.50268,-0.50268 3.13602,0.76768 5.85186,2.82303 10.29334,7.78996 71.04646,59.78909 71.14822,60.89639 0.0586,0.63766 -7.1511,2.71899 -16.02156,4.62515 -20.4287,4.38991 -42.53486,11.59418 -62.46876,20.35821 C 349.59162,204.97368 350,204.87438 350,201.37426 Z m 276,-6.67536 c -11.55,-5.01246 -32.46736,-11.94526 -46.483,-15.40623 -14.01566,-3.46097 -25.26566,-6.86495 -25,-7.56439 C 555.30324,169.65816 628.23208,108 629.89436,108 c 1.2116,0 20.11074,88.82453 20.1067,94.5 -0.002,2.40856 -1.8885,1.79528 -24.00106,-7.8011 z M 456.08556,161 c 3.2111,-5.5 14.18048,-24.5717 24.3764,-42.38156 C 494.30804,94.43262 499.55658,86.839652 501.19904,88.618442 502.4085,89.928298 513.7172,109 526.32946,131 l 22.93138,40 h -49.50682 -49.50684 z"
     id="path3632" />
</svg>
