<svg
   version="1.1"
   id="svg2"
   width="1000"
   height="1000"
   viewBox="0 0 1000 1000"
   xmlns="http://www.w3.org/2000/svg">
  <path
     style="fill:#1fb169;stroke-width:2"
     d="M 446.90276,911.37946 C 401.3427,878.64824 358.3591,833.83592 337.67526,797.50488 L 331.69466,787 l 1.06748,13.3936 c 0.58712,7.36648 3.4055,20.41648 6.26308,29 6.8696,20.6347 24.42906,57.07714 35.0091,72.65694 l 8.48292,12.49166 -7.75862,-1.40896 C 357.9384,910.07872 316.53618,894.83088 293.55204,883.22602 L 269.33762,871 258.70134,851 C 228.39658,794.01626 206.64116,731.89354 201.74154,688.35092 l -2.35558,-20.9339 -3.84154,7.48792 c -7.85959,15.31992 -10.23023,33.59168 -10.20748,78.67428 0.0118,23.41856 -0.63604,41.86856 -1.43969,41 -5.36902,-5.80278 -21.60622,-32.48818 -28.9504,-47.57922 -30.6711,-63.02394 -29.44772,-138.29546 3.26983,-201.1827 15.8552,-30.4757 37.73028,-55.87498 77.78332,-90.31464 11.55,-9.9313 28.83196,-24.82282 38.40434,-33.09228 21.58418,-18.64632 35.60844,-35.73314 44.02498,-53.639 5.5867,-11.88546 6.47984,-15.96248 6.52192,-29.77138 0.0416,-13.64462 -0.80028,-17.72914 -5.71872,-27.74606 C 303.41854,279.04718 258.92022,248 228.5739,248 c -26.2265,0 -58.62772,20.87764 -71.89447,46.325 -4.66383,8.94584 -5.52303,12.94276 -5.30429,24.675 0.86667,46.48388 40.2139,76.70596 83.48782,64.12588 14.1975,-4.12732 29.61962,-18.33512 32.9597,-30.36444 4.27186,-15.38524 1.38218,-31.58176 -7.39894,-41.4707 -9.43552,-10.62592 -34.6552,-14.68516 -48.38386,-7.78764 -16.4589,8.26924 -21.52273,30.11308 -10.01828,43.2159 3.31186,3.77202 8.43992,7.46516 11.39568,8.20702 7.13968,1.79194 2.4096,5.00338 -7.41726,5.03588 -17.20438,0.0568 -27.91215,-14.88984 -27.91215,-38.9619 0,-31.79508 19.15129,-49.83128 52.91215,-49.83128 18.39024,0 31.52568,4.75014 42.67858,15.43372 20.9788,20.09602 24.37686,58.63596 8.0506,91.30772 -13.57468,27.1653 -44.89808,39.8727 -85.04449,34.50118 -41.66061,-5.57414 -66.72378,-29.27962 -75.68645,-71.58646 -3.62835,-17.12706 -3.63213,-25.48374 -0.0207,-45.7536 5.94695,-33.3786 24.49239,-58.36814 53.56175,-72.1731 22.09489,-10.49282 39.5562,-13.53726 69.84878,-12.17836 l 25.38806,1.1389 1.33358,-9.42936 c 4.85777,-34.34748 32.02373,-57.5654 72.16605,-61.6781 L 356,139.44762 v -12.09236 c 0,-31.229594 25.51854,-52.073558 64,-52.27625 28.26262,-0.14886 50.64178,11.419076 69.60006,35.97677 l 9.50706,12.31501 12.94644,-11.81123 c 31.07318,-28.348514 75.5154,-38.650628 110.39628,-25.590864 22.56344,8.44799 35.96696,27.196204 36.1499,50.564774 0.24062,30.73689 -19.57034,55.78481 -47.75036,60.37301 -25.6251,4.1722 -49.7861,-16.88803 -42.99196,-37.47446 2.33164,-7.06494 9.92408,-16.10398 16.46876,-19.60658 2.78494,-1.49047 2.5111,-0.1976 -1.41126,6.66262 -9.35624,16.36411 -4.46036,31.10285 11.38432,34.27179 15.18272,3.03654 34.09988,-9.19253 36.84356,-23.81766 5.52102,-29.42954 -24.27948,-47.48012 -59.28924,-35.91234 -8.51336,2.81296 -13.8822,6.64622 -24.9,17.77817 -16.14998,16.3173 -26.26162,35.06149 -33.25422,61.64412 -4.3855,16.67168 -6.26556,47.64758 -3.085,50.82862 0.8879,0.88802 8.5379,-0.94608 17,-4.0758 57.6821,-21.3338 78.97176,-27.5378 104.13818,-30.34688 13.88612,-1.54996 35.59748,-2.85742 48.24748,-2.90546 48.8523,-0.1854 81.83022,-5.60102 91.20694,-14.97774 16.64866,-16.64866 -14.19676,-44.93216 -49.56772,-45.45079 -25.05944,-0.36743 -28.8015,13.74403 -6.64244,25.0489 l 5.99678,3.05937 -7.0176,1.3165 c -23.4906,4.40687 -43.83588,-27.30865 -27.30674,-42.5675 12.20188,-11.26414 49.19982,-10.58872 76.28568,1.39264 21.57396,9.54319 43.01892,39.28788 40.31928,55.92381 -3.1394,19.34595 -23.6759,31.11691 -58.77418,33.68775 -9.075,0.66472 -16.5,1.88444 -16.5,2.71052 0,0.82608 3.06112,6.05078 6.8025,11.61044 3.74136,5.55964 7.14182,11.12644 7.55656,12.37064 0.53462,1.60388 4.52058,1.23874 13.6975,-1.25478 19.44334,-5.28308 49.31986,-4.891 66.28854,0.86994 16.21186,5.50398 29.70158,16.75254 37.24956,31.06098 4.97922,9.4389 5.40116,12.0599 5.3524,33.2467 -0.0622,26.9956 -3.16296,35.9877 -17.80948,51.646 l -8.98922,9.6102 10.47928,11.08168 c 12.92626,13.6693 22.06038,31.39592 27.6406,53.64214 3.6884,14.7043 3.9628,18.57406 2.04738,28.87366 -4.63634,24.9307 -21.9559,48.50768 -42.7423,58.18482 -18.40138,8.5668 -33.91512,5.21176 -47.51288,-10.27522 -12.2383,-13.93866 -15.31124,-29.2806 -8.55734,-42.72342 5.65586,-11.25728 14.76772,-16.0554 30.29266,-15.95146 L 823,466.1768 l -8,4.13228 c -21.1831,10.94182 -27.1515,25.84712 -15.15384,37.84478 10.0959,10.0959 28.25304,7.63668 40.42552,-5.47528 C 851.8678,490.18744 857.0936,468.43376 852.11906,453.3608 846.2482,435.57188 820.55518,416.7836 796,412.32316 c -14.8693,-2.701 -40.0381,0.26936 -51.81114,6.11462 L 735,423 l -2.42186,22 c -3.941,35.79974 -13.47874,59.0101 -34.04592,82.85166 -11.49254,13.32222 -34.58866,28.36004 -52.63276,34.2691 -11.3885,3.72948 -19.14104,4.86962 -32.89946,4.83842 -16.60214,-0.0376 -18.97358,-0.56558 -30.53668,-6.7982 -15.4567,-8.3313 -25.06296,-18.7194 -33.00506,-35.69126 -7.10572,-15.18456 -9.36692,-36.04988 -5.46912,-50.46622 C 547.4676,461.13818 561.6567,447.43528 575.863,443.22184 588.04664,439.60832 623.06398,438.6604 621,442 c -0.67984,1.1 -2.9492,2 -5.043,2 -7.46628,0 -26.60426,8.59518 -33.98496,15.2632 -10.55896,9.53938 -12.65288,15.85388 -11.55368,34.84184 0.79308,13.69984 1.79316,17.2755 6.84402,24.46964 8.46786,12.06112 20.72826,18.35278 35.84206,18.39306 25.3999,0.0676 57.20798,-23.85508 72.28812,-54.3677 C 692.67706,467.86088 693,466.35402 693,447.10372 c 0,-19.06496 -0.3832,-20.90622 -7.4162,-35.63482 -12.40974,-25.98868 -33.03916,-43.79374 -60.99062,-52.64038 -5.27626,-1.66994 -18.76912,-3.56626 -29.98414,-4.21404 C 572.7774,353.35346 558.03088,355.3084 536,362.3842 463.62008,385.63098 389.48822,465.38866 360.96978,550.69736 349.2667,585.70542 345.7429,614.907 350.03232,641.33564 c 8.1824,50.4148 33.97664,99.4915 70.3856,133.91732 25.86032,24.45176 51.4638,39.46988 88.26182,51.77136 27.87122,9.31728 50.84138,13.1049 87.32026,14.39852 44.51442,1.57858 78.2011,-3.75544 110.48856,-17.49498 34.03088,-14.48144 66.2733,-42.872 81.13896,-71.44566 9.22952,-17.74034 10.42328,-26.55594 5.11176,-37.74916 -5.89946,-12.43216 -14.95192,-15.62458 -27.3386,-9.64118 L 759,708.18372 l 6,-5.08192 c 7.80682,-6.61228 20.11584,-6.94616 27.98154,-0.759 17.63694,13.87322 16.70948,46.23332 -2.1457,74.86556 -11.03882,16.7628 -60.59844,65.58684 -81.39038,80.18234 C 651.94842,897.75238 585.25372,917.61118 489,923.02978 l -24,1.35108 z M 737.16798,378.737 c 7.14452,-1.79464 12.68202,-3.81964 12.30556,-4.5 -9.8574,-17.81484 -11.60428,-33.8716 -5.0303,-46.237 6.42134,-12.07834 21.03274,-22.0158 32.28278,-21.95608 8.11126,0.043 20.542,4.6607 28.06918,10.42684 3.41932,2.61936 2.64352,2.81178 -7.83332,1.94296 -14.00352,-1.16128 -22.92752,2.82248 -29.25428,13.05938 -5.35588,8.66602 -4.23998,21.50344 2.79302,32.13102 l 4.98372,7.5309 18.75782,0.25538 18.75784,0.25538 8.66504,-8.3229 C 835.40566,350.12486 838.9711,341.77392 838.88098,323 c -0.1416,-29.48612 -14.12798,-43 -44.50364,-43 -24.51046,0 -45.26574,9.76982 -59.9577,28.22302 -4.7192,5.92734 -14.3942,15.62002 -21.5,21.53926 C 705.81384,335.68154 700,341.63976 700,343.00276 700,345.39532 722.02848,382 723.4683,382 c 0.3903,0 6.55516,-1.46834 13.69968,-3.263 z m -60.12742,-71.45166 c 12.05184,-5.6122 27.99264,-22.59438 31.17302,-33.2095 2.67434,-8.9262 -0.1154,-16.42446 -8.38674,-22.54244 -5.8289,-4.31138 -19.0338,-6.66804 -26.65068,-4.75632 -11.6378,2.9209 -16.92256,16.98416 -10.06276,26.7779 2.91266,4.1584 2.8502,4.44502 -0.96844,4.44502 -2.24502,0 -7.02106,-2.6264 -10.6134,-5.83646 -5.7273,-5.11778 -6.4888,-6.96478 -6.18428,-15 0.191,-5.03994 -0.259,-9.14142 -1,-9.11436 -0.741,0.027 -22.49728,9.7497 -48.34728,21.60592 -45.4624,20.85154 -65.50394,31.50762 -63.33586,33.6757 0.57312,0.57312 11.99742,-0.51574 25.38732,-2.4197 27.49022,-3.90894 42.05108,-2.75102 74.94854,5.96018 23.10498,6.11816 31.61944,6.1982 44.04056,0.41406 z m -271.33254,-5.97062 c 7.7479,-4.7769 20.8887,-11.65082 29.20176,-15.27538 l 15.11468,-6.59012 -1.31444,-36.38678 -1.31444,-36.38676 11.55604,-20.58949 c 11.01576,-19.62684 11.5044,-21.08992 10.45132,-31.29321 -2.95142,-28.59655 -29.2895,-52.72081 -59.40294,-54.40986 -11.06986,-0.620908 -14.0393,-0.0294 -20,3.98372 -8.94188,6.02031 -13.99294,16.12118 -13.9969,27.9903 -0.002,8.81324 3.50462,15.64286 8.03384,15.64286 0.96318,0 7.69656,4.5 14.96306,10 7.2665,5.5 13.78116,10 14.47702,10 0.69584,0 3.34818,-1.95688 5.89408,-4.34863 8.6868,-8.16083 4.80106,-20.14606 -8.99588,-27.74692 L 403,131.84138 l 10.88122,0.82236 c 9.13962,0.69073 11.78054,1.82886 16.5,7.11086 8.39182,9.39207 6.7969,25.60173 -3.58528,36.43839 l -5.28282,5.51409 6.72386,15.63646 c 6.0033,13.96074 6.71736,17.56548 6.66306,33.63646 -0.05,14.8223 -0.87912,19.58884 -4.69604,27 -8.76052,17.00996 -22.51502,28.00108 -38.88406,31.07194 -4.41756,0.82874 -7.1011,2.3341 -6.53692,3.66696 0.52638,1.2436 2.05802,5.6361 3.4036,9.7611 1.3456,4.125 2.66878,7.5 2.94042,7.5 0.27164,0 6.83308,-3.90838 14.58098,-8.68528 z m -9.1696,-34.72924 c 7.00682,-6.21498 12.15436,-20.52914 12.18414,-33.88144 0.022,-9.83594 -1.25764,-14.90636 -6.39578,-25.3434 -7.34586,-14.92155 -24.14984,-31.67191 -35.54658,-35.43318 -10.5538,-3.48307 -25.2729,-1.45649 -34.69152,4.77646 -19.71626,13.0476 -23.53376,45.01434 -6.63846,55.58878 l 6.45022,4.03706 3.25676,-8.13942 c 3.64178,-9.1017 14.28992,-19.4734 21.97186,-21.40144 2.78062,-0.6979 10.0176,-0.85742 16.08216,-0.3545 13.23296,1.09738 18.4487,5.44542 20.01486,16.68516 1.08746,7.80438 1.06272,7.8398 -2.564,3.6704 -2.01414,-2.31552 -5.16994,-4.73652 -7.01288,-5.37998 C 373.07492,217.71796 352,233.9939 352,245.85232 c 0,12.11818 20.29128,27.34836 33.74806,25.33052 3.71142,-0.55652 8.56708,-2.62534 10.79036,-4.59736 z"
     id="path3862" />
</svg>
