<?xml version="1.0" encoding="UTF-8" standalone="no"?>
<svg
   version="1.1"
   viewBox="0 0 35.356781 87.053917"
   id="svg4"
   sodipodi:docname="vine-left.svg"
   inkscape:version="1.1.2 (0a00cf5339, 2022-02-04)"
   width="35.356781"
   height="87.053917"
   xmlns:inkscape="http://www.inkscape.org/namespaces/inkscape"
   xmlns:sodipodi="http://sodipodi.sourceforge.net/DTD/sodipodi-0.dtd"
   xmlns:xlink="http://www.w3.org/1999/xlink"
   xmlns="http://www.w3.org/2000/svg"
   xmlns:svg="http://www.w3.org/2000/svg">
  <defs
     id="defs8">
    <linearGradient
       inkscape:collect="always"
       id="linearGradient74038">
      <stop
         style="stop-color:#3a4f2e;stop-opacity:1;"
         offset="0"
         id="stop74034" />
      <stop
         style="stop-color:#5f7f2b;stop-opacity:1"
         offset="1"
         id="stop74036" />
    </linearGradient>
    <linearGradient
       id="linearGradient60664"
       inkscape:swatch="solid">
      <stop
         style="stop-color:#5c7340;stop-opacity:1;"
         offset="0"
         id="stop60662" />
    </linearGradient>
    <linearGradient
       inkscape:collect="always"
       xlink:href="#linearGradient74038"
       id="linearGradient74042"
       x1="-8.7827015"
       y1="86.489212"
       x2="33.039753"
       y2="59.351727"
       gradientUnits="userSpaceOnUse"
       spreadMethod="pad"
       gradientTransform="translate(2.3346416,-15.82629)" />
  </defs>
  <sodipodi:namedview
     id="namedview6"
     pagecolor="#ffffff"
     bordercolor="#666666"
     borderopacity="1.0"
     inkscape:pageshadow="2"
     inkscape:pageopacity="0.0"
     inkscape:pagecheckerboard="0"
     showgrid="false"
     inkscape:zoom="5.4447222"
     inkscape:cx="34.528851"
     inkscape:cy="41.23259"
     inkscape:window-width="1344"
     inkscape:window-height="1016"
     inkscape:window-x="2496"
     inkscape:window-y="27"
     inkscape:window-maximized="0"
     inkscape:current-layer="svg4"
     width="71.795px"
     fit-margin-top="0"
     fit-margin-left="0"
     fit-margin-right="0"
     fit-margin-bottom="0" />
  <path
     style="fill:url(#linearGradient74042);fill-opacity:1;fill-rule:nonzero;stroke:#3a4f2e;stroke-width:0.447;stroke-linecap:butt;stroke-linejoin:round;stroke-miterlimit:4;stroke-dasharray:0.894, 2.682;stroke-dashoffset:0;stroke-opacity:1;paint-order:normal"
     d="m 4.0317376,46.701922 c 0,11.462704 -3.71649305,16.004551 -3.71649305,26.00226 0,6.843268 2.85647005,13.283898 12.02856845,12.069428 7.714067,-1.02141 9.897132,-5.77375 16.479441,-5.77375 5.643013,0 4.090255,5.87626 0,5.87626 -2.728958,0 -2.194397,-2.90409 0,-2.90409 2.443968,0 1.980244,1.56652 0,1.55032 3.387752,0 3.387752,-3.0169 0,-3.0169 -4.38603,0 -5.166682,6.32497 0,6.32497 9.082519,0 7.765187,-11.770613 0,-11.770613 -7.135561,0.140718 -10.198078,3.546053 -15.017369,4.672103 -5.2595584,1.22892 -8.2343834,-0.95563 -8.2343834,-7.082355 0,-10.325949 3.360342,-14.165514 3.360342,-25.586963 0,-12.683822 -3.982618,-13.448904 -3.982618,-23.063725 0,-9.614821 1.69894,-11.633225 3.299412,-18.4655881 1.600473,-6.832361 -6.751006,-6.496648 -7.88619405,-2.260069 -0.876815,3.272317 2.03728605,4.053148 2.91410005,0.78083 -0.496876,1.916962 -2.130045,1.959438 -1.4975,-0.401253 0.567952,-2.119624 5.399385,-1.781648 3.526499,2.074118 -1.957589,4.03015 -4.99651905,6.3574501 -4.87630005,18.2719631 0.120219,11.914513 3.60249505,9.899008 3.60249505,22.703054 z"
     id="path1111"
     sodipodi:nodetypes="ccsccsscccscszzcscszc" />
</svg>
