<?xml version="1.0" encoding="UTF-8" standalone="no"?>
<svg
   version="1.1"
   viewBox="0 0 35.264999 52.931999"
   id="svg4"
   sodipodi:docname="vine-right.svg"
   inkscape:version="1.1.2 (0a00cf5339, 2022-02-04)"
   width="35.264999"
   height="52.931999"
   xmlns:inkscape="http://www.inkscape.org/namespaces/inkscape"
   xmlns:sodipodi="http://sodipodi.sourceforge.net/DTD/sodipodi-0.dtd"
   xmlns:xlink="http://www.w3.org/1999/xlink"
   xmlns="http://www.w3.org/2000/svg"
   xmlns:svg="http://www.w3.org/2000/svg">
  <defs
     id="defs8">
    <linearGradient
       inkscape:collect="always"
       id="linearGradient74038">
      <stop
         style="stop-color:#3a4f2e;stop-opacity:1;"
         offset="0"
         id="stop74034" />
      <stop
         style="stop-color:#5f7f2b;stop-opacity:1"
         offset="1"
         id="stop74036" />
    </linearGradient>
    <linearGradient
       id="linearGradient60664"
       inkscape:swatch="solid">
      <stop
         style="stop-color:#5c7340;stop-opacity:1;"
         offset="0"
         id="stop60662" />
    </linearGradient>
    <linearGradient
       inkscape:collect="always"
       xlink:href="#linearGradient74038"
       id="linearGradient79052"
       gradientUnits="userSpaceOnUse"
       x1="35.363567"
       y1="75.156128"
       x2="-4.91289"
       y2="49.336449"
       spreadMethod="pad"
       gradientTransform="matrix(-1.0000078,0,0,0.99999601,33.039935,-49.898481)" />
  </defs>
  <sodipodi:namedview
     id="namedview6"
     pagecolor="#ffffff"
     bordercolor="#666666"
     borderopacity="1.0"
     inkscape:pageshadow="2"
     inkscape:pageopacity="0.0"
     inkscape:pagecheckerboard="0"
     showgrid="false"
     inkscape:zoom="5.4447222"
     inkscape:cx="-42.610071"
     inkscape:cy="8.3567165"
     inkscape:window-width="1344"
     inkscape:window-height="1016"
     inkscape:window-x="2496"
     inkscape:window-y="27"
     inkscape:window-maximized="0"
     inkscape:current-layer="svg4"
     width="71.795px"
     fit-margin-top="0"
     fit-margin-left="0"
     fit-margin-right="0"
     fit-margin-bottom="0" />
  <path
     style="fill:url(#linearGradient79052);fill-opacity:1;fill-rule:nonzero;stroke:#3a4f2e;stroke-width:0.447001;stroke-linecap:butt;stroke-linejoin:round;stroke-miterlimit:4;stroke-dasharray:0.894002, 2.68201;stroke-dashoffset:0;stroke-opacity:1;paint-order:normal"
     d="m 26.442681,20.249073 c 0,8.686421 3.360375,8.723074 3.360375,18.327937 0,6.126697 -2.974854,8.311238 -8.234454,7.082323 -4.819328,-1.126035 -7.881869,-4.531363 -15.0174867,-4.67208 -7.765248,0 -9.082591,11.770561 0,11.770561 5.1667227,0 4.3860647,-6.324934 0,-6.324934 -3.387778,0 -3.387778,3.016892 0,3.016892 -1.98026,0.0162 -2.443987,-1.550328 0,-1.550328 2.194415,0 2.72898,2.90408 0,2.90408 -4.090287,0 -5.64305699,-5.876228 0,-5.876228 6.5823607,0 8.7654437,4.752331 16.4795717,5.773718 9.172168,1.21446 12.028668,-5.22614 12.028668,-12.069377 0,-9.997669 -3.25767,-11.517352 -3.97873,-16.907857 -0.72106,-5.390504 -0.64932,-6.619253 2.61897,-14.5420377 3.26829,-7.92278595 -5.66948,-8.659748 -6.804677,-4.423185 -0.876822,3.272304 2.037298,4.053132 2.914128,0.780827 -0.49689,1.916955 -2.130067,1.959431 -1.49752,-0.401252 0.56796,-2.119616 5.463979,-1.587714 3.526529,2.074111 -1.937439,3.661823 -5.395374,6.3504077 -5.395374,15.0368297 z"
     id="path1111-7"
     sodipodi:nodetypes="zcscccssccsczzcsczz" />
</svg>
